STARTFONT 2.1
COMMENT ======================================================================
COMMENT Font Status: Complete.
COMMENT              Addressing will shift later by +0x1200
COMMENT ***********
COMMENT Ethiomx10d300.bdf is a 100% scale from EthioLaTeX ethio[x]10.300pk,
COMMENT with much added!
COMMENT ***********
COMMENT This Is The Unicode Ordered Ethiopic Font with shifted address to
COMMENT start at zero for coco handling until new CCL code is written for
COMMENT Unicode in coco.
COMMENT Extension candidates are added in 4 rows at the end in a compressed 16
COMMENT column format. SERA character names are given for alphabetic elements;
COMMENT punctuations and numbers are named descriptively.
COMMENT Unicode encoding begins at hex 1200 / dec 4608
COMMENT ***********
COMMENT Another Fine Admas Product : fisseha@cig.mot.com
COMMENT Available at ftp://ftp.cs.indiana.edu/pub/fidel/sera2ps/
COMMENT See also ftp://ftp.cs.indiana.edu/pub/fidel/info/unicode.ps
COMMENT ======================================================================
FONT -Admas-Ethiomx10d300-Medium-R-Normal--10-150-300-300-P-363-Uni-Fontspecific
SIZE 10 300 300
FONTBOUNDINGBOX 68 60 -1 -15
STARTPROPERTIES 4
COPYRIGHT "GNU CopyLeft"
FONT_ASCENT 46
FONT_DESCENT 15
DEFAULT_CHAR 403
ENDPROPERTIES
CHARS 411
STARTCHAR he
ENCODING 0
SWIDTH 616 0
DWIDTH 36 0
BBX 27 34 4 -1
BITMAP
00000700
00007f80
00007f80
07807fc0
1fc03fc0
7fc03fc0
3fe03fc0
1fe01fe0
1fe01fe0
1fe01fe0
3fc01fe0
3fc01fe0
3fc01fe0
3fc03fe0
3fc03fe0
3fc03fe0
3fc03fe0
7f803fc0
7f803fc0
7f807fc0
7f807fc0
7f807f80
7f807f80
7f807f00
7f80ff00
ff00fe00
7f00fc00
7f00f800
7f01f000
3f01e000
1f038000
0fcf0000
07fc0000
00400000
ENDCHAR
STARTCHAR hu
ENCODING 1
SWIDTH 821 0
DWIDTH 48 0
BBX 43 34 4 -1
BITMAP
000007000000
00007f800000
00007f800000
07807fc00000
1fc03fc00000
7fc03fc00000
3fe03fc00000
1fe01fe00000
1fe01fe00000
1fe01fe00000
3fc01fe00000
3fc01fe00000
3fc01fe7ff80
3fc03ff87f80
3fc03fe07f80
3fc03fe07f80
3fc03fe03fc0
7f803fc01fe0
7f803fc00fc0
7f807fc00000
7f807fc00000
7f807f800000
7f807f800000
7f807f000000
7f80ff000000
ff00fe000000
7f00fc000000
7f00f8000000
7f01f0000000
3f01e0000000
1f0380000000
0fcf00000000
07fc00000000
004000000000
ENDCHAR
STARTCHAR hi
ENCODING 2
SWIDTH 599 0
DWIDTH 35 0
BBX 33 40 0 -3
BITMAP
00c000c000
07e00fe000
1fe03fe000
1fc01fe000
1fc00ff000
3fc00fe000
3f800fe000
7f801fe000
7f801fe000
7f801fc000
ff003fc000
ff003fc000
7f807f8000
7f807f8000
3fe0ff0000
0ffffe0000
0001fe0000
0003fc0000
0003fc0000
0007f80000
0007f00000
000ff00000
001fe00000
001fe00000
003fc00000
003fc00000
007f800000
007f800000
00ff000000
00ff000000
00ff000000
01fe001e00
01fe00fc00
01fe01fc00
01fe03fc00
00fffffc00
007ffffe00
000003ff00
000001ff80
0000007c00
ENDCHAR
STARTCHAR ha
ENCODING 3
SWIDTH 564 0
DWIDTH 33 0
BBX 28 37 0 0
BITMAP
00c000c0
07e00fe0
1fe03fe0
1fc01fe0
1fc00ff0
3fc00fe0
3f800fe0
7f801fe0
7f801fe0
7f801fc0
ff003fc0
ff003fc0
7f807f80
7f807f80
3fe0ff00
0ffffe00
0001fe00
0003fc00
0003fc00
0007f800
0007f000
000ff000
001fe000
001fe000
003fc000
003fc000
007f8000
007f8000
00ff0000
00ff0000
00ff0000
01fe0000
01fe0000
01fe0000
01fe0000
00ff0000
007f8000
ENDCHAR
STARTCHAR hE
ENCODING 4
SWIDTH 564 0
DWIDTH 33 0
BBX 30 38 0 -1
BITMAP
00c000c0
07e00fe0
1fe03fe0
1fc01fe0
1fc00ff0
3fc00fe0
3f800fe0
7f801fe0
7f801fe0
7f801fc0
ff003fc0
ff003fc0
7f807f80
7f807f80
3fe0ff00
0ffffe00
0001fe00
0001fc00
0003fc00
0007f800
0007f000
000ff000
000fe000
001fe000
003fc000
003fc000
007f8000
007f81fc
00ff03fc
00ff03fc
00ff03fc
01fe03fc
01fe03fc
01fe0ff8
01ff3ff0
00ffff80
00fe0000
00400000
ENDCHAR
STARTCHAR h
ENCODING 5
SWIDTH 616 0
DWIDTH 36 0
BBX 32 37 1 0
BITMAP
00800010
1fc007f8
3fc01ff8
3fc00ff8
3fc00ffc
3fc00ffc
1fe007fc
1fe007fc
1fe007fe
1fe007fe
3fc003fe
3fc003fe
3fc003fe
7f8003fe
ff0003fe
fffe03ff
01fe03ff
01fe03ff
03fc03ff
03fc03ff
03fc03ff
03fc03ff
03fc03ff
07f803fe
07f803fe
07f803fe
07f803fe
07f803fe
07f807fc
07f807fc
07f807f8
07f80ff0
03f80fe0
03f81fc0
01fc7f80
00fffe00
003ff000
ENDCHAR
STARTCHAR ho
ENCODING 6
SWIDTH 804 0
DWIDTH 47 0
BBX 41 35 4 -1
BITMAP
0000007ffe00
000007f0ff00
00001ff07f00
00001fe07f80
07801fe07f80
1fc01fe07f00
7fc01fe07f00
3fe01fe0fe00
1fe01fe0fe00
1fe01fe3f800
1fe01ffff000
3fc01ffe0000
3fc03fc00000
3fc03fc00000
3fc03fc00000
3fc03fc00000
3fc03fc00000
3fc03fc00000
7f803fc00000
7f807fc00000
7f807fc00000
7f807f800000
7f807f800000
7f807f800000
7f807f000000
7f80ff000000
ff00fe000000
7f00fc000000
7f00f8000000
7f01f0000000
3f01e0000000
1f03c0000000
0fcf00000000
07fc00000000
004000000000
ENDCHAR
STARTCHAR le
ENCODING 8
SWIDTH 650 0
DWIDTH 38 0
BBX 31 37 3 0
BITMAP
00030000
001f0000
007f0000
007f0000
007f8000
007f8000
003fc000
001ff000
003ffc00
007ffe00
00ffff00
01ff7f80
03fc3fc0
07fc1fe0
0ff81fe0
0ff01ff0
1ff00ff0
1fe00ff0
3fe00ff0
3fc00ff0
3fc00ff0
7f800ff0
7f800ff0
7f800ff0
ff800ff0
ff801ff0
ff801ff0
ff801ff0
ff801ff0
ff801ff0
ff801ff0
ff801ff0
ff800ff8
ff800ff8
7fc00ff8
7fc007fc
3fe007fe
ENDCHAR
STARTCHAR lu
ENCODING 9
SWIDTH 855 0
DWIDTH 50 0
BBX 44 37 3 0
BITMAP
000300000000
001f00000000
007f00000000
007f00000000
007f80000000
007f80000000
003fc0000000
001ff0000000
003ffc000000
007ffe000000
00ffff000000
01ff7f800000
03fc3fc00000
07fc1fe00000
0ff81fe00000
0ff01ff00000
1ff00ff00000
1fe00ff00000
3fe00fffffe0
3fc00ff03fe0
3fc00ff01fe0
7f800ff01fe0
7f800ff00ff0
7f800ff007f0
ff800ff003e0
ff801ff00000
ff801ff00000
ff801ff00000
ff801ff00000
ff801ff00000
ff801ff00000
ff801ff00000
ff800ff80000
ff800ff80000
7fc00ff80000
7fc007fc0000
3fe007fe0000
ENDCHAR
STARTCHAR li
ENCODING 10
SWIDTH 855 0
DWIDTH 50 0
BBX 41 40 3 -3
BITMAP
000600000000
003e00000000
00fe00000000
01fe00000000
00fe00000000
00ff00000000
007f80000000
003fc0000000
007ff8000000
00fff8000000
01fffc000000
03fffe000000
03fcff000000
07f87f800000
0ff87f800000
0ff03fc00000
1fe03fc00000
1fe03fc00000
3fc03fc00000
3fc03fc00000
7fc03fc00000
7f803fc00000
7f803fc00000
7f803fc00000
ff803fc00000
ff807fc00000
ff807fc00000
ff807fc00000
ff807fc00000
ff807fc00000
ff807fc00000
ff807fc01e00
ff803fe0fc00
ff803fe3f800
7fc03fe3fc00
7fc01ffffc00
3fe01ffffe00
00000003ff00
00000001ff80
000000007c00
ENDCHAR
STARTCHAR la
ENCODING 11
SWIDTH 633 0
DWIDTH 37 0
BBX 30 37 4 0
BITMAP
00060000
003e0000
00fe0000
00fe0000
00ff0000
00ff0000
007f8000
003fe000
001ff800
003ffc00
00fffe00
01ffff00
03fe7f80
07fc3fc0
0ff83fc0
1ff03fe0
3fe01fe0
3fc01fe0
7fc01fe0
7f801fe0
ff801fe0
ff801fe0
ff801fe0
ff801fe0
ff801fe0
ff803fe0
ff803fe0
7fc03fe0
00003fe0
00003fe0
00003fe0
00003fe0
00001ff0
00001ff0
00001ff0
00000ff8
00000ffc
ENDCHAR
STARTCHAR lE
ENCODING 12
SWIDTH 821 0
DWIDTH 48 0
BBX 41 37 3 0
BITMAP
000300000000
001f00000000
007f00000000
007f00000000
007f80000000
007f80000000
003fc0000000
001ff0000000
003ffc000000
007ffe000000
00ffff000000
01ff7f800000
03fc3fc00000
07fc1fe00000
0ff81fe00000
0ff00ff00000
1fe00ff00000
1fe00ff00000
3fc00ff00000
3fc00ff00000
3fc00ff00000
7f800ff00000
7f800ff00000
7f800ff00000
ff000ff00000
ff000ff00000
ff000ff00000
ff000fff8000
ff000ffffc00
ff000ff0fe00
ff000ff07f80
ff000ff07f80
ff0007f87f80
ff0007f87f80
7f8007f87f00
7f8003fffe00
3fc001fff800
ENDCHAR
STARTCHAR l
ENCODING 13
SWIDTH 701 0
DWIDTH 41 0
BBX 36 37 3 0
BITMAP
0000400000
001fc00000
003fc00000
001fe00000
001fe00000
000ff00000
0007f80000
0003fe0000
0007ff8000
001fffe000
003ffff000
007fe7f800
00ff83fc00
01ff01fe00
03fc01ff00
07fc00ff00
07f800ff00
0ff0007f80
1fe0007f80
1fe0007f80
3fc0007f80
3f80007f80
3f83807f80
7f9fe07f80
7f7ff0ff80
7ffff0ff80
ff0ff8ff80
fe07f8ff80
fe03f8ff80
fe03f8ff80
fe03f0ff80
fe07f0ff80
7f07e07fc0
7fff807fc0
7ff8007fc0
3fc0003fe0
0f00003ff0
ENDCHAR
STARTCHAR lo
ENCODING 14
SWIDTH 975 0
DWIDTH 57 0
BBX 54 37 3 0
BITMAP
00020000000000
00fe0000000000
01fe0000000000
01fe0000000000
01fe0000000000
00ff0000000000
00ff0000000000
007fc000000000
007ff800000000
00fff800000000
01fffc00000000
03fffe000007e0
03fcff0007fff0
07f87f803ffff8
0ff87f8fff87f8
0ff03ff07f03fc
1fe03fc07e01fc
1fe03fc07e01fc
3fc03fc07f03fc
3fc03fc07f03f8
7f803fc03f87f8
7f803fc03fffe0
7f803fc01fff80
7f803fc0070000
ff003fc0000000
ff003fc0000000
ff003fc0000000
ff003fc0000000
ff003fc0000000
ff003fc0000000
ff003fc0000000
ff003fc0000000
ff001fe0000000
ff001fe0000000
7f801fe0000000
7f800ff0000000
3fc007f8000000
ENDCHAR
STARTCHAR lWa
ENCODING 15
SWIDTH 855 0
DWIDTH 50 0
BBX 43 44 4 -7
BITMAP
000c00000000
007c00000000
01fc00000000
03fc00000000
01fc00000000
01fe00000000
00ff00000000
007f80000000
003ff0000000
007ff0000000
00fff0000000
01fff8000000
03fffc000000
07fffc000000
0ff1fe000000
1fe1fe000000
3fe1fe000000
3fc1ff000000
7fc0ff000000
7f80ff000000
ff80ff000000
ff80ff000000
ff80ff000000
ff80ff000000
ff80ff000000
ff80ff000000
ff80ff000000
7fc0ff000000
0000ff000000
0000ff800000
0000ff800000
0000ff800000
0000ff800000
00007fc00000
00007fc00000
00003fe07f80
000fffffffc0
0ff000007f80
1ff000007f80
0ff000003fc0
1fe000003fe0
1fe000000fc0
3fc000000300
1f8000000000
ENDCHAR
STARTCHAR He
ENCODING 16
SWIDTH 872 0
DWIDTH 51 0
BBX 44 37 2 0
BITMAP
000000200000
00000ff00000
00001ff80000
000007f80000
000007f80000
000007f80000
000007f80000
00000ff00000
00000ff00000
00000ff00000
00000ff00000
00000ff00000
00000ff00000
00000ff00000
00000ff00000
00001fffe000
0003fffffc00
003fffe3ff00
00ff1fe07f80
03f81fe03fc0
07f01fe01fe0
0fc01fe01ff0
1fc01fe00ff0
3f803fc00ff0
7f803fc00ff0
7f003fc00ff0
ff003fc00ff0
ff003fc00ff0
ff003fc00ff0
ff003fc00ff0
ff003fc00ff0
ff007f800ff0
ff007f800ff0
ff007f800ff0
ff007f800ff0
ff003fc00ff0
7f803fe00ff0
ENDCHAR
STARTCHAR Hu
ENCODING 17
SWIDTH 1129 0
DWIDTH 66 0
BBX 59 37 2 0
BITMAP
0000002000000000
00000ff000000000
00001ff800000000
000007f800000000
000007f800000000
000007f800000000
000007f800000000
00000ff000000000
00000ff000000000
00000ff000000000
00000ff000000000
00000ff000000000
00000ff000000000
00000ff000000000
00000ff000000000
00001ffff0000000
0003fffffe000000
003fffe3ff000000
00ff1fe07fc00000
03f81fe03fc00000
07f01fe01fe00000
0fc01fe01ff00000
1fc01fe00ff00000
3f803fc00ff3ffc0
7f803fc00ffc7fc0
7f003fc00ff07f80
ff003fc00ff03fc0
ff003fc00ff03fc0
ff003fc00ff01fe0
ff003fc00ff007c0
ff003fc00ff00000
ff007f800ff00000
ff007f800ff00000
ff007f800ff00000
ff007f800ff00000
ff003fc00ff00000
7f803fe00ff00000
ENDCHAR
STARTCHAR Hi
ENCODING 18
SWIDTH 1129 0
DWIDTH 66 0
BBX 60 40 2 -3
BITMAP
0000002000000000
00000ff000000000
00001ff800000000
000007f800000000
000007f800000000
000007f800000000
000007f800000000
00000ff000000000
00000ff000000000
00000ff000000000
00000ff000000000
00000ff000000000
00000ff000000000
00000ff000000000
00000ff000000000
00001ffff0000000
0003fffffe000000
003fffe3ff000000
00ff1fe07fc00000
03f81fe03fc00000
07f01fe01fe00000
0fc01fe01ff00000
1fc01fe00ff00000
3f803fc00ff00000
7f803fc00ff00000
7f003fc00ff00000
ff003fc00ff00000
ff003fc00ff00000
ff003fc00ff00000
ff003fc00ff00000
ff003fc00ff00000
ff007f800ff003e0
ff007f800ff01f80
ff007f800ff03f80
ff007f800ff07f80
ff003fc00fffffc0
7f803fe00fffffc0
0000000000103fe0
0000000000003ff0
0000000000000fc0
ENDCHAR
STARTCHAR Ha
ENCODING 19
SWIDTH 872 0
DWIDTH 51 0
BBX 44 37 1 0
BITMAP
000000200000
00000ff00000
00001ff80000
000007f80000
000007f80000
000007f80000
00000ff00000
00000ff00000
00000ff00000
00000ff00000
00000ff00000
00000ff00000
00001fe00000
00001fe00000
00001fe00000
00001ffffe00
0007ffffff80
007fffc07fe0
03fe3fc01fe0
0ff03fc01fe0
1fc03fc01fe0
3f803fc01fe0
7f803fc00ff0
ff007f800ff0
ff007f800ff0
ff007f800ff0
ff003fc00ff0
ff003fe00ff0
7f8000000ff0
000000000ff0
000000000ff0
000000000ff0
000000000ff0
000000000ff0
000000000ff0
000000000ff0
000000000ff0
ENDCHAR
STARTCHAR HE
ENCODING 20
SWIDTH 1129 0
DWIDTH 66 0
BBX 56 37 2 0
BITMAP
00000020000000
00000ff0000000
00001ff8000000
000007f8000000
000007f8000000
000007f8000000
000007f8000000
00000ff0000000
00000ff0000000
00000ff0000000
00000ff0000000
00000ff0000000
00000ff0000000
00000ff0000000
00000ff0000000
00001ffff00000
0003fffffe0000
003fffe3ff0000
00ff1fe07fc000
03f81fe03fc000
07f01fe01fe000
0fc01fe01ff000
1fc01fe00ff000
3f803fc00ff000
7f803fc00ff000
7f003fc00ff000
ff003fc00ff000
ff003fc00ffe00
ff003fc00ffff0
ff003fc00ff3fc
ff003fc00ff0fe
ff007f800ff0ff
ff007f800ff0ff
ff007f800ff0ff
ff007f800ff0fe
ff003fc00ffffc
7f803fe00ffff0
ENDCHAR
STARTCHAR H
ENCODING 21
SWIDTH 872 0
DWIDTH 51 0
BBX 44 41 2 0
BITMAP
0007e0000000
001ff0000000
000ff8000000
0007f8000000
0007f8200000
0007fff00000
0007fff80000
000fc7f80000
003807f80000
000007f80000
000007f80000
00000ff00000
00000ff00000
00000ff00000
00000ff00000
00000ff00000
00000ff00000
00000ff00000
00000ff00000
00001fffe000
0003fffffc00
003fffe3ff00
00ff1fe07f80
03f81fe03fc0
07f01fe01fe0
0fc01fe01ff0
1fc01fe00ff0
3f803fc00ff0
7f803fc00ff0
7f003fc00ff0
ff003fc00ff0
ff003fc00ff0
ff003fc00ff0
ff003fc00ff0
ff003fc00ff0
ff007f800ff0
ff007f800ff0
ff007f800ff0
ff007f800ff0
ff003fc00ff0
7f803fe00ff0
ENDCHAR
STARTCHAR Ho
ENCODING 22
SWIDTH 838 0
DWIDTH 49 0
BBX 44 37 2 0
BITMAP
000000200000
00000ff00000
00001ff80000
000007f80000
000007f80000
000007f80000
00000ff00000
00000ff00000
00000ff00000
00000ff00000
00000ff00000
00001fe00000
00001fe00000
00001fe00000
00001fe00000
00001ffff800
0003ffffff00
003fffc1ff80
00ff3fc03fc0
03f83fc01fe0
07f03fc01ff0
0fc03fc00ff0
1fc07f800ff0
3f807f800ff0
7f807f800ff0
7f007f800ff0
ff003fe00ff0
ff0000000ff0
ff0000000000
ff0000000000
ff0000000000
ff0000000000
ff0000000000
ff0000000000
ff0000000000
ff0000000000
7f8000000000
ENDCHAR
STARTCHAR HWa
ENCODING 23
SWIDTH 872 0
DWIDTH 51 0
BBX 61 46 1 -7
BITMAP
0000002000000000
00000ff000000000
00001ff800000000
000007f800000000
000007f800000000
000007f800000000
00000ff000000000
00000ff000000000
00000ff000000000
00000ff000000000
00000ff000000000
00000ff000000000
00001fe000000000
00001fe000000000
00001fe000000000
00001ffffe000000
0007ffffff800000
007fffc07fe00000
03fe3fc01fe00000
0ff03fc01fe00000
1fc03fc01fe00000
3f803fc01fe00000
7f803fc00ff00000
ff007f800ff00000
ff007f800ff00000
ff007f800ff00000
ff003fc00ff00000
ff003fe00ff00000
7f8000000ff00000
000000000ff00000
000000000ff00000
000000000ff00000
000000000ff00000
000000000ff00000
000000000ff00000
000000000ff00000
000000000ff00000
0000000007f81fe0
00000003fffffff0
000003fc00001fe0
000007fc00001fe0
000003fc00000ff0
000007f800000ff8
000007f8000003f0
00000ff0000000c0
000007e000000000
ENDCHAR
STARTCHAR me
ENCODING 24
SWIDTH 992 0
DWIDTH 58 0
BBX 52 19 2 6
BITMAP
0000fe3ff07f00
000f83fc7fffc0
003e07f8ffffe0
00fc0ff0ff0ff0
03f80ff0ff0ff0
07f01fe0ff0ff0
0ff01fe1fe0ff0
1fe03fc1fe0ff0
3fe03fc1fe0ff0
3fc07f81fe0ff0
7fc0ff03fc1ff0
7f80ff03fc1fe0
7f81fe03fc1fe0
ff81fe03fc3fc0
7f03fc07f83f80
7f07f807f87e00
7f87f803fff800
3ffff000038000
1ff80000000000
ENDCHAR
STARTCHAR mu
ENCODING 25
SWIDTH 1215 0
DWIDTH 71 0
BBX 67 19 2 6
BITMAP
0000fe3ff07f000000
000f83fc7fffc00000
003e07f8ffffe00000
00fc0ff0ff0ff01f00
03f80ff0ff0ff07f00
07f01fe0ff0ff0ff00
0ff01fe1fe0ff3ff00
1fe03fc1fe0fffff80
3fe03fc1fe0ffcffc0
3fc07f81fe0ff07fe0
7fc0ff03fc1ff03fc0
7f80ff03fc1fe00000
7f81fe03fc1fe00000
ff81fe03fc3fc00000
7f03fc07f83f800000
7f07f807f87e000000
7f87f803fff8000000
3ffff0000380000000
1ff800000000000000
ENDCHAR
STARTCHAR mi
ENCODING 26
SWIDTH 1146 0
DWIDTH 67 0
BBX 63 40 3 -3
BITMAP
00000000001fe000
00003ffffffff000
000ffffffffff800
007ffff0ff07f800
01ff0ff0ff03fc00
07f81fe0ff03fc00
0fe01fe1fe03fc00
1fc03fc3fc03fc00
3f803fc3fc03fc00
7f807f87f803fc00
ff007f87f807f800
ff00ff0ff007f800
ff00ff07f807f800
ff01fe07f80ff000
ff01fe03fffff000
7fc3fc00fffff000
3ffffc00001fe000
01fc0000001fe000
00000000003fc000
00000000003fc000
00000000007f8000
00000000007f8000
0000000000ff0000
0000000000ff0000
0000000000ff0000
0000000001fe0000
0000000001fe0000
0000000003fc0000
0000000003fc0000
0000000003fc0000
0000000003fc0000
0000000003fc007c
0000000003fc03f0
0000000003fc07f0
0000000003fc07f0
0000000003fdfff8
0000000001fffff8
00000000000007fc
00000000000003fe
00000000000001f8
ENDCHAR
STARTCHAR ma
ENCODING 27
SWIDTH 1061 0
DWIDTH 62 0
BBX 54 37 3 0
BITMAP
00000000001fe0
00003ffffffff0
000ffffffffff8
007ffff0ff07f8
01ff0ff0ff03fc
07f81fe0ff03fc
0fe01fe1fe03fc
1fc03fc3fc03fc
3f803fc3fc03fc
7f807f87f803fc
ff007f87f807f8
ff00ff0ff007f8
ff00ff07f807f8
ff01fe07f80ff0
ff01fe03fffff0
7fc3fc00fffff0
3ffffc00001fe0
01fc0000001fe0
00000000003fc0
00000000003fc0
00000000007f80
00000000007f80
0000000000ff00
0000000000ff00
0000000000ff00
0000000001fe00
0000000001fe00
0000000003fc00
0000000003fc00
0000000003fc00
0000000003fc00
0000000003fc00
0000000003fc00
0000000003fc00
0000000003fc00
0000000003fc00
0000000001fe00
ENDCHAR
STARTCHAR mE
ENCODING 28
SWIDTH 1146 0
DWIDTH 67 0
BBX 59 37 3 0
BITMAP
00000000001fe000
00003ffffffff000
000ffffffffff800
007ffff0ff07f800
01ff0ff0ff03fc00
07f81fe0ff03fc00
0fe01fe1fe03fc00
1fc03fc3fc03fc00
3f803fc3fc03fc00
7f807f87f803fc00
ff007f87f807f800
ff00ff0ff007f800
ff00ff07f807f800
ff01fe07f80ff000
ff01fe03fffff000
7fc3fc00fffff000
3ffffc00001fe000
01fc0000001fe000
00000000003fc000
00000000003fc000
00000000007f8000
00000000007f8000
0000000000ff0000
0000000000ff0000
0000000000ff0000
0000000001fe0000
0000000001fe0000
0000000003ffe000
0000000003fffe00
0000000003fc7f80
0000000003fc1fc0
0000000003fc1fe0
0000000003fc1fe0
0000000003fc1fe0
0000000003fc1fc0
0000000003ffff80
0000000001fffe00
ENDCHAR
STARTCHAR m
ENCODING 29
SWIDTH 1009 0
DWIDTH 59 0
BBX 49 36 -1 0
BITMAP
0003fffffff000
007ffffffffc00
01fffc1fe07e00
07fbfc1fe07f00
0fe3fc1fe07f00
1fc3fc1fe07f80
3fc3fc0ff07f80
3f83fc0ff07f80
7f83fc0ff07f80
7f83fc0ff07f80
7f83fc0ff07f80
7f83fc0ff07f80
7f83fc0ff07f00
7f83fc07f07e00
7f83fc03fffc00
3fc3fc00ffe000
1ff3fc00000000
07fff800000000
01fff000000000
001fe000000000
003fc000000000
007f8000000000
00ff0000000000
01fe0000000000
03fc0000000000
07f80000000000
0ff00000000000
1fe00000000000
3fc00000000000
3fc00000000000
7f800000000000
7f800000000000
ff000000000000
ff000000000000
ff000000000000
ff000000000000
ENDCHAR
STARTCHAR mo
ENCODING 30
SWIDTH 1009 0
DWIDTH 59 0
BBX 48 36 2 0
BITMAP
0003ffffffe0
007ffffffff8
03fffe3fc0fc
07f1fe3fc0fe
1fe1fe3fc0fe
3fc1fe3fc0ff
7f81fe1fe0ff
7f01fe1fe0ff
ff01fe1fe0ff
ff01fe1fe0ff
ff01fe1fe0ff
ff01fe1fe0ff
ff03fc1fe0fe
ff03fc0fe0fc
ff03fc07fff8
7f83fc01ffc0
3fe3fc000000
0ffffc000000
03fffc000000
001ffc000000
0007f8000000
0007f8000000
0007f8000000
0007f8000000
0007f8000000
0007f8000000
000ff0000000
000ff0000000
000ff0000000
000ff0000000
000ff0000000
000ff0000000
000ff0000000
001fe0000000
001fe0000000
001fe0000000
ENDCHAR
STARTCHAR mWa
ENCODING 31
SWIDTH 1180 0
DWIDTH 69 0
BBX 62 44 3 -7
BITMAP
00000000001fe000
00003ffffffff000
000ffffffffff800
007ffff0ff07f800
01ff0ff0ff03fc00
07f81fe0ff03fc00
0fe01fe1fe03fc00
1fc03fc3fc03fc00
3f803fc3fc03fc00
7f807f87f803fc00
ff007f87f807f800
ff00ff0ff007f800
ff00ff07f807f800
ff01fe07f80ff000
ff01fe03fffff000
7fc3fc00fffff000
3ffffc00001fe000
01fc0000001fe000
00000000003fc000
00000000003fc000
00000000007f8000
00000000007f8000
0000000000ff0000
0000000000ff0000
0000000000ff0000
0000000001fe0000
0000000001fe0000
0000000003fc0000
0000000003fc0000
0000000003fc0000
0000000003fc0000
0000000003fc0000
0000000003fc0000
0000000003fc0000
0000000003fc0000
0000000003fc0ff0
000000007ffffff8
0000007f80000ff8
000000ff800007f8
0000007f800007f8
000000ff000003fc
000000ff000001fc
000001fe00000020
000000fc00000000
ENDCHAR
STARTCHAR `se/s2e
ENCODING 32
SWIDTH 889 0
DWIDTH 52 0
BBX 45 23 3 6
BITMAP
03f80ff01fe0
03fc07f80ff0
01fe07f80ff0
01fe03fc0ff0
01fe03fc07f8
03fc03fc07f8
03fc07f807f8
07f807f807f8
07f807f807f8
0ff007f807f8
1fe00ff007f0
1fc00ff00ff0
3fc01ff00ff0
7f801ff00fe0
7f801ffc1fc0
7f803fffff80
ff003fdffe00
ff007f800000
7f807f800000
7fcffc000000
3fff80000000
0ff800000000
020000000000
ENDCHAR
STARTCHAR `su/s2u
ENCODING 33
SWIDTH 1095 0
DWIDTH 64 0
BBX 58 23 3 6
BITMAP
03f80ff01fe00000
03fc07f80ff00000
01fe03fc0ff00000
01fe03fc0ff00000
01fe01fe07f80000
03fc01fe07f80000
03fc03fc07f80000
07f803fc07f80000
07f803fc07f80000
0ff007f807f80000
1fe007f807f00000
1fc007f807f00000
3fc00ff00fffff00
7f800ff00fe0ff00
7f801ffc1fc0ff00
7f801fffff80ff00
ff003fdffe007f80
ff007f8000007fc0
7f807f8000001f80
7fcffc0000000000
3fff800000000000
0ff8000000000000
0200000000000000
ENDCHAR
STARTCHAR `si/s2i
ENCODING 34
SWIDTH 907 0
DWIDTH 53 0
BBX 50 39 0 -3
BITMAP
1fe0ff00ff0000
1fe07f807f8000
1fe07f803fc000
3fc03fc03fc000
3fc07f803fc000
3fc07f803fc000
7f807f807f8000
7f80ff007f8000
7f80ff007f8000
ff00ff80ff0000
ff01ff80ff0000
7f83ff80ff0000
7f83ffe1fe0000
3fe7fffffe0000
0ffff8fffe0000
00000003fc0000
00000003fc0000
00000007f80000
00000007f80000
00000007f80000
0000000ff00000
0000000ff00000
0000000ff00000
0000001fe00000
0000001fe00000
0000001fe00000
0000003fc00000
0000003fc00000
0000003fc00000
0000003fc00000
0000003fc00f80
0000003fc07e00
0000003fc0fe00
0000003fc1fe00
0000001fffff00
0000000fffff00
0000000001ff80
0000000000ffc0
00000000003e00
ENDCHAR
STARTCHAR `sa/s2a
ENCODING 35
SWIDTH 787 0
DWIDTH 46 0
BBX 42 36 0 0
BITMAP
1fe0ff00ff00
1fe07f807f80
1fe07f803fc0
3fc03fc03fc0
3fc07f803fc0
3fc07f803fc0
7f807f807f80
7f80ff007f80
7f80ff007f80
ff00ff80ff00
ff01ff80ff00
7f83ff80ff00
7f83ffe1fe00
3fe7fffffe00
0ffff8fffe00
00000003fc00
00000003fc00
00000007f800
00000007f800
00000007f800
0000000ff000
0000000ff000
0000000ff000
0000001fe000
0000001fe000
0000001fe000
0000003fc000
0000003fc000
0000003fc000
0000003fc000
0000003fc000
0000003fc000
0000003fc000
0000003fc000
0000001fe000
0000000ff000
ENDCHAR
STARTCHAR `sE/s2E
ENCODING 36
SWIDTH 924 0
DWIDTH 54 0
BBX 47 36 4 0
BITMAP
1fe1fe01fe00
1fe0ff00ff00
1fe07f807f80
3fc07f807f80
3fc0ff007f80
3fc0ff007f80
7f80ff00ff00
7f81fe00ff00
7f81fe00ff00
ff03ff00ff00
ff03ff01fe00
7f87ff01fe00
7f87ffc3fc00
3feffffffc00
0ffff1fffc00
00000007f800
00000007f800
0000000ff000
0000000ff000
0000000ff000
0000001fe000
0000001fe000
0000001fe000
0000003fc000
0000003fc000
0000003fc000
0000003ffe00
0000007ffff0
0000007f87f8
0000007f81fc
0000007f81fe
0000007f81fe
0000007f81fe
0000003fc1fc
0000003ffff8
0000001fffe0
ENDCHAR
STARTCHAR `s/s2
ENCODING 37
SWIDTH 1026 0
DWIDTH 60 0
BBX 55 36 2 0
BITMAP
0003fc03fc07f8
0003fc03fc03fc
0003fc01fe03fe
0003fc01fe01fe
0003fc01fe01fe
0003fc01fe01fe
0003fc01fe01fe
0003fc01fe01fe
0007f801fe03fc
0007f803fe03f8
000ff003fe07f0
000ff00fff9fe0
000ff03fe7ffc0
001fffff807c00
003ffffe000000
003fffe0000000
007f8000000000
007f8000000000
00ff0000000000
00ff0000000000
01fe0000000000
03fc0000000000
03fc0000000000
07f80000000000
07f80000000000
0ff00000000000
1fe00000000000
1fe00000000000
3fc00000000000
3fc00000000000
7f800000000000
7f800000000000
ff000000000000
ff000000000000
ff000000000000
ff000000000000
ENDCHAR
STARTCHAR `so/s2o
ENCODING 38
SWIDTH 872 0
DWIDTH 51 0
BBX 45 36 2 0
BITMAP
1fe01fe00ff0
1fe00ff00ff0
1fe00ff00ff0
3fc00ff007f8
3fc00ff007f8
3fc00ff007f8
7f800ff007f8
7f801fe007f8
7f801fe007f0
ff003fc007e0
ff003fc00fc0
7f807ff07f80
7f80fffffe00
3fe0ff1fc000
0ffffe000000
0003fc000000
0003fc000000
0007f8000000
000ff0000000
001fe0000000
001fe0000000
003fc0000000
007f80000000
00ff00000000
01fe00000000
01fe00000000
03fc00000000
07f800000000
07f800000000
0ff000000000
1fe000000000
1fe000000000
3fc000000000
3fc000000000
3fc000000000
3fc000000000
ENDCHAR
STARTCHAR `sWa/s2Wa
ENCODING 39
SWIDTH 787 0
DWIDTH 46 0
BBX 48 44 0 -7
BITMAP
1fe0ff00ff00
1fe07f807f80
1fe07f803fc0
3fc03fc03fc0
3fc07f803fc0
3fc07f803fc0
7f807f807f80
7f80ff007f80
7f80ff007f80
ff00ff80ff00
ff01ff80ff00
7f83ff80ff00
7f83ffe1fe00
3fe7fffffe00
0ffff8fffe00
00000003fc00
00000003fc00
00000007f800
00000007f800
00000007f800
0000000ff000
0000000ff000
0000000ff000
0000001fe000
0000001fe000
0000001fe000
0000003fc000
0000003fc000
0000003fc000
0000003fc000
0000003fc000
0000003fc000
0000003fc000
0000003fc000
0000001fe000
0000000ff1fc
000003fffffe
0007fc0001fe
0007fc0001fe
0003fc0001fe
0007f80000ff
0007f800007f
000ff0000008
0007e0000000
ENDCHAR
STARTCHAR re
ENCODING 40
SWIDTH 616 0
DWIDTH 36 0
BBX 28 36 3 -1
BITMAP
00000080
00003f80
00007f80
00007f80
00007f80
00007f80
0000ff00
0000ff00
0001fe00
0003fc00
0007fc00
000ff800
001ff000
003fe000
007f8000
00ff0000
01fe0000
03fc0000
07f80000
0ff00000
1fe00000
3fc00000
3fc00000
7f800000
7f800000
ff000000
ff000000
ff0003e0
ff000fc0
ff003fc0
7f003fc0
7f003fc0
3f81ffe0
1fffbff0
07fe1ff0
00000380
ENDCHAR
STARTCHAR ru
ENCODING 41
SWIDTH 684 0
DWIDTH 40 0
BBX 33 34 3 0
BITMAP
0001fe0000
0001fe0000
0001fe0000
0003fc0000
0003fc0000
0003fc0000
0007f80000
000ff00000
003fe00000
00ff800000
03fe000000
0ff8000000
1fe0000000
3fc0000000
7f80000000
7f80000000
ff00000000
ff00000000
ff00000000
7f80000000
3fff03fe00
0ffffdff00
007f81fe00
007f81fe00
007f80ff00
007f807f80
007f803f00
00ff000000
00ff000000
00ff000000
00ff000000
00ff000000
00ff000000
007fc00000
ENDCHAR
STARTCHAR ri
ENCODING 42
SWIDTH 616 0
DWIDTH 36 0
BBX 29 34 3 0
BITMAP
00001fe0
00001fe0
00001fe0
00001fe0
00001fe0
00001fe0
00003fc0
00003fc0
00007f80
0000ff00
0001fe00
0003fc00
0007f800
001ff000
003fc000
00ff8000
01fe0000
07fc0000
0ff00000
1fe00000
3fc00000
3fc00000
7f8000e0
7f801ff0
ff000ff0
ff0007f8
ff0007f8
ff0007f8
ff000ff8
7f801ff0
7f80ffe0
3fcfff00
0fff0000
03f00000
ENDCHAR
STARTCHAR ra
ENCODING 43
SWIDTH 804 0
DWIDTH 47 0
BBX 39 35 3 -1
BITMAP
00003fc000
00003fc000
00003fc000
00003fc000
00003fc000
00007f8000
00007f8000
00007f8000
0000ff0000
0001fe0000
0003fc0000
0007f80000
000ff00000
003fe00000
007f800000
00ff000000
03fe000000
07f8000000
0ff0000000
1fe0000000
3fc0000000
3fc0000000
7f800e7ffc
7f803f87fc
ff00fc07f8
ff01fc03fc
ff03fc03fc
ff03fc01fe
ff07fc007c
7f87fc0000
7f87fc0000
3fcffc0000
1fefc00000
0fff000000
03fc000000
ENDCHAR
STARTCHAR rE
ENCODING 44
SWIDTH 753 0
DWIDTH 44 0
BBX 37 35 3 0
BITMAP
0000004000
00001fc000
00003fc000
00003fc000
00003fc000
00003fc000
00007f8000
00007f8000
0000ff0000
0001fe0000
0003fe0000
0007fc0000
000ff80000
001fe00000
003fc00000
00ff800000
01ff000000
03fc000000
07f8000000
0ff0000000
1fe00007c0
3fc0003fe0
3fc00ffff0
7f803f8ff8
7f803f03f8
ff007e03f8
ff007e03f8
ff007e03f8
ff007f03f8
ff007f07f0
7f007fffe0
7f803fff80
3f80ffc000
0fffc00000
03ff000000
ENDCHAR
STARTCHAR r
ENCODING 45
SWIDTH 616 0
DWIDTH 33 0
BBX 29 36 0 -1
BITMAP
00002000
003fffe0
00ffdfc0
01f01fc0
03e01fc0
07e00fe0
0fc007f8
1fc001f0
1fc00000
3fc00000
3f800000
7f800000
7f800000
7f800000
7f800000
ff800000
ff800000
ff800000
ff000000
ff000000
ff000000
ff000000
ff000000
ff000000
ff000000
ff000000
ff000000
ff0003e0
ff000fc0
ff003fc0
ff803fc0
7fe0ffc0
3fffffe0
1fffbff0
03f01ff0
00000380
ENDCHAR
STARTCHAR ro
ENCODING 46
SWIDTH 753 0
DWIDTH 44 0
BBX 36 37 3 -1
BITMAP
000007ffc0
00003fffe0
001fff1ff0
00fffe0ff0
01f8fc07f0
03f0fc07f0
07e0fc07f0
0fc0fc07f0
1fc0fe0ff0
1fc07fffe0
3f807fff80
3f801f0000
7f80000000
7f80000000
7f80000000
ff80000000
ff00000000
ff00000000
ff00000000
ff00000000
ff00000000
ff00000000
ff00000000
ff00000000
ff00000000
ff00000000
ff00000000
ff00000000
ff0001f000
ff0007e000
ff001fe000
ff801fe000
7fe07fe000
3ffffff000
1fffdff800
03f80ff800
000001c000
ENDCHAR
STARTCHAR rWa
ENCODING 47
SWIDTH 804 0
DWIDTH 47 0
BBX 41 41 3 -1
BITMAP
0fc000001f80
0fe000007f80
07f00000ff00
07f80000fe00
07fc0001fe00
07ffe07fff00
07ffffffff00
00003fc00000
00003fc00000
00003fc00000
00003fc00000
00007f800000
00007f800000
00007f800000
0000ff000000
0001fe000000
0003fc000000
0007f8000000
000ff0000000
003fe0000000
007f80000000
00ff00000000
03fe00000000
07f800000000
0ff000000000
1fe000000000
3fc000000000
3fc000000000
7f800e7ffc00
7f803f87fc00
ff00fc07f800
ff01fc03fc00
ff03fc03fc00
ff03fc01fe00
ff07fc007c00
7f87fc000000
7f87fc000000
3fcffc000000
1fefc0000000
0fff00000000
03fc00000000
ENDCHAR
STARTCHAR se
ENCODING 48
SWIDTH 616 0
DWIDTH 36 0
BBX 26 36 5 0
BITMAP
00ff8000
00ff8000
00ff8000
00ff8000
00ff8000
00ff8000
00ffe000
00fff800
03e3fe00
07c0ff00
0f80ff00
1f807f80
3f807f80
7f007f80
7f007f80
ff007f80
ff007f80
ff007f80
ff007f80
ff007f80
ff007f80
ff007f80
ff007f80
ff007f80
ff007f80
ff007f80
ff007f80
ff007f80
ff007f80
ff007f80
ff007f80
ff007f80
ff007f80
ff807f80
ffe07fc0
7fe07fc0
ENDCHAR
STARTCHAR su
ENCODING 49
SWIDTH 838 0
DWIDTH 49 0
BBX 41 36 5 0
BITMAP
00ff80000000
00ff80000000
00ff80000000
00ff80000000
00ff80000000
00ff80000000
00ffe0000000
00fff8000000
03e3fe000000
07c0ff000000
0f80ff000000
1f807f800000
3f807f800000
7f007f800000
7f007f800000
ff007f800000
ff007f800000
ff007f800000
ff007f800000
ff007ffffe00
ff007f81ff00
ff007f81fe00
ff007f80ff00
ff007f80ff00
ff007f807f80
ff007f803f00
ff007f800000
ff007f800000
ff007f800000
ff007f800000
ff007f800000
ff007f800000
ff007f800000
ff807f800000
ffe07fc00000
7fe07fc00000
ENDCHAR
STARTCHAR si
ENCODING 50
SWIDTH 838 0
DWIDTH 42 0
BBX 42 39 0 -3
BITMAP
00ff80000000
00ff80000000
00ff80000000
00ff80000000
00ff80000000
00ff80000000
00ffe0000000
00fff8000000
03e3fe000000
07c0ff000000
0f80ff000000
1f807f800000
3f807f800000
7f007f800000
7f007f800000
ff007f800000
ff007f800000
ff007f800000
ff007f800000
ff007f800000
ff007f800000
ff007f800000
ff007f800000
ff007f800000
ff007f800000
ff007f800000
ff007f800000
ff007f800000
ff007f800000
ff007f800000
ff007f800f80
ff007f807e00
ff007f80fe00
ff807f81fe00
ffe07fffff00
7fe07fffff00
00000000ff80
00000000ffc0
000000003f00
ENDCHAR
STARTCHAR sa
ENCODING 51
SWIDTH 616 0
DWIDTH 36 0
BBX 26 36 5 0
BITMAP
00ff8000
00ff8000
00ff8000
00ff8000
00ff8000
00ff8000
00ffe000
00fff800
03e3fe00
07c0ff00
0f80ff00
1f807f80
3f807f80
7f007f80
7f007f80
ff007f80
ff007f80
ff007f80
ff007f80
ff007f80
ff007f80
ff007f80
ff007f80
ff007f80
ff007f80
ff807f80
ffe07f80
7c007f80
00007f80
00007f80
00007f80
00007f80
00007f80
00007f80
00007fc0
00007fc0
ENDCHAR
STARTCHAR sE
ENCODING 52
SWIDTH 770 0
DWIDTH 45 0
BBX 38 36 5 0
BITMAP
00ff800000
00ff800000
00ff800000
00ff800000
00ff800000
00ff800000
00ffe00000
00fff80000
03e3fe0000
07c0ff0000
0f80ff0000
1f807f8000
3f807f8000
7f007f8000
7f007f8000
ff007f8000
ff007f8000
ff007f8000
ff007f8000
ff007f8000
ff007f8000
ff007f8000
ff007f8000
ff007f8000
ff007f8000
ff007f8000
ff007ffc00
ff007fffc0
ff007f8ff0
ff007f83f8
ff007f83fc
ff007f83fc
ff007f83fc
ff807f83f8
ffe07ffff0
7fe07fffc0
ENDCHAR
STARTCHAR s
ENCODING 53
SWIDTH 616 0
DWIDTH 36 0
BBX 26 36 2 0
BITMAP
07fc0000
07fc0000
07fe0000
03fe0000
01fe0000
01ff0000
00ffe000
00fff800
03e3fe00
07c0ff00
0f80ff00
1f807f80
3f807f80
7f007f80
7f007f80
ff007f80
ff007f80
ff007f80
ff007f80
ff007f80
ff007f80
ff007f80
ff007f80
ff007f80
ff007f80
ff007f80
ff007f80
ff007f80
ff007f80
ff007f80
ff007f80
ff007f80
ff007f80
ff807f80
ffe07fc0
7fe07fc0
ENDCHAR
STARTCHAR so
ENCODING 54
SWIDTH 616 0
DWIDTH 36 0
BBX 28 36 4 0
BITMAP
007fc000
007fc000
007fc000
007fc000
007fc000
007fc000
007ff000
007ffc00
01f1ff00
03e07f80
07c07f80
0fc03fc0
1fc03fc0
3f803fc0
3f803fc0
7f803fc0
7f803fc0
7f803fc0
7f803fc0
7f803fc0
7f803fc0
7f803fc0
7f803fc0
7f803fc0
7f803fc0
7f803fc0
ff803fe0
ff803f80
ff800000
ff800000
ff800000
ff800000
ff800000
ff800000
fff00000
7ff00000
ENDCHAR
STARTCHAR sWa
ENCODING 55
SWIDTH 872 0
DWIDTH 51 0
BBX 46 41 2 -6
BITMAP
0003f8000000
0003f8000000
0003f8000000
0003f8000000
0003f8000000
0003f8000000
0003f8000000
0003ff000000
0007ffc00000
001e1fe00000
007e0ff00000
00fc07f80000
01fc07f80000
01f807f80000
03f807f80000
03f807f80000
07f807f80000
07f807f80000
07f807f80000
07f807f80000
07f807f80000
07f807f80000
07f807f80000
07f807f80000
07fc07f80000
07fe07f80000
03e007f80000
000007f80000
000007f80000
000007f80000
000007f80000
000007f80000
000007f80000
000007fc0000
01fffffffff8
01fe00000ff8
01fe00000ff0
01fe000007f8
03fc000007f8
07f8000003fc
01f0000000f8
ENDCHAR
STARTCHAR xe
ENCODING 56
SWIDTH 684 0
DWIDTH 40 0
BBX 37 40 2 0
BITMAP
00000003e0
0000000fc0
0000001fc0
7f00003fc0
ff8007ffc0
7fffffffe0
7ffff83ff0
7f83f81ff8
7f03f807c0
7e03f80000
f803f80000
0003f80000
0003ff8000
0007ffc000
001f1fe000
003e0ff000
007e07f800
00fc07f800
01fc07f800
01fc07f800
03fc07f800
03fc07f800
03fc07f800
03fc07f800
03fc07f800
03fc07f800
03fc07f800
03fc07f800
03fc07f800
03fc07f800
03fc07f800
03fc07f800
03fc07f800
03fc07f800
03fc07f800
03fc07f800
03fc07f800
03fc07f800
03ff87fc00
01ff07fc00
ENDCHAR
STARTCHAR xu
ENCODING 57
SWIDTH 872 0
DWIDTH 51 0
BBX 45 40 2 0
BITMAP
00000003e000
0000000fc000
0000001fc000
7f00003fc000
ff8007ffc000
7fffffffe000
7ffff83ff000
7f83f81ff800
7f03f807c000
7e03f8000000
f803f8000000
0003f8000000
0003ff800000
0007ffc00000
001f1fe00000
003e0ff00000
007e07f80000
00fc07f80000
01fc07f80000
01fc07f80000
03fc07f80000
03fc07f80000
03fc07f80000
03fc07f80000
03fc07f80fe0
03fc07fffff0
03fc07f81ff0
03fc07f80ff0
03fc07f80ff0
03fc07f807f8
03fc07f803f8
03fc07f800e0
03fc07f80000
03fc07f80000
03fc07f80000
03fc07f80000
03fc07f80000
03fc07f80000
03ff87fc0000
01ff07fc0000
ENDCHAR
STARTCHAR xi
ENCODING 58
SWIDTH 907 0
DWIDTH 53 0
BBX 47 43 2 -3
BITMAP
00000003e000
0000000fc000
0000001fc000
7f00003fc000
ff8007ffc000
7fffffffe000
7ffff83ff000
7f83f81ff800
7f03f807c000
7e03f8000000
f803f8000000
0003f8000000
0003ff800000
0007ffc00000
001f1fe00000
003e0ff00000
007e07f80000
00fc07f80000
01fc07f80000
01fc07f80000
03fc07f80000
03fc07f80000
03fc07f80000
03fc07f80000
03fc07f80000
03fc07f80000
03fc07f80000
03fc07f80000
03fc07f80000
03fc07f80000
03fc07f80000
03fc07f80000
03fc07f80000
03fc07f80000
03fc07f8007c
03fc07f803f0
03fc07f807f0
03fc07f80ff0
03ff87fffff8
01ff07fffff8
0000000007fc
0000000007fe
0000000001f8
ENDCHAR
STARTCHAR xa
ENCODING 59
SWIDTH 684 0
DWIDTH 40 0
BBX 37 40 2 0
BITMAP
00000003e0
0000000fc0
0000001fc0
7f00003fc0
ff8007ffc0
7fffffffe0
7ffff83ff0
7f83f81ff8
7f03f807c0
7e03f80000
f803f80000
0003f80000
0003ff0000
0007ffc000
001e1fe000
007e0ff000
00fc07f800
01fc07f800
01f807f800
03f807f800
03f807f800
07f807f800
07f807f800
07f807f800
07f807f800
07f807f800
07f807f800
07f807f800
07f807f800
07fc07f800
07ff07f800
03e007f800
000007f800
000007f800
000007f800
000007f800
000007f800
000007f800
000007fc00
000007fc00
ENDCHAR
STARTCHAR xE
ENCODING 60
SWIDTH 804 0
DWIDTH 47 0
BBX 42 40 2 0
BITMAP
00000003e000
0000000fc000
0000001fc000
7f00003fc000
ff8007ffc000
7fffffffe000
7ffff83ff000
7f83f81ff800
7f03f807c000
7e03f8000000
f803f8000000
0003f8000000
0003ff800000
0007ffc00000
001f1fe00000
003e0ff00000
007e07f80000
00fc07f80000
01fc07f80000
01fc07f80000
03fc07f80000
03fc07f80000
03fc07f80000
03fc07f80000
03fc07f80000
03fc07f80000
03fc07f80000
03fc07f80000
03fc07f80000
03fc07f80000
03fc07ffc000
03fc07fffc00
03fc07f87f00
03fc07f83f80
03fc07f83fc0
03fc07f83fc0
03fc07f83fc0
03fc07f83f80
03ff87ffff00
01ff07fffc00
ENDCHAR
STARTCHAR x
ENCODING 61
SWIDTH 770 0
DWIDTH 45 0
BBX 37 40 2 0
BITMAP
00000001e0
0000000fc0
0000001fc0
7f80003fc0
ff8007ffe0
7fffffffe0
3ffffe1ff8
3f81fe0ff8
3f80ff03c0
7e00ff0000
f8007f8000
00003fc000
00003ffc00
00003ffe00
0000f8ff00
0001f07f80
0003f03fc0
0007e03fc0
000fe03fc0
000fe03fc0
001fe03fc0
001fe03fc0
001fe03fc0
001fe03fc0
001fe03fc0
001fe03fc0
001fe03fc0
001fe03fc0
001fe03fc0
001fe03fc0
001fe03fc0
001fe03fc0
001fe03fc0
001fe03fc0
001fe03fc0
001fe03fc0
001fe03fc0
001fe03fc0
001ffc3fe0
000ff83fe0
ENDCHAR
STARTCHAR xo
ENCODING 62
SWIDTH 684 0
DWIDTH 40 0
BBX 37 40 2 0
BITMAP
00000003e0
0000000fc0
0000001fc0
7f00003fc0
ff8007ffc0
7fffffffe0
7ffff83ff0
7f83f81ff8
7f03f807c0
7e03f80000
f803f80000
0003f80000
0003ff8000
0007ffc000
001f1fe000
003e0ff000
007e07f800
00fc07f800
01fc07f800
01fc07f800
03fc07f800
03fc07f800
03fc07f800
03fc07f800
03fc07f800
03fc07f800
03fc07f800
03fc07f800
03fc07f800
03fc07fc00
03fc07fe00
03fc03c000
03fc000000
03fc000000
03fc000000
03fc000000
03fc000000
03fc000000
03ff800000
01ff000000
ENDCHAR
STARTCHAR xWa
ENCODING 63
SWIDTH 872 0
DWIDTH 51 0
BBX 46 47 2 -6
BITMAP
f8000001f000
fe000007f000
ff00000fe000
7f80001fe000
7f80001fe000
7ffe07ffe000
fffffffff000
0003f8000000
0003f8000000
0003f8000000
0003f8000000
0003f8000000
0003f8000000
0003ff000000
0007ffc00000
001e1fe00000
007e0ff00000
00fc07f80000
01fc07f80000
01f807f80000
03f807f80000
03f807f80000
07f807f80000
07f807f80000
07f807f80000
07f807f80000
07f807f80000
07f807f80000
07f807f80000
07f807f80000
07fc07f80000
07ff07f80000
03e007f80000
000007f80000
000007f80000
000007f80000
000007f80000
000007f80000
000007f80000
000007fc0000
01fffffffff8
01fe00000ff8
01fe00000ff0
01fe000007f8
03fc000007f8
07f8000003fc
01f0000000f8
ENDCHAR
STARTCHAR qe
ENCODING 64
SWIDTH 735 0
DWIDTH 43 0
BBX 40 36 1 0
BITMAP
0000ff8000
00007fc000
00003fc000
00003fc000
00003fc000
00003fc000
00007f8000
00007f8000
00007f9c00
00007fffe0
001ffffff8
01ffff87fc
07fc7f83fe
1fe07f83ff
3fc0ff03ff
7fc0ff01ff
ffc0ff03ff
ffc0ff03ff
ffc0ff03fe
ffc0ff07fc
ffc0fffff0
7fffffff00
3fffff8000
07f9fe0000
0001fe0000
0001fe0000
0001fe0000
0001fe0000
0001fe0000
0001fe0000
0003fc0000
0003fc0000
0003fc0000
0003fc0000
0003fe0000
0001ff0000
ENDCHAR
STARTCHAR qu
ENCODING 65
SWIDTH 735 0
DWIDTH 44 0
BBX 40 36 1 0
BITMAP
0000ff8000
00007fc000
00003fc000
00003fc000
00003fc000
00003fc000
00007f8000
00007f8000
00007f9c00
00007fffe0
001ffffff8
01ffff87fc
07fc7f83fe
1fe07f83ff
3fc0ff03ff
7fc0ff01ff
ffc0ff03ff
ffc0ff03ff
ffc0ff03fe
ffc0ff07fc
ffc0fffff0
7fffffff00
3fffff8000
07f9fe0000
0001fe03f0
0001fe07e0
0001fe0fe0
0001fefff0
0001fffff0
0001ff0ff8
0003fc0ffe
0003fc03f8
0003fc0000
0003fc0000
0003fe0000
0001ff0000
ENDCHAR
STARTCHAR qi
ENCODING 66
SWIDTH 735 0
DWIDTH 43 0
BBX 40 38 1 -2
BITMAP
0000ff8000
00007fc000
00003fc000
00003fc000
00003fc000
00003fc000
00007f8000
00007f8000
00007f9c00
00007fffe0
001ffffff8
01ffff87fc
07fc7f83fe
1fe07f83ff
3fc0ff03ff
7fc0ff01ff
ffc0ff03ff
ffc0ff03ff
ffc0ff03fe
ffc0ff07fc
ffc0fffff0
7fffffff00
3fffff8000
07f9fe0000
0001fe0000
0001fe0000
0001fe0000
0001fe0000
0001fe0000
0001fe00f0
0003fc07e0
0003fc0fc0
0003fc1fe0
0003ffffe0
0003fffff0
0001ff1ff8
0000000ffc
00000003e0
ENDCHAR
STARTCHAR qa
ENCODING 67
SWIDTH 804 0
DWIDTH 47 0
BBX 44 38 1 -2
BITMAP
00000ff80000
000007fc0000
000003fc0000
000003fc0000
000003fc0000
000003fc0000
000003fc0000
000007fffc00
0000ffffff80
000ffff8ffc0
007fc7f83fe0
01ff07f83fe0
03fe07f83ff0
07fc07f83ff0
07fc07f83ff0
0ffc07f83ff0
0ffc07f83fe0
0ff80ff07fc0
0ffc0ff3ff00
0ffe3ffff800
07fffffe0000
01ffcff00000
00000ff00000
00000ff00000
00000fe00000
00001fe00000
00001fc00000
00007f000000
0001fe000000
007ff8000000
0fff80000000
3fc000000000
3fc000000000
3fc000000000
3f8000000000
7f8000000000
ff0000000000
7c0000000000
ENDCHAR
STARTCHAR qE
ENCODING 68
SWIDTH 735 0
DWIDTH 43 0
BBX 40 36 1 0
BITMAP
0000ff8000
00007fc000
00003fc000
00003fc000
00003fc000
00003fc000
00007f8000
00007f8000
00007f9c00
00007fffe0
001ffffff8
01ffff87fc
07fc7f83fe
1fe07f83ff
3fc0ff03ff
7fc0ff01ff
ffc0ff03ff
ffc0ff03ff
ffc0ff03fe
ffc0ff07fc
ffc0fffff0
7fffffff00
3fffff8000
07f9fe0000
0001fe0000
0001fe0000
0001ffe000
0001ffff00
0001fe3fc0
0001fe0fe0
0003fc0ff0
0003fc0ff0
0003fc0ff0
0003fc0fe0
0003ffffc0
0001ffff00
ENDCHAR
STARTCHAR q
ENCODING 69
SWIDTH 735 0
DWIDTH 43 0
BBX 40 41 1 0
BITMAP
01ff800000
00ffe00000
007fe00000
007fe00000
007fe00000
007fff8000
00ff7fc000
00e03fc000
00003fc000
00003fc000
00003fc000
00007f8000
00007f8000
00007f9c00
00007fffe0
001ffffff8
01ffff87fc
07fc7f83fe
1fe07f83ff
3fc0ff03ff
7fc0ff01ff
ffc0ff03ff
ffc0ff03ff
ffc0ff03fe
ffc0ff07fc
ffc0fffff0
7fffffff00
3fffff8000
07f9fe0000
0001fe0000
0001fe0000
0001fe0000
0001fe0000
0001fe0000
0001fe0000
0003fc0000
0003fc0000
0003fc0000
0003fc0000
0003fe0000
0001ff0000
ENDCHAR
STARTCHAR qo
ENCODING 70
SWIDTH 770 0
DWIDTH 45 0
BBX 41 35 1 0
BITMAP
00001ff00000
0000fff80000
0001f0fe0000
0003f07e0000
0007e07f0000
000fe07f0000
000fe07f0000
000fe07f0000
000fe07f0000
0007f07e0000
0003fcfc0000
0001fff80000
0000ff800000
0000ff000000
0000fffff000
000ffffffe00
01ffff03ff00
07fcff01ff00
1fe1fe01ff80
3fc1fe01ff00
7fc1fe03ff00
ffc1fe03ff00
ffc1fe03fe00
7fe1fe0ffc00
7fe1ffffe000
3ffffffc0000
1ffffe000000
0001fe000000
0003fc000000
0003fc000000
0003fc000000
0003fc000000
0003fc000000
0003fe000000
0001ff800000
ENDCHAR
STARTCHAR qWe
ENCODING 72
SWIDTH 889 0
DWIDTH 52 0
BBX 48 36 1 0
BITMAP
0000ff800000
00007fc00000
00003fc00000
00003fc00000
00003fc00000
00003fc00000
00007f800000
00007f800000
00007f9c0000
00007fffe000
001ffffff800
01ffff87fc00
07fc7f83fe00
1fe07f83ff00
3fc0ff03ff00
7fc0ff01ff00
ffc0ff03ff00
ffc0ff03ff00
ffc0ff03fe00
ffc0ff07fc00
ffc0fffff000
7fffffff0000
3fffff8001f0
07f9fe01fffc
0001fe07fffe
0001ffffe1fe
0001fe1fc0ff
0001fe1f80ff
0001fe1f80ff
0001fe1f80fe
0003fc1fc0fe
0003fc1fe1fc
0003fc0ffff8
0003fc07ffe0
0003fe01c000
0001ff000000
ENDCHAR
STARTCHAR qWi
ENCODING 74
SWIDTH 1146 0
DWIDTH 67 0
BBX 65 36 1 0
BITMAP
0000ff800000000000
00007fc00000000000
00003fc00000000000
00003fc00000000000
00003fc00000000000
00003fc00000000000
00007f800000000000
00007f800000000000
00007f9c000ff80000
00007fffe003fc0000
001ffffff803fc0000
01ffff87fc03fc0000
07fc7f83fe03fc0000
1fe07f83ff03fc0000
3fc0ff03ff07f80000
7fc0ff01fffff80000
ffc0ff03ff07f80000
ffc0ff03ff07f80000
ffc0ff03fe0ff00000
ffc0ff07fc0ffffe00
ffc0fffff00001fe00
7fffffff000001fe00
3fffff80000001fe00
07f9fe00000000ff00
0001fe00000000ff80
0001fe000000003f00
0001fe000000000000
0001fe000000000000
0001fe000000000000
0001fe000000000000
0003fc000000000000
0003fc000000000000
0003fc000000000000
0003fc000000000000
0003fe000000000000
0001ff000000000000
ENDCHAR
STARTCHAR qWa
ENCODING 75
SWIDTH 735 0
DWIDTH 43 0
BBX 40 40 1 -4
BITMAP
0000ff8000
00007fc000
00003fc000
00003fc000
00003fc000
00003fc000
00007f8000
00007fffc0
000ffffff0
00ffff8ff8
03fe7f87fc
0ff07f83fe
1fe0ff03ff
3fc0ff03ff
7fc0ff03ff
ffc0ff03ff
ffc0ff03ff
ffc0ff03fe
ff80ff03fc
ffc1fe0ff8
ffc1feffe0
7fffffff00
3fffff0000
03f9fe0000
0001fe0000
0003fc0000
0003fc0000
0003fc0000
0003fe0000
0003ff0000
01fff8ff80
07f8007f80
07f8007f80
07f8007f80
07f800ff00
0ff000ff00
0fe001fe00
078001fe00
000001fe00
000001ff00
ENDCHAR
STARTCHAR qWE
ENCODING 76
SWIDTH 735 0
DWIDTH 43 0
BBX 42 44 -1 -8
BITMAP
00003fe00000
00001ff00000
00000ff00000
00000ff00000
00000ff00000
00000ff00000
00001fe00000
00001ffff000
0003fffffc00
003fffe3fe00
00ff9fe1ff00
03fc1fe0ff80
07f81fe0ffc0
0ff03fc0ffc0
1ff03fc0ffc0
3ff03fc0ffc0
3ff03fc0ffc0
3ff03fc0ff80
3fe03fc0ff00
3ff03fc3fe00
3ff03ffff800
1fffffffc000
0fffffc00000
00fe7f800000
00007f800000
00007fffc000
00007ffff000
00007f83f800
0000ff03fc00
0000ff03fc00
0000ff03fc00
0000ff03f800
0000ff87f000
0001ffffc000
001e61fc0000
07e000000000
3fc000000000
7fc000000000
3fc000000000
3f8000000000
7f8000000000
ff0000000000
7e0000000000
380000000000
ENDCHAR
STARTCHAR qW
ENCODING 77
SWIDTH 1078 0
DWIDTH 63 0
BBX 61 36 1 0
BITMAP
0000ff8000000000
00007fc000000000
00003fc000000000
00003fc000000000
00003fc000000000
00003fc000000000
00007f800007f000
00007f800007f800
00007f9c0007f800
00007fffe007f800
001ffffff807f800
01ffff87fc07f800
07fc7f83fe07f800
1fe07f83ff07f800
3fc0ff03ff0ff000
7fc0ff01fffff000
ffc0ff03ff001ff0
ffc0ff03ff001fe0
ffc0ff03fe001fe0
ffc0ff07fc000ff0
ffc0fffff0000ff8
7fffffff000007f8
3fffff80000001e0
07f9fe0000000000
0001fe0000000000
0001fe0000000000
0001fe0000000000
0001fe0000000000
0001fe0000000000
0001fe0000000000
0003fc0000000000
0003fc0000000000
0003fc0000000000
0003fc0000000000
0003fe0000000000
0001ff0000000000
ENDCHAR
STARTCHAR Qe
ENCODING 80
SWIDTH 735 0
DWIDTH 43 0
BBX 43 42 1 0
BITMAP
000000001f00
000000007f00
0fc00000ff00
3fe00007ff00
1ff0cfffff80
0ffffff8ffc0
0fff3fc07fe0
0fe03f803f80
1fc07f800000
1f007f800000
70007f800000
00007f800000
00007f800000
00007f800000
00007f800000
00007fffe000
001ffffff800
01ffff87fc00
07fc7f83fe00
1fe07f83ff00
3fc0ff03ff00
7fc0ff01ff00
ffc0ff03ff00
ffc0ff03ff00
ffc0ff03fe00
ffc0ff07fc00
ffc0fffff000
7fffffff0000
3fffff800000
07f9fe000000
0001fe000000
0001fe000000
0001fe000000
0001fe000000
0001fe000000
0001fe000000
0003fc000000
0003fc000000
0003fc000000
0003fc000000
0003fe000000
0001ff000000
ENDCHAR
STARTCHAR Qu
ENCODING 81
SWIDTH 735 0
DWIDTH 43 0
BBX 43 42 1 0
BITMAP
000000001f00
000000007f00
0fc00000ff00
3fe00007ff00
1ff0cfffff80
0ffffff8ffc0
0fff3fc07fe0
0fe03f803f80
1fc07f800000
1f007f800000
70007f800000
00007f800000
00007f800000
00007f800000
00007f9c0000
00007fffe000
001ffffff800
01ffff87fc00
07fc7f83fe00
1fe07f83ff00
3fc0ff03ff00
7fc0ff01ff00
ffc0ff03ff00
ffc0ff03ff00
ffc0ff03fe00
ffc0ff07fc00
ffc0fffff000
7fffffff0000
3fffff800000
07f9fe000000
0001fe03f000
0001fe07e000
0001fe0fe000
0001fefff000
0001fffff000
0001ff0ff800
0003fc0ffe00
0003fc03f800
0003fc000000
0003fc000000
0003fe000000
0001ff000000
ENDCHAR
STARTCHAR Qi
ENCODING 82
SWIDTH 735 0
DWIDTH 43 0
BBX 43 44 1 -2
BITMAP
000000003e00
00000000fe00
07e00001fe00
1ff0000ffe00
0ff84fffff00
07fffff1ff80
07ffbfc0ffc0
07f03f807f00
0fe07f800000
0f807f800000
38007f800000
00007f800000
00007f800000
00007f800000
00007f9c0000
00007fffe000
001ffffff800
01ffff87fc00
07fc7f83fe00
1fe07f83ff00
3fc0ff03ff00
7fc0ff01ff00
ffc0ff03ff00
ffc0ff03ff00
ffc0ff03fe00
ffc0ff07fc00
ffc0fffff000
7fffffff0000
3fffff800000
07f9fe000000
0001fe000000
0001fe000000
0001fe000000
0001fe000000
0001fe000000
0001fe00f000
0003fc07e000
0003fc0fc000
0003fc1fe000
0003ffffe000
0003fffff000
0001ff1ff800
0000000ffc00
00000003e000
ENDCHAR
STARTCHAR Qa
ENCODING 83
SWIDTH 804 0
DWIDTH 47 0
BBX 46 45 1 -2
BITMAP
0000000007e000
000000001fc000
07e000001fc000
1ff00001ffe000
0ff867ffffe000
07fffffe3ff000
07ff87f81ffc00
07f007f807f000
0fe007f8000000
0f8007f8000000
380007f8000000
000007f8000000
000007f8000000
000007f8000000
000007fffc0000
0000ffffff8000
000ffff8ffc000
007fc7f83fe000
01ff07f83fe000
03fe07f83ff000
07fc07f83ff000
07fc07f83ff000
0ffc07f83ff000
0ffc07f83fe000
0ff80ff07fc000
0ffc0ff3ff0000
0ffe3ffff80000
07fffffe000000
01ffcff0000000
00000ff0000000
00000ff0000000
00000fe0000000
00001fe0000000
00001fc0000000
00007f00000000
0001fe00000000
007ff800000000
0fff8000000000
3fc00000000000
3fc00000000000
3fc00000000000
3f800000000000
7f800000000000
ff000000000000
7c000000000000
ENDCHAR
STARTCHAR QE
ENCODING 84
SWIDTH 735 0
DWIDTH 43 0
BBX 43 42 1 0
BITMAP
000000001f00
000000007f00
0fc00000ff00
3fe00007ff00
1ff0cfffff80
0ffffff8ffc0
0fff3fc07fe0
0fe03f803f80
1fc07f800000
1f007f800000
70007f800000
00007f800000
00007f800000
00007f800000
00007f9c0000
00007fffe000
001ffffff800
01ffff87fc00
07fc7f83fe00
1fe07f83ff00
3fc0ff03ff00
7fc0ff01ff00
ffc0ff03ff00
ffc0ff03ff00
ffc0ff03fe00
ffc0ff07fc00
ffc0fffff000
7fffffff0000
3fffff800000
07f9fe000000
0001fe000000
0001fe000000
0001ffe00000
0001ffff0000
0001fe3fc000
0001fe0fe000
0003fc0ff000
0003fc0ff000
0003fc0ff000
0003fc0fe000
0003ffffc000
0001ffff0000
ENDCHAR
STARTCHAR Q
ENCODING 85
SWIDTH 735 0
DWIDTH 43 0
BBX 44 48 1 0
BITMAP
7c0000000000
7f0000007c00
3f800001f800
3f800003f800
3fc00007f800
3fc0000ff800
3fc00ffffc00
3ffffff7fc00
0001fe07ff00
0001fe03ff00
0001fe007000
0001fe000000
0001fff80000
000003fc0000
000003fc0000
000003fc0000
000003fc0000
000003fc0000
000007f80000
000007f80000
000007f9c000
000007fffe00
0001ffffff80
001ffff87fc0
007fc7f83fe0
01fe07f83ff0
03fc0ff03ff0
07fc0ff01ff0
0ffc0ff03ff0
0ffc0ff03ff0
0ffc0ff03fe0
0ffc0ff07fc0
0ffc0fffff00
07fffffff000
03fffff80000
007f9fe00000
00001fe00000
00001fe00000
00001fe00000
00001fe00000
00001fe00000
00001fe00000
00003fc00000
00003fc00000
00003fc00000
00003fc00000
00003fe00000
00001ff00000
ENDCHAR
STARTCHAR Qo
ENCODING 86
SWIDTH 770 0
DWIDTH 45 0
BBX 41 43 1 0
BITMAP
00fc00000000
03fe0003f800
01ff0003fc00
00ff0001fc00
00ff0001fc00
00ff0003fc00
00fe0003f800
01fe0007f000
03f1fff7e000
0003fffc0000
0007f0fe0000
0007f07f0000
000fe07f0000
000fe07f0000
000fe07f0000
000fe07f0000
000fe07f0000
0007f07e0000
0003fcfc0000
0001fff80000
0000ff800000
0000ff000000
0000fffff000
000ffffffe00
01ffff03ff00
07fcff01ff00
1fe1fe01ff80
3fc1fe01ff00
7fc1fe03ff00
ffc1fe03ff00
ffc1fe03fe00
7fe1fe0ffc00
7fe1ffffe000
3ffffffc0000
1ffffe000000
0001fe000000
0003fc000000
0003fc000000
0003fc000000
0003fc000000
0003fc000000
0003fe000000
0001ff800000
ENDCHAR
STARTCHAR QWe
ENCODING 88
SWIDTH 889 0
DWIDTH 52 0
BBX 48 42 1 0
BITMAP
000000001f00
000000007f00
0fc00000ff00
3fe00007ff00
1ff0cfffff80
0ffffff8ffc0
0fff3fc07fe0
0fe03f803f80
1fc07f800000
1f007f800000
70007f800000
00007f800000
00007f800000
00007f800000
00007f9c0000
00007fffe000
001ffffff800
01ffff87fc00
07fc7f83fe00
1fe07f83ff00
3fc0ff03ff00
7fc0ff01ff00
ffc0ff03ff00
ffc0ff03ff00
ffc0ff03fe00
ffc0ff07fc00
ffc0fffff000
7fffffff0000
3fffff8001f0
07f9fe01fffc
0001fe07fffe
0001ffffe1fe
0001fe1fc0ff
0001fe1f80ff
0001fe1f80ff
0001fe1f80fe
0003fc1fc0fe
0003fc1fe1fc
0003fc0ffff8
0003fc07ffe0
0003fe01c000
0001ff000000
ENDCHAR
STARTCHAR QWi
ENCODING 90
SWIDTH 1146 0
DWIDTH 67 0
BBX 65 42 1 0
BITMAP
000000001f00000000
000000007f00000000
0fc00000ff00000000
3fe00007ff00000000
1ff0cfffff80000000
0ffffff8ffc0000000
0fff3fc07fe0000000
0fe03f803f80000000
1fc07f800000000000
1f007f800000000000
70007f800000000000
00007f800000000000
00007f800000000000
00007f800000000000
00007f9c000ff80000
00007fffe003fc0000
001ffffff803fc0000
01ffff87fc03fc0000
07fc7f83fe03fc0000
1fe07f83ff03fc0000
3fc0ff03ff07f80000
7fc0ff01fffff80000
ffc0ff03ff07f80000
ffc0ff03ff07f80000
ffc0ff03fe0ff00000
ffc0ff07fc0ffffe00
ffc0fffff00001fe00
7fffffff000001fe00
3fffff80000001fe00
07f9fe00000000ff00
0001fe00000000ff80
0001fe000000003f00
0001fe000000000000
0001fe000000000000
0001fe000000000000
0001fe000000000000
0003fc000000000000
0003fc000000000000
0003fc000000000000
0003fc000000000000
0003fe000000000000
0001ff000000000000
ENDCHAR
STARTCHAR QWa
ENCODING 91
SWIDTH 735 0
DWIDTH 43 0
BBX 40 48 1 -4
BITMAP
000000003e00
00000000fe00
07e00001fe00
1ff0000ffe00
0ff84fffff00
07fffff1ff00
07ffbfc0ff00
07f03f807f00
0fe07f800000
0f807f800000
38007f800000
00007f8000
00007f8000
00007f8000
00007f8000
00007fffc0
000ffffff0
00ffff8ff8
03fe7f87fc
0ff07f83fe
1fe0ff03ff
3fc0ff03ff
7fc0ff03ff
ffc0ff03ff
ffc0ff03ff
ffc0ff03fe
ff80ff03fc
ffc1fe0ff8
ffc1feffe0
7fffffff00
3fffff0000
03f9fe0000
0001fe0000
0003fc0000
0003fc0000
0003fc0000
0003fe0000
0003ff0000
01fff8ff80
07f8007f80
07f8007f80
07f8007f80
07f800ff00
0ff000ff00
0fe001fe00
078001fe00
000001fe00
000001ff00
ENDCHAR
STARTCHAR QWE
ENCODING 92
SWIDTH 735 0
DWIDTH 43 0
BBX 44 53 -1 -8
BITMAP
000000000f00
000000003f00
01f800007f00
07fc0003ff00
03fe13ffffc0
01fffffc7fe0
01ffeff03ff0
01fc0fe01fc0
03f81fe00000
03e01fe00000
0e001fe00000
00001fe00000
00001fe00000
00001fe00000
00001fe00000
00001fe00000
00001ffff000
0003fffffc00
003fffe3fe00
00ff9fe1ff00
03fc1fe0ff80
07f81fe0ffc0
0ff03fc0ffc0
1ff03fc0ffc0
3ff03fc0ffc0
3ff03fc0ffc0
3ff03fc0ff80
3fe03fc0ff00
3ff03fc3fe00
3ff03ffff800
1fffffffc000
0fffffc00000
00fe7f800000
00007f800000
00007fffc000
00007ffff000
00007f83f800
0000ff03fc00
0000ff03fc00
0000ff03fc00
0000ff03f800
0000ff87f000
0001ffffc000
001e61fc0000
07e000000000
3fc000000000
7fc000000000
3fc000000000
3f8000000000
7f8000000000
ff0000000000
7e0000000000
380000000000
ENDCHAR
STARTCHAR QW
ENCODING 93
SWIDTH 1078 0
DWIDTH 63 0
BBX 61 42 1 0
BITMAP
000000001f000000
000000007f000000
0fc00000ff000000
3fe00007ff000000
1ff0cfffff800000
0ffffff8ffc00000
0fff3fc07fe00000
0fe03f803f800000
1fc07f8000000000
1f007f8000000000
70007f8000000000
00007f8000000000
00007f800007f000
00007f800007f800
00007f9c0007f800
00007fffe007f800
001ffffff807f800
01ffff87fc07f800
07fc7f83fe07f800
1fe07f83ff07f800
3fc0ff03ff0ff000
7fc0ff01fffff000
ffc0ff03ff001ff0
ffc0ff03ff001fe0
ffc0ff03fe001fe0
ffc0ff07fc000ff0
ffc0fffff0000ff8
7fffffff000007f8
3fffff80000001e0
07f9fe0000000000
0001fe0000000000
0001fe0000000000
0001fe0000000000
0001fe0000000000
0001fe0000000000
0001fe0000000000
0003fc0000000000
0003fc0000000000
0003fc0000000000
0003fc0000000000
0003fe0000000000
0001ff0000000000
ENDCHAR
STARTCHAR be
ENCODING 96
SWIDTH 564 0
DWIDTH 33 0
BBX 27 35 3 0
BITMAP
003fe000
00fff800
03c1fc00
07c0fe00
0f80ff00
1f807f80
3f807f80
7f007f80
7f007f80
7f007f80
ff007f80
ff007f80
ff007f80
ff007f80
ff007f80
ff007f80
ff007f80
ff007f80
ff007f80
ff007f80
ff007f80
ff007f80
ff007f80
ff007f80
ff007f80
ff007f80
ff007f80
ff007f80
ff007f80
ff007f80
ff007f80
ff007f80
ff007f80
ff807fc0
7f803fe0
ENDCHAR
STARTCHAR bu
ENCODING 97
SWIDTH 804 0
DWIDTH 47 0
BBX 40 35 3 0
BITMAP
003fc00000
01fff00000
03c3fc0000
0781fc0000
0f80fe0000
1f80ff0000
3f00ff0000
7f00ff0000
7f00ff0000
7f00ff0000
ff00ff0000
ff00ff0000
ff00ff007c
ff00ff01f8
ff00ff03f8
ff00ff07fc
ff00fffffc
ff00fffffe
ff00ff03ff
ff00ff01fe
ff00ff0000
ff00ff0000
ff00ff0000
ff00ff0000
ff00ff0000
ff00ff0000
ff00ff0000
ff00ff0000
ff00ff0000
ff00ff0000
ff00ff0000
ff00ff0000
ff00ff0000
ff80ff8000
7f807fc000
ENDCHAR
STARTCHAR bi
ENCODING 98
SWIDTH 804 0
DWIDTH 47 0
BBX 41 38 3 -3
BITMAP
003fc0000000
01fff0000000
03c3fc000000
0781fc000000
0f80fe000000
1f80ff000000
3f00ff000000
7f00ff000000
7f00ff000000
7f00ff000000
ff00ff000000
ff00ff000000
ff00ff000000
ff00ff000000
ff00ff000000
ff00ff000000
ff00ff000000
ff00ff000000
ff00ff000000
ff00ff000000
ff00ff000000
ff00ff000000
ff00ff000000
ff00ff000000
ff00ff000000
ff00ff000000
ff00ff000000
ff00ff000000
ff00ff000000
ff00ff001f00
ff00ff00fc00
ff00ff01fc00
ff00ff03fc00
ff80fffffe00
7f807ffffe00
00000001ff00
00000001ff80
000000007e00
ENDCHAR
STARTCHAR ba
ENCODING 99
SWIDTH 564 0
DWIDTH 33 0
BBX 27 35 3 0
BITMAP
003fe000
00fff800
03c1fc00
07c0fe00
0f80ff00
1f807f80
3f807f80
7f007f80
7f007f80
7f007f80
ff007f80
ff007f80
ff007f80
ff007f80
ff007f80
ff007f80
ff007f80
ff007f80
ff007f80
ff007f80
ff007f80
ff007f80
ff007f80
ff007f80
ff007f80
ffc07f80
7c007f80
00007f80
00007f80
00007f80
00007f80
00007f80
00007f80
00007fc0
00003fe0
ENDCHAR
STARTCHAR bE
ENCODING 100
SWIDTH 753 0
DWIDTH 44 0
BBX 39 35 3 0
BITMAP
003fe00000
00fff80000
03c1fc0000
07c0fe0000
0f80ff0000
1f807f8000
3f807f8000
7f007f8000
7f007f8000
7f007f8000
ff007f8000
ff007f8000
ff007f8000
ff007f8000
ff007f8000
ff007f8000
ff007f8000
ff007f8000
ff007f8000
ff007f8000
ff007f8000
ff007f8000
ff007f8000
ff007f8000
ff007f8000
ff007ffc00
ff007fffe0
ff007f87f8
ff007f81fc
ff007f81fe
ff007f81fe
ff007f81fe
ff007f81fc
ff807ffff8
7f803fffe0
ENDCHAR
STARTCHAR b
ENCODING 101
SWIDTH 821 0
DWIDTH 46 0
BBX 42 35 3 0
BITMAP
0000003fc000
000001fff000
000003c3fc00
00000781fc00
00000f80fe00
00001f80ff00
00003f00ff00
00007f00ff00
00007f00ff00
00007f00ff00
0000ff00ff00
0000ff00ff00
0000ff00ff00
07ffff00ff00
7fc0ff00ff00
7fc0ff00ff00
3fc0ff00ff00
7f80ff00ff00
7f80ff00ff00
ff00ff00ff00
7c00ff00ff00
0000ff00ff00
0000ff00ff00
0000ff00ff00
0000ff00ff00
0000ff00ff00
0000ff00ff00
0000ff00ff00
0000ff00ff00
0000ff00ff00
0000ff00ff00
0000ff00ff00
0000ff00ff00
0000ff80ff80
00007f807fc0
ENDCHAR
STARTCHAR bo
ENCODING 102
SWIDTH 564 0
DWIDTH 33 0
BBX 27 35 3 0
BITMAP
003fe000
00fff800
03c1fc00
07c0fe00
0f80ff00
1f807f80
3f807f80
7f007f80
7f007f80
7f007f80
ff007f80
ff007f80
ff007f80
ff007f80
ff007f80
ff007f80
ff007f80
ff007f80
ff007f80
ff007f80
ff007f80
ff007f80
ff007f80
ff007f80
ff007fc0
ff003fe0
ff003e00
ff000000
ff000000
ff000000
ff000000
ff000000
ff000000
ff800000
7f800000
ENDCHAR
STARTCHAR bWa
ENCODING 103
SWIDTH 838 0
DWIDTH 49 0
BBX 39 42 3 -7
BITMAP
003fc00000
01fff00000
03c3fc0000
0781fc0000
0f80fe0000
1f80ff0000
3f00ff0000
7f00ff0000
7f00ff0000
7f00ff0000
ff00ff0000
ff00ff0000
ff00ff0000
ff00ff0000
ff00ff0000
ff00ff0000
ff00ff0000
ff00ff0000
ff00ff0000
ff00ff0000
ff00ff0000
ff00ff0000
ff00ff0000
ff00ff0000
ff00ff0000
ffc0ff0000
7c00ff0000
0000ff0000
0000ff0000
0000ff0000
0000ff0000
0000ff0000
0000ff0000
0000ff83f8
000ffffffc
1ff00003fc
1ff00003fc
0ff00003fc
1fe00001fe
1fe00000fe
3fc0000010
1f00000000
ENDCHAR
STARTCHAR ve
ENCODING 104
SWIDTH 684 0
DWIDTH 40 0
BBX 37 40 2 0
BITMAP
00000003e0
0000000fc0
0000001fc0
7f00003fc0
ff8003ffc0
7fffffffe0
7ffffc3ff0
7f80001ff8
7f000007c0
7e00000000
f800000000
0000f80000
0003ff8000
0007ffc000
001f1fe000
003e0ff000
007e07f800
00fc07f800
01fc07f800
01fc07f800
03fc07f800
03fc07f800
03fc07f800
03fc07f800
03fc07f800
03fc07f800
03fc07f800
03fc07f800
03fc07f800
03fc07f800
03fc07f800
03fc07f800
03fc07f800
03fc07f800
03fc07f800
03fc07f800
03fc07f800
03fc07f800
03ff87fc00
01ff07fc00
ENDCHAR
STARTCHAR vu
ENCODING 105
SWIDTH 872 0
DWIDTH 51 0
BBX 45 40 2 0
BITMAP
00000003e000
0000000fc000
0000001fc000
7f00003fc000
ff8007ffc000
7fffffffe000
7ffffc3ff000
7f80001ff800
7f000007c000
7e0000000000
f80000000000
0000f8000000
0003ff800000
0007ffc00000
001f1fe00000
003e0ff00000
007e07f80000
00fc07f80000
01fc07f80000
01fc07f80000
03fc07f80000
03fc07f80000
03fc07f80000
03fc07f80000
03fc07f80fe0
03fc07fffff0
03fc07f81ff0
03fc07f80ff0
03fc07f80ff0
03fc07f807f8
03fc07f803f8
03fc07f800e0
03fc07f80000
03fc07f80000
03fc07f80000
03fc07f80000
03fc07f80000
03fc07f80000
03ff87fc0000
01ff07fc0000
ENDCHAR
STARTCHAR vi
ENCODING 106
SWIDTH 907 0
DWIDTH 53 0
BBX 47 43 2 -3
BITMAP
00000003e000
0000000fc000
0000001fc000
7f00003fc000
ff8003ffc000
7fffffffe000
7ffffc3ff000
7f80001ff800
7f000007c000
7e0000000000
f80000000000
0000f8000000
0003ff800000
0007ffc00000
001f1fe00000
003e0ff00000
007e07f80000
00fc07f80000
01fc07f80000
01fc07f80000
03fc07f80000
03fc07f80000
03fc07f80000
03fc07f80000
03fc07f80000
03fc07f80000
03fc07f80000
03fc07f80000
03fc07f80000
03fc07f80000
03fc07f80000
03fc07f80000
03fc07f80000
03fc07f80000
03fc07f8007c
03fc07f803f0
03fc07f807f0
03fc07f80ff0
03ff87fffff8
01ff07fffff8
0000000007fc
0000000007fe
0000000001f8
ENDCHAR
STARTCHAR va
ENCODING 107
SWIDTH 684 0
DWIDTH 40 0
BBX 37 40 2 0
BITMAP
00000003e0
0000000fc0
0000001fc0
7f00003fc0
ff8003ffc0
7fffffffe0
7ffffc3ff0
7f80001ff8
7f000007c0
7e00000000
f800000000
0000f80000
0003ff0000
0007ffc000
001e1fe000
007e0ff000
00fc07f800
01fc07f800
01f807f800
03f807f800
03f807f800
07f807f800
07f807f800
07f807f800
07f807f800
07f807f800
07f807f800
07f807f800
07f807f800
07fc07f800
07ff07f800
03e007f800
000007f800
000007f800
000007f800
000007f800
000007f800
000007f800
000007fc00
000007fc00
ENDCHAR
STARTCHAR vE
ENCODING 108
SWIDTH 804 0
DWIDTH 47 0
BBX 42 40 2 0
BITMAP
00000003e000
0000000fc000
0000001fc000
7f00003fc000
ff8003ffc000
7fffffffe000
7ffffc3ff000
7f80001ff800
7f000007c000
7e0000000000
f80000000000
0000f8000000
0003ff800000
0007ffc00000
001f1fe00000
003e0ff00000
007e07f80000
00fc07f80000
01fc07f80000
01fc07f80000
03fc07f80000
03fc07f80000
03fc07f80000
03fc07f80000
03fc07f80000
03fc07f80000
03fc07f80000
03fc07f80000
03fc07f80000
03fc07f80000
03fc07ffc000
03fc07fffc00
03fc07f87f00
03fc07f83f80
03fc07f83fc0
03fc07f83fc0
03fc07f83fc0
03fc07f83f80
03ff87ffff00
01ff07fffc00
ENDCHAR
STARTCHAR v
ENCODING 109
SWIDTH 872 0
DWIDTH 51 0
BBX 45 40 2 0
BITMAP
0000000003e0
000000000fc0
000000001fc0
003f80003fc0
007fc007ffc0
003fffffffe0
003ffff83ff0
003fc0001ff8
003f800007c0
003f00000000
007c00000000
0000001f8000
0000007fc000
000001fff000
000003c3fc00
00000781fc00
00000f80fe00
00001f80ff00
00003f00ff00
00007f00ff00
00007f00ff00
00007f00ff00
0000ff00ff00
0000ff00ff00
0000ff00ff00
07ffff00ff00
7fc0ff00ff00
7fc0ff00ff00
3fc0ff00ff00
7f80ff00ff00
7f80ff00ff00
ff00ff00ff00
7c00ff00ff00
0000ff00ff00
0000ff00ff00
0000ff00ff00
0000ff00ff00
0000ff00ff00
0000ffe0ff80
00007fc07f80
ENDCHAR
STARTCHAR vo
ENCODING 110
SWIDTH 684 0
DWIDTH 40 0
BBX 37 40 2 0
BITMAP
00000003e0
0000000fc0
0000001fc0
7f00003fc0
ff8003ffc0
7fffffffe0
7ffffc3ff0
7f80001ff8
7f000007c0
7e00000000
f800000000
0000f80000
0003ff8000
0007ffc000
001f1fe000
003e0ff000
007e07f800
00fc07f800
01fc07f800
01fc07f800
03fc07f800
03fc07f800
03fc07f800
03fc07f800
03fc07f800
03fc07f800
03fc07f800
03fc07f800
03fc07f800
03fc07fc00
03fc07fe00
03fc03c000
03fc000000
03fc000000
03fc000000
03fc000000
03fc000000
03fc000000
03ff800000
01ff000000
ENDCHAR
STARTCHAR vWa
ENCODING 111
SWIDTH 872 0
DWIDTH 51 0
BBX 46 49 2 -6
BITMAP
f8000001f000
fe000007f000
ff00000fe000
7f80001fe000
7f80001fe000
7ffe07ffe000
fffffffff000
000000000000
000000000000
000000000000
000000000000
000000000000
000000000000
0003ff000000
0007ffc00000
001e1fe00000
007e0ff00000
00fc07f80000
01fc07f80000
01f807f80000
03f807f80000
03f807f80000
07f807f80000
07f807f80000
07f807f80000
07f807f80000
07f807f80000
07f807f80000
07f807f80000
07f807f80000
07f807f80000
07f807f80000
07fe07f80000
03f007f80000
000007f80000
000007f80000
000007f80000
000007f80000
000007f80000
000007f80000
000007fc3f80
0000ffffffc0
01ff00003fc0
01ff00003fc0
00ff00003fc0
01fe00001fe0
01fe00000fe0
03fc00000100
01f000000000
ENDCHAR
STARTCHAR te
ENCODING 112
SWIDTH 770 0
DWIDTH 45 0
BBX 41 36 1 0
BITMAP
0000ff800000
00007fc00000
00003fc00000
00003fc00000
00003fc00000
00003fc00000
00003fc00000
00007f800000
00007f800000
00007f800000
00007f800000
00007f807e00
001fffffff00
3fe07f80ff00
7fc0ff00ff00
3fc0ff00ff00
7f80ff007f80
7f80ff003f80
ff00ff000e00
7e00ff000000
0000ff000000
0000ff000000
0001fe000000
0001fe000000
0001fe000000
0001fe000000
0001fe000000
0001fe000000
0001fe000000
0001fe000000
0003fc000000
0003fc000000
0003fc000000
0003fc000000
0003fe000000
0001ff000000
ENDCHAR
STARTCHAR tu
ENCODING 113
SWIDTH 770 0
DWIDTH 45 0
BBX 41 36 1 0
BITMAP
0000ff800000
00007fc00000
00003fc00000
00003fc00000
00003fc00000
00003fc00000
00003fc00000
00007f800000
00007f800000
00007f800000
00007f800000
00007f807e00
001fffffff00
3fe07f80ff00
7fc0ff00ff00
3fc0ff00ff00
7f80ff007f80
7f80ff003f80
ff00ff000e00
7e00ff000000
0000ff000000
0000ff000000
0001fe01f000
0001fe07e000
0001fe0fe000
0001fe1ff000
0001fffff000
0001fffff800
0001fe0ffc00
0001fe07f800
0003fc000000
0003fc000000
0003fc000000
0003fc000000
0003fe000000
0001ff000000
ENDCHAR
STARTCHAR ti
ENCODING 114
SWIDTH 770 0
DWIDTH 45 0
BBX 41 38 1 -2
BITMAP
0000ff800000
00007fc00000
00003fc00000
00003fc00000
00003fc00000
00003fc00000
00003fc00000
00007f800000
00007f800000
00007f800000
00007f800000
00007f807e00
001fffffff00
3fe07f80ff00
7fc0ff00ff00
3fc0ff00ff00
7f80ff007f80
7f80ff003f80
ff00ff000e00
7e00ff000000
0000ff000000
0000ff000000
0001fe000000
0001fe000000
0001fe000000
0001fe000000
0001fe000000
0001fe000000
0001fe000000
0001fe01e000
0003fc0fc000
0003fc1fc000
0003fc3fc000
0003ffffc000
0003ffffe000
0001ff3ff000
0000001ff800
00000007c000
ENDCHAR
STARTCHAR ta
ENCODING 115
SWIDTH 855 0
DWIDTH 50 0
BBX 45 37 3 -1
BITMAP
00001ff00000
00000ff80000
000007f80000
000007f80000
000007f80000
000007f80000
000007f80000
000007f80000
000007f80000
000007f80000
00000ff00000
00000ff00fc0
0001fffffff0
03fe0ff01fe0
03fc0ff01fe0
03fc0ff00ff0
03fc0ff007f8
07f80ff003f8
0ff00ff000c0
07e00ff00000
00000ff00000
00000ff00000
00000ff00000
00000ff00000
00000fe00000
00001fe00000
00001fc00000
00003f800000
0000fe000000
001ff8000000
7fffc0000000
3ff000000000
3f8000000000
3f8000000000
7f0000000000
fe0000000000
380000000000
ENDCHAR
STARTCHAR tE
ENCODING 116
SWIDTH 770 0
DWIDTH 45 0
BBX 41 36 1 0
BITMAP
0000ff800000
00007fc00000
00003fc00000
00003fc00000
00003fc00000
00003fc00000
00003fc00000
00007f800000
00007f800000
00007f800000
00007f800000
00007f807e00
001fffffff00
3fe07f80ff00
7fc0ff00ff00
3fc0ff00ff00
7f80ff007f80
7f80ff003f80
ff00ff000e00
7e00ff000000
0000ff000000
0000ff000000
0001fe000000
0001fe000000
0001fe000000
0001fe000000
0001ffe00000
0001ffff0000
0001fe3fc000
0001fe0fe000
0003fc0ff000
0003fc0ff000
0003fc0ff000
0003fc0fe000
0003ffffc000
0001ffff0000
ENDCHAR
STARTCHAR t
ENCODING 117
SWIDTH 770 0
DWIDTH 45 0
BBX 41 41 1 0
BITMAP
00f000000000
01fc00000000
00fe00000000
00fe00000000
00ff00000000
00ff00000000
00ff00000000
0007ff800000
00007fc00000
00003fc00000
00003fc00000
00003fc00000
00003fc00000
00007f800000
00007f800000
00007f800000
00007f807e00
001fffffff00
3fe07f80ff00
7fc07f80ff00
3fc07f80ff00
7f80ff007f80
7f80ff003f80
ff00ff000e00
7e00ff000000
0000ff000000
0000ff000000
0000ff000000
0001fe000000
0001fe000000
0001fe000000
0001fe000000
0001fe000000
0001fe000000
0001fe000000
0003fc000000
0003fc000000
0003fc000000
0003fc000000
0003fe000000
0001ff000000
ENDCHAR
STARTCHAR to
ENCODING 118
SWIDTH 804 0
DWIDTH 47 0
BBX 40 35 1 0
BITMAP
00001ff000
0000fff800
0001f0fe00
0003f07e00
0007e07f00
000fe07f00
000fe07f00
000fe07f00
000fe07f00
0007f07e00
0003fcfc00
0001fff800
0000ff8000
0000ff0000
0000ff0000
0000ff0000
0000fffffe
3fffff03fe
7f80ff03fc
7f81fe01fe
7f81fe01fe
7f81fe00ff
ff01fe003e
fe01fe0000
3801fe0000
0001fe0000
0003fc0000
0003fc0000
0003fc0000
0003fc0000
0003fc0000
0003fc0000
0003fe0000
0001fe0000
0001ff8000
ENDCHAR
STARTCHAR tWa
ENCODING 119
SWIDTH 770 0
DWIDTH 45 0
BBX 41 38 1 -2
BITMAP
0000ff800000
00007fc00000
00003fc00000
00003fc00000
00003fc00000
00003fc00000
00003fc00000
00007f800000
00007f800000
00007f800000
00007f800000
00007f807e00
001fffffff00
3fe07f80ff00
7fc0ff00ff00
3fc0ff00ff00
7f80ff007f80
7f80ff003f80
ff00ff000e00
7e00ff000000
0000ff000000
0000ff000000
0001fe000000
0001fe000000
0001fe000000
0001fe000000
0001fe000000
0001fe000000
0001fe000000
0001fe000000
0003fc000000
0fffffffe000
0ff0003fe000
1ff0003fc000
1fe0001fe000
3fc0001fe000
3f80000fe000
7e000003f000
ENDCHAR
STARTCHAR ce
ENCODING 120
SWIDTH 804 0
DWIDTH 47 0
BBX 43 39 2 0
BITMAP
000000001f00
000000007f00
0fc00000ff00
3fe00007ff00
1ff0cfffff80
0ffffff8ffc0
0fff3fc07fe0
0fe03f803f80
1fc07f800000
1f007f800000
70007f800000
00007f800000
00007f800000
00007f800000
00007f81ff00
0007fffeff80
1ff87f80ff00
3fc07f80ff00
3fc07f807f80
3fc07f003fc0
7f80ff001f80
ff80ff000000
7f00ff000000
1c00ff000000
0000ff000000
0000ff000000
0000ff000000
0000ff000000
0000ff000000
0000ff000000
0000ff000000
0001fe000000
0001fe000000
0001fe000000
0001fe000000
0001fe000000
0001fe000000
0001ff000000
0000ff800000
ENDCHAR
STARTCHAR cu
ENCODING 121
SWIDTH 804 0
DWIDTH 50 0
BBX 43 39 2 0
BITMAP
000000001f00
000000007f00
0fc00000ff00
3fe00007ff00
1ff0cfffff80
0ffffff8ffc0
0fff3fc07fe0
0fe03f803f80
1fc07f800000
1f007f800000
70007f800000
00007f800000
00007f800000
00007f800000
00007f81ff00
0007fffeff80
1ff87f80ff00
3fc07f80ff00
3fc07f807f80
3fc07f003fc0
7f80ff001f80
ff80ff000000
7f00ff000000
1c00ff000000
0000ff000000
0000ff00fc00
0000ff01f800
0000ff03f800
0000ff0ff800
0000fffffc00
0000fff7fe00
0001fe03ff00
0001fe01fe00
0001fe000000
0001fe000000
0001fe000000
0001fe000000
0001ff000000
0000ff800000
ENDCHAR
STARTCHAR ci
ENCODING 122
SWIDTH 804 0
DWIDTH 47 0
BBX 42 42 2 -3
BITMAP
000000003e00
00000000fe00
07e00001fe00
1ff0000ffe00
0ff84fffff00
07fffff1ff80
07ffbfc0ffc0
07f03f807f00
0fe07f800000
0f807f800000
38007f800000
00007f800000
00007f800000
00007f800000
00007f81ff00
0007fffeff80
1ff87f80ff00
3fc07f80ff00
3fc07f807f80
3fc07f003fc0
7f80ff001f80
ff80ff000000
7f00ff000000
1c00ff000000
0000ff000000
0000ff000000
0000ff000000
0000ff000000
0000ff000000
0000ff000000
0000ff000000
0001fe000000
0001fe000000
0001fe000f00
0001fe007e00
0001fe00fe00
0001fe01fe00
0001ff7ffe00
0000ffffff00
00000001ff80
00000000ffc0
000000003e00
ENDCHAR
STARTCHAR ca
ENCODING 123
SWIDTH 872 0
DWIDTH 51 0
BBX 46 42 3 -3
BITMAP
0000000007e0
000000001fc0
07e000001fc0
1ff00001ffe0
0ff867ffffe0
07fffffe3ff0
07ff87f81ffc
07f007f807f0
0fe007f80000
0f8007f80000
380007f80000
000007f80000
000007f80000
000007f80000
000007f81ff0
00007fffeff0
01ff87f80ff0
03fe07f80ff0
03fe07f80ff0
03fc07f807f8
03fc07f803f8
07f807f80000
07f007f80000
01c00ff00000
00000ff00000
00000ff00000
00000ff00000
00000ff00000
00000fe00000
00001fc00000
00003f800000
0000ff000000
000ffc000000
00ffe0000000
3ff000000000
7fc000000000
7f8000000000
7f8000000000
7f8000000000
ff0000000000
fe0000000000
380000000000
ENDCHAR
STARTCHAR cE
ENCODING 124
SWIDTH 804 0
DWIDTH 47 0
BBX 43 39 2 0
BITMAP
000000001f00
000000007f00
0fc00000ff00
3fe00007ff00
1ff0cfffff80
0ffffff8ffc0
0fff3fc07fe0
0fe03f803f80
1fc07f800000
1f007f800000
70007f800000
00007f800000
00007f800000
00007f800000
00007f81ff00
0007fffeff80
1ff87f80ff00
3fc07f80ff00
3fc07f807f80
3fc07f003fc0
7f80ff001f80
ff80ff000000
7f00ff000000
1c00ff000000
0000ff000000
0000ff000000
0000ff000000
0000ff000000
0000ff000000
0000fff80000
0000ffffc000
0001fe0ff000
0001fe03f800
0001fe03f800
0001fe03fc00
0001fe03f800
0001fe03f800
0001fffff000
0000ffffc000
ENDCHAR
STARTCHAR c
ENCODING 125
SWIDTH 872 0
DWIDTH 51 0
BBX 45 45 3 0
BITMAP
f80000000000
fe0000007800
7f000003f000
7f000007f000
7f80000ff000
7f80001ff000
7f801ffff800
7fffffeff800
0003fc0ffe00
0003fc07fe00
0003fc00e000
0003fc000000
0003fff00000
000007f80000
000007f80000
000007f80000
00000ff00000
00000ff00000
00000ff00000
00000ff00000
00000ff00000
00000ff00380
00000ffffff0
007ffff01fe0
07f80ff01fe0
07f80ff01fe0
07f81fe00ff0
07f81fe007f8
0ff01fe003f0
0ff01fe00000
0fe01fe00000
07801fe00000
00001fe00000
00001fe00000
00001fe00000
00001fe00000
00001fe00000
00003fc00000
00003fc00000
00003fc00000
00003fc00000
00003fc00000
00003fc00000
00001fe00000
00000ff80000
ENDCHAR
STARTCHAR co
ENCODING 126
SWIDTH 804 0
DWIDTH 47 0
BBX 40 43 3 0
BITMAP
01f8000000
07fc0007f0
03fe0007f8
01fe0003f8
01fe0003f8
01fe0007f8
01fc0007f0
03fc000fe0
07e3ffefc0
0007fff800
000fe1fc00
000fe0fe00
001fc0fe00
001fc0fe00
001fc0fe00
001fc0fe00
001fc0fc00
000fe0f800
0007f9f000
0003ffe000
0001ff0000
0000ff0000
0000ff0000
0000ff0070
0000fffffe
07ffff03fc
7f80ff03fc
7f80ff01fe
7f81fe01fe
7f81fe00ff
7f01fe007e
ff01fe0000
fe01fe0000
7801fe0000
0003fc0000
0003fc0000
0003fc0000
0003fc0000
0003fc0000
0003fc0000
0001fe0000
0001ff0000
0001ff8000
ENDCHAR
STARTCHAR cWa
ENCODING 127
SWIDTH 804 0
DWIDTH 47 0
BBX 42 42 2 -3
BITMAP
000000003e00
00000000fe00
07e00001fe00
1ff0000ffe00
0ff84fffff00
07fffff1ff80
07ffbfc0ffc0
07f03f807f00
0fe07f800000
0f807f800000
38007f800000
00007f800000
00007f800000
00007f800000
00007f81ff00
0007fffeff80
1ff87f80ff00
3fc07f80ff00
3fc07f807f80
3fc07f003fc0
7f80ff001f80
ff80ff000000
7f00ff000000
1c00ff000000
0000ff000000
0000ff000000
0000ff000000
0000ff000000
0000ff000000
0000ff000000
0000ff000000
0001fe000000
0001fe000000
0001fe000000
0001fe000000
1ffffffff800
1fe0001ff800
3fe0001ff000
3fe0000ff800
7fc0000ff800
ff800007fc00
3e000001f800
ENDCHAR
STARTCHAR `he/h2e
ENCODING 128
SWIDTH 650 0
DWIDTH 38 0
BBX 36 36 3 0
BITMAP
00001fe000
00001fe000
00001fe000
00001fe000
00001fe000
00001fe000
00001fe000
00001fe000
000fffc000
7ff03fc000
7fc01fffc0
3fc01fffe0
7f80001fe0
7f80000ff0
ff00000ff0
7c00000ff0
0000001fe0
0000001fe0
0000001fe0
0000001fe0
0000003fc0
0000003fc0
0000003fc0
0000003fc0
0000007f80
0000007f80
0000007f80
0000007f80
000000ff00
000000ff00
000000ff00
000000ff00
000000ff00
000000ff00
000000ff00
0000007fc0
ENDCHAR
STARTCHAR `hu/h2u
ENCODING 129
SWIDTH 872 0
DWIDTH 51 0
BBX 48 36 3 0
BITMAP
00001fe00000
00001fe00000
00001fe00000
00001fe00000
00001fe00000
00001fe00000
00001fe00000
00001fe00000
000fffc00000
7ff03fc00000
7fc01fffc000
3fc01fffe000
7f80001fe000
7f80000ff000
ff00000ff000
7c00000ff000
0000001fe000
0000001fe000
0000001fe000
0000001fe000
0000003fc000
0000003ffffc
0000003fc3fe
0000003fc3fc
0000007f81fc
0000007f81fe
0000007f80ff
0000007f807e
000000ff0000
000000ff0000
000000ff0000
000000ff0000
000000ff0000
000000ff0000
000000ff0000
0000007fc000
ENDCHAR
STARTCHAR `hi/h2i
ENCODING 130
SWIDTH 872 0
DWIDTH 51 0
BBX 48 39 3 -3
BITMAP
00001fe00000
00001fe00000
00001fe00000
00001fe00000
00001fe00000
00001fe00000
00001fe00000
00001fe00000
000fffc00000
7ff03fc00000
7fc01fffc000
3fc01fffe000
7f80001fe000
7f80000ff000
ff00000ff000
7c00000ff000
0000001fe000
0000001fe000
0000001fe000
0000001fe000
0000003fc000
0000003fc000
0000003fc000
0000003fc000
0000007f8000
0000007f8000
0000007f8000
0000007f8000
000000ff0000
000000ff0000
000000ff003c
000000ff01f8
000000ff07f0
000000ff07f0
000000fffff8
0000007ffff8
0000000007fe
0000000003ff
0000000001f8
ENDCHAR
STARTCHAR `ha/h2a
ENCODING 131
SWIDTH 650 0
DWIDTH 38 0
BBX 34 40 2 -4
BITMAP
00000ff000
00000ff000
00000ff000
00000ff000
00000ff000
00000ff000
00000ff000
00000ff000
00007fe000
01ff9fe000
1ff00fff80
1ff00fff80
0fe0003fc0
1fe0003fc0
1fc0003fc0
3fc0003fc0
1f00003fc0
0000003fc0
0000003fc0
0000003fc0
0000003fc0
0000003fc0
0000003fc0
0000003fc0
0000003f80
0000007f80
0000007f00
000000fe00
000003fc00
00000ff000
0000ffc000
007ffc0000
03ff800000
3fc0000000
7fc0000000
3fc0000000
7f80000000
7f80000000
ff00000000
7e00000000
ENDCHAR
STARTCHAR `hE/h2E
ENCODING 132
SWIDTH 838 0
DWIDTH 49 0
BBX 46 36 3 0
BITMAP
00001fe00000
00001fe00000
00001fe00000
00001fe00000
00001fe00000
00001fe00000
00001fe00000
00001fe00000
000fffc00000
7ff03fc00000
7fc01fffc000
3fc01fffe000
7f80001fe000
7f80000ff000
ff00000ff000
7c00000ff000
0000001fe000
0000001fe000
0000001fe000
0000001fe000
0000003fc000
0000003fc000
0000003fc000
0000003fc000
0000007f8000
0000007f8000
0000007ff800
0000007fffc0
000000ff0ff0
000000ff03f8
000000ff03f8
000000ff03fc
000000ff03f8
000000ff03f8
000000fffff0
0000007fffc0
ENDCHAR
STARTCHAR `h/h2
ENCODING 133
SWIDTH 616 0
DWIDTH 36 0
BBX 34 36 3 0
BITMAP
00007f8000
00007f8000
00007f8000
00007f8000
00007f8000
003fff8000
01ffff8000
07f87f8000
0fe0ff0000
1f80ff0000
3f807fff00
7f007fff80
7f00007f80
ff00003fc0
ff00003fc0
ff00003fc0
fe00007f80
0000007f80
0000007f80
0000007f80
000000ff00
000000ff00
000000ff00
000000ff00
000001fe00
000001fe00
000001fe00
000001fe00
000003fc00
000003fc00
000003fc00
000003fc00
000003fc00
000003fc00
000003fc00
000001ff00
ENDCHAR
STARTCHAR `ho/h2o
ENCODING 134
SWIDTH 924 0
DWIDTH 54 0
BBX 48 35 4 0
BITMAP
000000003ffc
00000000fffe
000000fff87f
000003fff03f
00000fc3e03f
00001f87e03f
00003f07e07f
00007f03f0ff
00007f03fffe
0ffffe01fffc
3fc0fe000000
3fc1fe000000
3fc1fe000000
3fc1fe000000
7f81fe000000
ff01fe000000
3e01fe000000
0001fe000000
0000ff1fc000
0000ffffe000
0000001fe000
0000001fe000
0000001fe000
0000001fe000
0000001fe000
0000003fc000
0000003fc000
0000003fc000
0000003fc000
0000003fc000
0000003fc000
0000007f8000
0000007f8000
0000007f8000
0000003fe000
ENDCHAR
STARTCHAR hWe
ENCODING 136
SWIDTH 1026 0
DWIDTH 60 0
BBX 57 36 3 0
BITMAP
00007f8000000000
00007f8000000000
00007f8000000000
00007f8000000000
00007f8000000000
00007f8000000000
00007f8000000000
00007f8000000000
001fff0000000000
7fe0ff0000000000
7fc07fff00000000
7f807fff80000000
7f80007f80000000
ff00003fc0000000
fe00003fc0000000
7c00003fc1fffc00
0000007ffffffe00
0000007f87f0ff00
0000007f8fe07f80
0000007f8fe07f80
000000ff0fc03f80
000000ff0fe03f80
000000ff0fe07f80
000000ff07f0ff00
000001fe07fffe00
000001fe03fffc00
000001fe00000000
000001fe00000000
000003fc00000000
000003fc00000000
000003fc00000000
000003fc00000000
000003fc00000000
000003fc00000000
000003fc00000000
000001ff00000000
ENDCHAR
STARTCHAR hWi
ENCODING 138
SWIDTH 1061 0
DWIDTH 62 0
BBX 59 36 3 0
BITMAP
00007f8000000000
00007f8000000000
00007f8000000000
00007f8000000000
00007f8000000000
00007f8000000000
00007f8000000000
00007f8000000000
001fff0007f00000
7fe0ff0007f80000
7fc07fff03fc0000
7f807fff83fc0000
7f80007f83fc0000
ff00003fc3fc0000
fe00003fc3fc0000
7c00003ffbfc0000
0000007ffff80000
0000007f87f80000
0000007f87f80000
0000007f87f80000
000000ff07f80000
000000ff0fffff80
000000ff00007f80
000000ff00007f80
000001fe00007f80
000001fe00003fc0
000001fe00001fe0
000001fe00000fc0
000003fc00000000
000003fc00000000
000003fc00000000
000003fc00000000
000003fc00000000
000003fc00000000
000003fc00000000
000001ff00000000
ENDCHAR
STARTCHAR hWa
ENCODING 139
SWIDTH 735 0
DWIDTH 43 0
BBX 40 41 3 -5
BITMAP
00007f8000
00007f8000
00007f8000
00007f8000
00007f8000
00007f8000
00007f8000
00007f8000
001fff0000
7fe0ff0000
7fc07fff00
7f807fff80
7f80007f80
ff00003fc0
fe00003fc0
7c00007f80
0000007f80
0000007f80
000000ff00
000000ff00
000000ff00
000001fe00
000001fe00
000001fe00
000003fc00
000003fc00
000003fc00
000003fc00
000003fc00
000001fe00
00007ffffe
007fc000ff
007f0001fe
00fe0001fe
00fe0001fe
01fc0003fc
03fc0003fc
07f80007f8
03f00007f8
00000007fc
0000000000
ENDCHAR
STARTCHAR hWE
ENCODING 140
SWIDTH 804 0
DWIDTH 47 0
BBX 44 42 3 -6
BITMAP
00007f800000
00007f800000
00007f800000
00007f800000
00007f800000
00007f800000
00007f800000
00007f800000
001fff000000
7fe0ff000000
7fc07fff0000
7f807fff8000
7f80007f8000
ff00003fc000
fe00003fc000
7c00007f8000
0000007f8000
0000007f8000
0000007f8000
000000ff0000
000000ff0000
000000ff0000
000001fe0000
000001fffe00
000001ffff80
000001fe1fc0
000003fc0fe0
000003fc0ff0
000003fc0ff0
000003fc0fe0
000003fc1fc0
000003ffff80
0000fc0ff800
000780000000
003f00000000
00ff00000000
00ff00000000
00ff00000000
01fe00000000
01fe00000000
03fc00000000
01f800000000
ENDCHAR
STARTCHAR hW
ENCODING 141
SWIDTH 958 0
DWIDTH 56 0
BBX 53 36 3 0
BITMAP
00007f80000000
00007f80000000
00007f80000000
00007f80000000
00007f80000000
00007f80000000
00007f80000000
00007f8007f800
001fff0007f800
7fe0ff0007f800
7fc07fff07f800
7f807fff87f800
7f80007f87f800
ff00003fc7f800
fe00003fc7f800
7c00003ffff000
0000007ffffff0
0000007f801ff0
0000007f801fe0
0000007f800ff0
000000ff000ff0
000000ff0007f8
000000ff0001f0
000000ff000000
000001fe000000
000001fe000000
000001fe000000
000001fe000000
000003fc000000
000003fc000000
000003fc000000
000003fc000000
000003fc000000
000003fc000000
000003fc000000
000001ff000000
ENDCHAR
STARTCHAR ne
ENCODING 144
SWIDTH 427 0
DWIDTH 25 0
BBX 17 36 3 0
BITMAP
1f8000
ffc000
3fc000
3fc000
3fc000
7f8000
7f8000
7f8000
7f8000
7f8000
ff0000
ff0000
7ffe00
007f80
007f80
007f80
00ff00
00ff00
00ff00
01fe00
01fe00
01fe00
03fc00
03fc00
03fc00
07f800
07f800
0ff000
0ff000
0ff000
1fe000
1fe000
1fe000
3fc000
1fe000
1ff000
ENDCHAR
STARTCHAR nu
ENCODING 145
SWIDTH 616 0
DWIDTH 36 0
BBX 31 36 2 0
BITMAP
1f800000
7fc00000
3fc00000
3fc00000
3fc00000
3fc00000
3fc00000
7f800000
7f800000
7f800000
7f800000
ff800000
7fff8000
007fc000
003fc000
003fc000
007f8000
007f8000
007f8000
00fffff8
00ff07f8
00ff07f8
01fe07f8
01fe07f8
01fe03fe
03fc01fc
03fc0000
07f80000
07f80000
07f80000
0ff00000
0ff00000
0ff00000
1fe00000
0ff00000
0ff80000
ENDCHAR
STARTCHAR ni
ENCODING 146
SWIDTH 564 0
DWIDTH 33 0
BBX 28 39 3 -3
BITMAP
1f800000
7fc00000
3fc00000
3fc00000
3fc00000
3fc00000
3fc00000
7f800000
7f800000
7f800000
7f800000
ff800000
7fff8000
007fc000
003fc000
003fc000
007f8000
007f8000
007f8000
00ff0000
00ff0000
00ff0000
01fe0000
01fe0000
01fe0000
03fc0000
03fc0000
07f80000
07f80000
07f80000
0ff003c0
0ff01f80
0ff07f00
1fe07f80
0fffff80
0fffffc0
00007fe0
00003ff0
00000f80
ENDCHAR
STARTCHAR na
ENCODING 147
SWIDTH 599 0
DWIDTH 35 0
BBX 28 33 4 0
BITMAP
007fffe0
01ffffe0
07e03fc0
0fc01fe0
1f801fe0
3f800ff0
3f8003e0
7f000000
7f000000
ff000000
ff000000
ff000000
ff000000
ff000000
ff000000
ff000000
7f83f000
7ffff800
0007f800
0007f800
0007f800
0007f800
0007f800
000ff000
000ff000
000ff000
000ff000
000ff000
000ff000
001fe000
001fe000
001fe000
000ff800
ENDCHAR
STARTCHAR nE
ENCODING 148
SWIDTH 513 0
DWIDTH 30 0
BBX 25 36 2 0
BITMAP
1f800000
7fc00000
3fc00000
3fc00000
3fc00000
3fc00000
3fc00000
7f800000
7f800000
7f800000
7f800000
ff800000
7fff8000
007fc000
003fc000
003fc000
007f8000
007f8000
007f8000
00ff0000
00ff0000
00ff0000
01fe0000
01fe0000
01fe0000
03fc0000
03ff8000
07fff800
07f9fe00
07f87f00
0ff07f80
0ff07f80
0ff07f80
1fe07f00
0ffffe00
0ffff800
ENDCHAR
STARTCHAR n
ENCODING 149
SWIDTH 599 0
DWIDTH 35 0
BBX 29 35 3 0
BITMAP
0001c000
7ffffc00
3fc0fe00
3fc0ff00
3fc0ff00
7f80ff00
ff01fe00
3c01fe00
0001fe00
0003fc00
0003fc00
0003fc00
0007f800
0003fff0
000007f8
000007f8
00000ff0
00000ff0
00001fe0
00003fc0
00003fc0
00007f80
00007f80
0000ff00
0000ff00
0001fe00
0003fc00
0003fc00
0007f800
0007f800
000ff000
001fe000
001fe000
001fe000
001ff000
ENDCHAR
STARTCHAR no
ENCODING 150
SWIDTH 684 0
DWIDTH 40 0
BBX 34 35 4 0
BITMAP
00001fff00
00007fff80
007ffc1fc0
01fff81fc0
07e1f81fc0
0fc1f81fc0
1fc1f81fc0
3f81f83f80
3f81ffff00
7f00fffe00
7f00000000
ff00000000
ff00000000
ff00000000
ff00000000
ff00000000
ff00000000
ff00000000
7f87f00000
7ffff80000
0007f80000
0007f80000
0007f80000
0007f80000
0007f80000
000ff00000
000ff00000
000ff00000
000ff00000
000ff00000
000ff00000
001fe00000
001fe00000
001fe00000
000ff80000
ENDCHAR
STARTCHAR nWa
ENCODING 151
SWIDTH 718 0
DWIDTH 42 0
BBX 37 40 1 -7
BITMAP
000ffffc00
003ffffc00
00fc07f800
01f803fc00
03f003fc00
07f001fe00
07f0007c00
0fe0000000
0fe0000000
1fe0000000
1fe0000000
1fe0000000
1fe0000000
1fe0000000
1fe0000000
1fe0000000
0ff07e0000
0fffff0000
0000ff0000
0000ff0000
0000ff0000
0000ff0000
0000ff0000
0001fe0000
0001fe0000
0001fe0000
0001fe0000
0001fe0000
0001fe0000
0003fc0000
0003fc0000
0003fc0fe0
003ffffff0
7fc0000ff0
7fc0000ff0
3fc0000ff0
7f800007f8
7f800003f8
ff00000040
7e00000000
ENDCHAR
STARTCHAR Ne
ENCODING 152
SWIDTH 753 0
DWIDTH 44 0
BBX 40 39 2 0
BITMAP
00000001f8
00000003f0
1f000007f0
7fc0007ff8
3fc27ffff8
3fffff87fc
3ffcff07ff
3fc0ff01fc
3f80ff0000
7e00ff0000
c000ff0000
0001fe0000
0001fe0000
0001fe0000
0003fc0000
0003fe0000
0001fffe00
000000ff00
000000ff00
000000ff00
000001fe00
000001fe00
000001fe00
000003fc00
000003fc00
000007f800
000007f800
000007f800
00000ff000
00000ff000
00000ff000
00001fe000
00001fe000
00003fc000
00003fc000
00003fc000
00007f8000
00003fc000
00003fe000
ENDCHAR
STARTCHAR Nu
ENCODING 153
SWIDTH 804 0
DWIDTH 47 0
BBX 45 39 1 0
BITMAP
00000001f800
00000003f000
1f000007f000
7fc0007ff800
3fc27ffff800
3fffff87fc00
3ffcff07ff00
3fc0ff01fc00
3f80ff000000
7e00ff000000
c000ff000000
0001fe000000
0001fe000000
0001fe000000
0003fc000000
0003fe000000
0001fffe0000
000000ff0000
000000ff0000
000000ff0000
000001fe0000
000001fe0000
000001ffffe0
000003fc1fe0
000003fc1fe0
000007f81fe0
000007f81fe0
000007f80ff8
00000ff007f0
00000ff00000
00000ff00000
00001fe00000
00001fe00000
00003fc00000
00003fc00000
00003fc00000
00007f800000
00003fc00000
00003fe00000
ENDCHAR
STARTCHAR Ni
ENCODING 154
SWIDTH 770 0
DWIDTH 45 0
BBX 42 42 1 -3
BITMAP
00000001f800
00000003f000
1f000007f000
7fc0007ff800
3fc27ffff800
3fffff87fc00
3ffcff07ff00
3fc0ff01fc00
3f80ff000000
7e00ff000000
c000ff000000
0001fe000000
0001fe000000
0001fe000000
0003fc000000
0003fe000000
0001fffe0000
000000ff0000
000000ff0000
000000ff0000
000001fe0000
000001fe0000
000001fe0000
000003fc0000
000003fc0000
000007f80000
000007f80000
000007f80000
00000ff00000
00000ff00000
00000ff00000
00001fe00000
00001fe00000
00003fc00f00
00003fc07e00
00003fc1fc00
00007f81fe00
00003ffffe00
00003fffff00
00000001ff80
00000000ffc0
000000003e00
ENDCHAR
STARTCHAR Na
ENCODING 155
SWIDTH 753 0
DWIDTH 44 0
BBX 40 41 2 0
BITMAP
00000000f8
00000003f8
0f800007f0
3fc00007f8
3fe00ffff8
1ffffff7fc
1fffff07ff
1fe0ff03fe
1fc0ff0000
3f00ff0000
f800ff0000
0007ffe600
001fffffe0
003f003fc0
007f003fc0
00fe001fe0
01fe001ff0
01fc000ff0
03fc0003c0
03fc000000
03fc000000
03fc000000
03fc000000
03fc000000
01fe0fc000
01ffffe000
00001fe000
00001fe000
00001fe000
00001fe000
00001fe000
00003fc000
00003fc000
00003fc000
00003fc000
00003fc000
00003fc000
00007f8000
00007f8000
00007f8000
00003fe000
ENDCHAR
STARTCHAR NE
ENCODING 156
SWIDTH 718 0
DWIDTH 42 0
BBX 41 40 -1 0
BITMAP
000000007c00
00000001f800
0f800003f800
3fe0000bfc00
1fe11ffffc00
1ffffff3fe00
1ffe7f83ff80
1fe07f80fe00
1fc07f800000
3f007f800000
f0007f800000
0000ff000000
0000ff000000
0000ff000000
0000ff000000
0001fe000000
0000ff000000
0000ffff0000
0000007f8000
0000007f8000
0000007f8000
000000ff0000
000000ff0000
000000ff0000
000001fe0000
000001fe0000
000003fc0000
000003fc0000
000003fc0000
000007f80000
000007ff0000
000007fff000
00000ff3fc00
00000ff0fe00
00001fe0ff00
00001fe0ff00
00001fe0ff00
00003fc0fe00
00001ffffc00
00001ffff000
ENDCHAR
STARTCHAR N
ENCODING 157
SWIDTH 753 0
DWIDTH 44 0
BBX 36 41 3 0
BITMAP
f8000001f0
fe000007f0
7f00000ff0
7f80001fe0
7f80001fe0
7ffe07ffe0
fffffffff0
0003fc0000
0003fc0000
0003fc0000
03ffff0000
07fc3fc000
07fc1fe000
07f81fe000
07f81fe000
0ff01fe000
0fe03fc000
00003fc000
00007f8000
00007f8000
0000ff0000
00007ffe00
000000ff00
000000ff00
000001fe00
000003fc00
000003fc00
000007f800
000007f800
00000ff000
00001fe000
00001fe000
00003fc000
00007f8000
00007f8000
0000ff0000
0000ff0000
0001fe0000
0001fe0000
0001fe0000
0001fe0000
ENDCHAR
STARTCHAR No
ENCODING 158
SWIDTH 804 0
DWIDTH 47 0
BBX 42 41 1 0
BITMAP
00000000f800
00000003f000
0f800007f000
3fc00007f800
3fe00ffff800
1ffffff7fc00
1fffff07fe00
1fe0ff03fe00
1fc0ff000000
3f00ff000000
f800ff000000
0003ffffff00
000fffffffc0
001f80fe3fc0
003f00fc1fc0
007f01f81fc0
00fe01f81fc0
00fe01f81fc0
01fe01fc3f80
01fe00ffff00
01fe00383c00
01fe00000000
01fe00000000
01fe00000000
00ff1fc00000
00ffffe00000
00001fe00000
00001fe00000
00001fe00000
00001fe00000
00001fe00000
00003fc00000
00003fc00000
00003fc00000
00003fc00000
00003fc00000
00003fc00000
00007f800000
00007f800000
00007f800000
00003fe00000
ENDCHAR
STARTCHAR NWa
ENCODING 159
SWIDTH 753 0
DWIDTH 44 0
BBX 38 49 2 -7
BITMAP
3000000020
fe000001fc
7f000007f8
3f80000ff0
3fc0000ff0
3fc0001ff0
7ffffffff0
003ffff000
0001fe0000
0001fe0000
0001fe0000
0001fe0000
001fff9800
007fffff80
00fc00ff00
01fc00ff00
03f8007f80
07f8007fc0
07f0003fc0
0ff0000f00
0ff0000000
0ff0000000
0ff0000000
0ff0000000
0ff0000000
07f83f0000
07ffff8000
00007f8000
00007f8000
00007f8000
00007f8000
00007f8000
0000ff0000
0000ff0000
0000ff0000
0000ff0000
0000ff0000
0000ff0000
0001fe0000
0001fe0000
0001fe07f0
001ffffff8
3fe00007f8
3fe00007f8
1fe00007f8
3fc00003fc
3fc00001fc
7f80000020
3f00000000
ENDCHAR
STARTCHAR e/a
ENCODING 160
SWIDTH 616 0
DWIDTH 36 0
BBX 31 36 2 0
BITMAP
0ff80000
0ff80000
0ff80000
0ff80000
0ffc0000
0ffc0000
0ffc0000
0ffc0000
07fc0000
0007f000
000fe000
001fc000
003f8000
007f8000
007f0000
00fe0000
01fc0000
03ffff00
03f83fc0
07f81fe0
0ff01fe0
0fe01fe0
1fe00ff0
1fe00ff0
3fc00ff0
3fc00ff0
7f8007f8
7f8007f8
7f8007f8
ff8007f8
ff8007fc
ff8007fc
ff8003fc
ff8003fe
ff8003fe
ff8003fe
ENDCHAR
STARTCHAR u/U
ENCODING 161
SWIDTH 787 0
DWIDTH 46 0
BBX 42 36 2 0
BITMAP
0ffc00000000
0ffc00000000
0ffc00000000
0ffc00000000
07fc00000000
07fc00000000
07fc00000000
07fc00000000
07fc00000000
0003f8000000
0007f0000000
000fe0000000
001fc0000000
003f80000000
007f00000000
00fe00000000
01fff8000000
01fc7fc00000
03f81fe00000
07f80ff00000
0ff00ff00000
0ff00ff00000
1fe007f87f00
1fe007ffff80
3fc007f8ff80
3fc007f87f80
7fc003fc7f80
7f8003fc3fc0
7f8003fc1fc0
ff8003fc0700
ff8003fe0000
ff8003fe0000
ff8001fe0000
ff8001ff0000
ff8001ff0000
ff8001ff0000
ENDCHAR
STARTCHAR i
ENCODING 162
SWIDTH 872 0
DWIDTH 51 0
BBX 48 39 2 -3
BITMAP
0ff800000000
0ff800000000
0ff800000000
0ff800000000
0ffc00000000
0ffc00000000
0ffc00000000
0ffc00000000
07fc00000000
0007f0000000
000fe0000000
001fc0000000
003f80000000
007f80000000
007f00000000
00fe00000000
01fff0000000
03fcff800000
03f83fc00000
07f81fe00000
0ff01fe00000
0fe01fe00000
1fe00ff00000
1fe00ff00000
3fc00ff00000
3fc00ff00000
7f8007f80000
7f8007f80000
7f8007f80000
ff8007f80000
ff8007fc003c
ff8007fc01f8
ff8003fc07f0
ff8003fe07f8
ff8003fffff8
ff8003fffffc
0000000007fe
0000000003ff
0000000000f8
ENDCHAR
STARTCHAR a/A
ENCODING 163
SWIDTH 616 0
DWIDTH 36 0
BBX 31 36 2 0
BITMAP
0ff80000
0ff80000
0ff80000
0ff80000
0ffc0000
0ffc0000
0ffc0000
0ffc0000
07fc0000
0007f000
000fe000
003f8000
007f0000
00fe0000
03fc0000
07f80000
0ffff800
0fe0ff80
1fe03fc0
3fc01fe0
3fc01fe0
7f801fe0
7f800ff0
ff800ff0
ff800ff0
ff800ff0
ff8007f8
ff8007f8
ff8007f8
000007f8
000007fc
000007fc
000003fc
000003fe
000003fe
000003fe
ENDCHAR
STARTCHAR E
ENCODING 164
SWIDTH 838 0
DWIDTH 49 0
BBX 43 36 2 0
BITMAP
0ff800000000
0ff800000000
0ff800000000
0ff800000000
0ffc00000000
0ffc00000000
0ffc00000000
0ffc00000000
07fc00000000
0007f0000000
000fe0000000
001fc0000000
003f80000000
007f80000000
007f00000000
00fe00000000
01fff0000000
03fcff800000
03f83fc00000
07f81fe00000
0ff01fe00000
0fe01fe00000
1fe00ff00000
1fe00ff00000
3fc00ff00000
3fc00ff00000
7f8007ffc000
7f8007fffe00
7f8007f87f80
ff8007f83fc0
ff8007fc1fc0
ff8007fc1fe0
ff8003fc1fc0
ff8003fe3fc0
ff8003ffff00
ff8003fffc00
ENDCHAR
STARTCHAR I
ENCODING 165
SWIDTH 616 0
DWIDTH 36 0
BBX 32 37 2 0
BITMAP
03ff8000
01ff8000
00ffc000
00ffc000
01ff8000
01ff0000
03fff800
000ff800
001fe000
003fc000
00ff8000
01fe0000
0003f800
0007f000
000fe000
001fc000
003f8000
007f0000
00ffff80
01fc1fe0
03fc0ff0
07f80ff0
07f00ff0
0ff007f8
1fe007f8
1fc007f8
3fc007f8
7fc003fc
7f8003fc
7f8003fc
ff8003fc
ff8003fe
ff8003fe
ff8001fe
ff8001ff
ff8001ff
7fc001ff
ENDCHAR
STARTCHAR o/O
ENCODING 166
SWIDTH 616 0
DWIDTH 36 0
BBX 31 36 2 0
BITMAP
0ff80000
0ff80000
0ff80000
0ff80000
0ffc0000
0ffc0000
0ffc0000
0ffc0000
07fc0000
0007f000
000fe000
001fc000
003f8000
007f8000
007f0000
00fe0000
01fc0000
03ffff00
03f83fc0
07f81fe0
0ff01fe0
0fe00ff0
1fe00ff0
1fe007f8
3fc007f8
3fc007fc
7f8007fc
7f8003fe
7f8003fe
ff800000
ff800000
ff800000
ff800000
ff800000
ff800000
ff800000
ENDCHAR
STARTCHAR e3
ENCODING 167
SWIDTH 636 0
DWIDTH 37 0
BBX 37 40 2 0
BITMAP
f80003c000
7e0007e000
3e0007c000
3f000fc000
3f000fc000
3f801fc000
7fffff8000
003fc00000
003fc00000
003fc00000
003fc00000
003fc00000
001fc00000
00007f0000
0000fe0000
0001fc0000
0003f80000
0007f80000
0007f00000
000fe00000
001fc00000
003ffff000
003f83fc00
007f81fe00
00ff01fe00
00fe01fe00
01fe00ff00
01fe00ff00
03fc00ff00
03fc00ff00
07f8007f80
07f8007f80
07f8007f80
0ff8007f80
0ff8007fc0
0ff8007fc0
0ff8003fc0
0ff8003fe0
0ff8003fe0
0ff8003fe0
ENDCHAR
STARTCHAR ke
ENCODING 168
SWIDTH 599 0
DWIDTH 35 0
BBX 29 39 3 0
BITMAP
01000000
ffc00000
3fc00000
3fc00000
3fc00000
3fc00000
3fc00000
7f800000
7f800000
7f83fc00
7f9fff00
7ffc7fc0
7ff01fe0
73f01fe0
07e00ff0
0fe00ff0
0fc00ff0
1fc00ff0
1fc00ff0
3fc00ff0
3fc00ff0
3fc00ff0
7fc00ff0
7fc00ff0
7fc00ff0
7fc00ff0
7fc00ff0
7fc01fe0
7fc01fe0
3fc01fe0
3fc01fe0
3fc01fe0
3fc01fe0
3fc01fe0
3fc01fe0
3fc01fe0
3fc01fe0
3fe01ff0
1fe00ff8
ENDCHAR
STARTCHAR ku
ENCODING 169
SWIDTH 770 0
DWIDTH 44 0
BBX 40 39 -1 0
BITMAP
0100000000
ffc0000000
3fc0000000
3fc0000000
3fc0000000
3fc0000000
3fc0000000
7f80000000
7f80000000
7f87f80000
7f9ffe0000
7ff8ff8000
7ff03fc000
73e03fc000
07e01fe000
0fc01fe000
0fc01fe000
1fc01fe000
1fc01fe000
3fc01fe000
3fc01fe000
3fc01fe3fe
7fc01ffdfe
7fc01fe1fe
7fc01fe1fe
7fc01fe1fe
7fc01fe0ff
7fc03fc07f
3fc03fc000
3fc03fc000
3fc03fc000
3fc03fc000
3fc03fc000
3fc03fc000
3fc03fc000
3fc03fc000
3fc03fc000
3fe03fe000
1fe01ff000
ENDCHAR
STARTCHAR ki
ENCODING 170
SWIDTH 821 0
DWIDTH 48 0
BBX 43 42 3 -3
BITMAP
010000000000
ffc000000000
3fc000000000
3fc000000000
3fc000000000
3fc000000000
3fc000000000
7f8000000000
7f8000000000
7f87f8000000
7f9ffe000000
7ff8ff800000
7ff03fc00000
73e03fc00000
07e01fe00000
0fc01fe00000
0fc01fe00000
1fc01fe00000
1fc01fe00000
3fc01fe00000
3fc01fe00000
3fc01fe00000
7fc01fe00000
7fc01fe00000
7fc01fe00000
7fc01fe00000
7fc01fe00000
7fc03fc00000
3fc03fc00000
3fc03fc00000
3fc03fc00000
3fc03fc00000
3fc03fc00000
3fc03fc00780
3fc03fc03e00
3fc03fc0fe00
3fc03fc0fe00
3fe03fffff00
1fe01fffff00
00000000ffc0
000000007fe0
000000003f00
ENDCHAR
STARTCHAR ka
ENCODING 171
SWIDTH 599 0
DWIDTH 35 0
BBX 29 39 3 0
BITMAP
01000000
ffc00000
3fc00000
3fc00000
3fc00000
3fc00000
3fc00000
7f800000
7f800000
7f83fc00
7f9fff00
7ffc7fc0
7ff01fe0
73f01fe0
07e00ff0
0fe00ff0
1fc00ff0
1fc00ff0
3fc00ff0
3fc00ff0
3fc00ff0
3fc00ff0
3fc00ff0
3fc00ff0
3fc00ff0
3fc00ff0
3fc00ff0
3fc01fe0
3fe01fe0
1fe01fe0
00001fe0
00001fe0
00001fe0
00001fe0
00001fe0
00001fe0
00001fe0
00001ff0
00000ff8
ENDCHAR
STARTCHAR kE
ENCODING 172
SWIDTH 753 0
DWIDTH 44 0
BBX 39 39 3 0
BITMAP
0100000000
ffc0000000
3fc0000000
3fc0000000
3fc0000000
3fc0000000
3fc0000000
7f80000000
7f80000000
7f83fc0000
7f9fff0000
7ffc7fc000
7ff01fe000
73f01fe000
07e00ff000
0fe00ff000
0fc00ff000
1fc00ff000
1fc00ff000
3fc00ff000
3fc00ff000
3fc00ff000
7fc00ff000
7fc00ff000
7fc00ff000
7fc00ff000
7fc00ff000
7fc01fe000
7fc01fe000
3fc01ffe00
3fc01fffe0
3fc01fe7f8
3fc01fe1fc
3fc01fe1fe
3fc01fe1fe
3fc01fe1fe
3fc01fe1fc
3fe01ffff8
1fe00fffe0
ENDCHAR
STARTCHAR k
ENCODING 173
SWIDTH 599 0
DWIDTH 35 0
BBX 29 39 3 0
BITMAP
01000000
ffc00000
3fc00000
3fc00000
3fc00000
3fc00000
3fc00000
7f800000
7f800000
7f83fc00
7f9fff00
7ffc7fc0
7ff01fe0
73e01fe0
07e00ff0
0fe00ff0
1fc00ff0
1fc00ff0
3fc00ff0
3fc00ff0
3fde0ff0
3dfc0ff0
01f80ff0
03f80ff0
07f00ff0
07f00ff0
0fe00ff0
0fe01fe0
0fe01fe0
1fc01fe0
1fc01fe0
1fc01fe0
3fc01fe0
3fc01fe0
3fc01fe0
3fc01fe0
3fc01fe0
3fe01ff0
1fe00ff8
ENDCHAR
STARTCHAR ko
ENCODING 174
SWIDTH 599 0
DWIDTH 35 0
BBX 29 39 3 0
BITMAP
01000000
ffc00000
3fc00000
3fc00000
3fc00000
3fc00000
3fc00000
7f800000
7f800000
7f83fc00
7f9fff00
7ffc7fc0
7ff01fe0
73f01fe0
07e00ff0
0fe00ff0
0fc00ff0
1fc00ff0
1fc00ff0
3fc00ff0
3fc00ff0
3fc00ff0
7fc01fe0
7fc01fe0
7fc01fe0
7fc01fe0
7fc01fe0
7fc01fe0
7fc01ff0
3fc00ff8
3fc00f80
3fc00000
3fc00000
3fc00000
3fc00000
3fc00000
3fc00000
3fe00000
1fe00000
ENDCHAR
STARTCHAR kWe
ENCODING 176
SWIDTH 1061 0
DWIDTH 62 0
BBX 55 36 2 0
BITMAP
ff000000000000
ff000000000000
7f800000000000
7f800000000000
7f800000000000
7f800000000000
ff000000000000
ff07fe00000000
ff1fff80000000
ff7e0fe0000000
fffc07f0000000
01fc07f0000000
03f803f8000000
07f803f8000000
07f003fc000000
07f003fc000000
0ff003fc000000
0ff003fc0381c0
0ff003fffffff0
0ff003fffffff8
1fe003fc3f83fc
1fe003fc3f81fc
0ff003fc3f01fe
0ff003fc3f01fe
0ff003fc3f01fe
0ff003fc3f81fc
0ff003fc1fc7fc
0ff003fc0ffff8
0ff003fc07ffe0
0ff003fc000000
0ff003fc000000
0ff003fc000000
0ff003fc000000
0ff001fe000000
0ff001fe000000
0ff001fe000000
ENDCHAR
STARTCHAR kWi
ENCODING 178
SWIDTH 1095 0
DWIDTH 64 0
BBX 59 36 2 0
BITMAP
ff00000000000000
ff00000000000000
7f80000000000000
7f80000000000000
7f80000000000000
7f80000000000000
ff00000000000000
ff07ff0000000000
ff1fffc000000000
ff7f07f000000000
fffe03f800000000
01fc03f800000000
03f801fc00000000
03f801fc00ff8000
07f001fe01ff8000
07f001fe01ff0000
0ff001fe03ff0000
0ff001fe03fe0000
0ff001fffffe0000
0ff001fe07fc0000
1fe001fe0ffc0000
1fe001fe0ffc0000
0ff001fe07ffffc0
0ff001fe00007fc0
0ff001fe00003f80
0ff001fe00003fc0
0ff001fe00001fe0
0ff001fe00000fe0
0ff001fe000007c0
0ff001fe00000000
0ff001fe00000000
0ff001fe00000000
0ff001fe00000000
0ff000ff00000000
0ff000ff00000000
0ff000ff00000000
ENDCHAR
STARTCHAR kWa
ENCODING 179
SWIDTH 718 0
DWIDTH 42 0
BBX 36 37 3 -1
BITMAP
ff00000000
ff00000000
7f80000000
7f80000000
7f80000000
7f80000000
ff00000000
ff0ffc0000
ff3fff0000
fffc3f8000
fff81fc000
03f80fe000
03f80ff000
07f007f000
07f007f800
0ff007f800
0ff007f800
0ff007f800
0ff007f800
0fe007f800
1fe007f800
1fe007f800
000007f800
000007f800
000007f800
000007f800
00001ffff0
0003e00ff0
01fe000ff0
01fe000ff0
03fe000ff0
03fc000ff0
07fc000ff0
07f8000ff0
0ff0000ff0
03e0000ff0
0000000000
ENDCHAR
STARTCHAR kWE
ENCODING 180
SWIDTH 838 0
DWIDTH 49 0
BBX 41 40 3 -4
BITMAP
ff0000000000
ff0000000000
7f8000000000
7f8000000000
7f8000000000
7f8000000000
ff0000000000
ff0ffc000000
ff3fff000000
ff7c3f800000
fffc1fc00000
01f80fe00000
03f80ff00000
03f807f00000
07f007f80000
07f007f80000
07f007f80000
0ff007f80000
0ff007f80000
0ff007f80000
0ff007f80000
0ff007ffe000
0fe007fffc00
1fe007f87f00
1fe007f87f00
0fe007f87f80
000007f87f80
000007f87f80
000007f87f00
000007fffc00
00003ffff000
0003c0000000
001c00000000
01fe00000000
03fe00000000
01fe00000000
03fc00000000
03fc00000000
07f800000000
03f000000000
ENDCHAR
STARTCHAR kW
ENCODING 181
SWIDTH 958 0
DWIDTH 56 0
BBX 51 36 2 0
BITMAP
ff000000000000
ff000000000000
7f800000000000
7f800000000000
7f800000ff8000
7f800000ff8000
ff000000ffc000
ff07fe00ffc000
ff1fff80ffc000
ff7e0fe0ff8000
fffc07f0ff8000
01fc07f0ff8000
03f803f8ff8000
07f803ffffffc0
07f003fc007f80
07f003fc007f80
0ff003fc003fc0
0ff003fc003fe0
0ff003fc001fe0
0ff003fc000780
1fe003fc000000
1fe003fc000000
0ff003fc000000
0ff003fc000000
0ff003fc000000
0ff003fc000000
0ff003fc000000
0ff003fc000000
0ff003fc000000
0ff003fc000000
0ff003fc000000
0ff003fc000000
0ff003fc000000
0ff001fe000000
0ff001fe000000
0ff001fe000000
ENDCHAR
STARTCHAR Ke
ENCODING 184
SWIDTH 770 0
DWIDTH 49 0
BBX 43 41 -1 0
BITMAP
000000003e00
00000000fc00
0f800001fc00
3fc00003fe00
3fe01ffffe00
1ffffffdff00
1fff7f81ff80
1fe07f80ff00
1fc07f800000
3f007f800000
f800ff000000
0000ff0ff000
0000ff3ffc00
0000fff1ff00
0000ffe07f80
0000e7c07f80
00000fc03fc0
00001f803fc0
00001f803fc0
00003f803fc0
00003f803fc0
00007f803fc0
00007f803fc0
00007f803fc0
0000ff803fc0
0000ff803fc0
0000ff803fc0
0000ff803fc0
0000ff803fc0
0000ff807f80
00007f807f80
00007f807f80
00007f807f80
00007f807f80
00007f807f80
00007f807f80
00007f807f80
00007f807f80
00007f807f80
00007fc07fc0
00003fc03fe0
ENDCHAR
STARTCHAR Ku
ENCODING 185
SWIDTH 958 0
DWIDTH 56 0
BBX 55 41 -1 0
BITMAP
000000003e0000
00000000fc0000
0f800001fc0000
3fc00003fe0000
3fe01ffffe0000
1ffffffdff0000
1fff7f81ff8000
1fe07f80ff0000
1fc07f80000000
3f007f80000000
f800ff00000000
0000ff0ff00000
0000ff3ffc0000
0000fff1ff0000
0000ffe07f8000
0000e7c07f8000
00000fc03fc000
00001f803fc000
00001f803fc000
00003f803fc000
00003f803fc000
00007f803fc000
00007f803fc000
00007f803fc7fc
0000ff803ffbfc
0000ff803fc3fc
0000ff803fc3fc
0000ff803fc3fc
0000ff803fc1fe
0000ff807f80fe
00007f807f8000
00007f807f8000
00007f807f8000
00007f807f8000
00007f807f8000
00007f807f8000
00007f807f8000
00007f807f8000
00007f807f8000
00007fc07fc000
00003fc03fe000
ENDCHAR
STARTCHAR Ki
ENCODING 186
SWIDTH 1009 0
DWIDTH 59 0
BBX 58 44 -1 -3
BITMAP
000000003e000000
00000000fc000000
0f800001fc000000
3fc00003fe000000
3fe01ffffe000000
1ffffffdff000000
1fff7f81ff800000
1fe07f80ff000000
1fc07f8000000000
3f007f8000000000
f800ff0000000000
0000ff0ff0000000
0000ff3ffc000000
0000fff1ff000000
0000ffe07f800000
0000e7c07f800000
00000fc03fc00000
00001f803fc00000
00001f803fc00000
00003f803fc00000
00003f803fc00000
00007f803fc00000
00007f803fc00000
00007f803fc00000
0000ff803fc00000
0000ff803fc00000
0000ff803fc00000
0000ff803fc00000
0000ff803fc00000
0000ff807f800000
00007f807f800000
00007f807f800000
00007f807f800000
00007f807f800000
00007f807f800000
00007f807f800f00
00007f807f807c00
00007f807f81fc00
00007f807f81fc00
00007fc07ffffe00
00003fc03ffffe00
000000000001ff80
000000000000ffc0
0000000000007e00
ENDCHAR
STARTCHAR Ka
ENCODING 187
SWIDTH 770 0
DWIDTH 45 0
BBX 43 41 -1 0
BITMAP
000000003e00
00000000fc00
0f800001fc00
3fc00003fe00
3fe01ffffe00
1ffffffdff00
1fff7f81ff80
1fe07f80ff00
1fc07f800000
3f007f800000
f800ff000000
0000ff0ff000
0000ff7ffc00
0000fff1ff00
0000ffe07f80
0000e7c07f80
00000fc03fc0
00001fc03fc0
00003f803fc0
00003f803fc0
00007f803fc0
00007f803fc0
00007f803fc0
00007f803fc0
00007f803fc0
00007f803fc0
00007f803fc0
00007f803fc0
00007f803fc0
00007f807f80
00007fc07f80
00003fc07f80
000000007f80
000000007f80
000000007f80
000000007f80
000000007f80
000000007f80
000000007f80
000000007fc0
000000003fe0
ENDCHAR
STARTCHAR KE
ENCODING 188
SWIDTH 924 0
DWIDTH 54 0
BBX 53 41 -1 0
BITMAP
000000003e0000
00000000fc0000
0f800001fc0000
3fc00003fe0000
3fe01ffffe0000
1ffffffdff0000
1fff7f81ff8000
1fe07f80ff0000
1fc07f80000000
3f007f80000000
f800ff00000000
0000ff0ff00000
0000ff3ffc0000
0000fff1ff0000
0000ffe07f8000
0000e7c07f8000
00000fc03fc000
00001f803fc000
00001f803fc000
00003f803fc000
00003f803fc000
00007f803fc000
00007f803fc000
00007f803fc000
0000ff803fc000
0000ff803fc000
0000ff803fc000
0000ff803fc000
0000ff803fc000
0000ff807f8000
00007f807f8000
00007f807ff800
00007f807fff80
00007f807f9fe0
00007f807f87f0
00007f807f87f8
00007f807f87f8
00007f807f87f8
00007f807f87f0
00007fc07fffe0
00003fc03fff80
ENDCHAR
STARTCHAR K
ENCODING 189
SWIDTH 770 0
DWIDTH 45 0
BBX 43 41 -1 0
BITMAP
000000003e00
00000000fc00
0f800001fc00
3fc00003fe00
3fe01ffffe00
1ffffffdff00
1fff7f81ff80
1fe07f80ff00
1fc07f800000
3f007f800000
f800ff000000
0000ff0ff000
0000ff7ffc00
0000fff1ff00
0000ffe07f80
0000e7c07f80
00000fc03fc0
00001f803fc0
00003f803fc0
00003f803fc0
00007f803fc0
00007f803fc0
00007fbc3fc0
00007bf83fc0
000003f03fc0
000007f03fc0
00000fe03fc0
00000fe03fc0
00001fc03fc0
00001fc07f80
00001fc07f80
00003f807f80
00003f807f80
00003f807f80
00007f807f80
00007f807f80
00007f807f80
00007f807f80
00007f807f80
00007fc07fc0
00003fc03fe0
ENDCHAR
STARTCHAR Ko
ENCODING 190
SWIDTH 770 0
DWIDTH 45 0
BBX 43 41 -1 0
BITMAP
000000003e00
00000000fc00
0f800001fc00
3fc00003fe00
3fe01ffffe00
1ffffffdff00
1fff7f81ff80
1fe07f80ff00
1fc07f800000
3f007f800000
f800ff000000
0000ff0ff000
0000ff3ffc00
0000fff1ff00
0000ffe07f80
0000e7c07f80
00000fc03fc0
00001f803fc0
00001f803fc0
00003f803fc0
00003f803fc0
00007f803fc0
00007f803fc0
00007f803fc0
0000ff807f80
0000ff807f80
0000ff807f80
0000ff807f80
0000ff807f80
0000ff807f80
0000ff807fc0
0000ff803fe0
0000ff803e00
0000ff800000
0000ff800000
0000ff800000
0000ff800000
0000ff800000
0000ff800000
00007fc00000
00003fc00000
ENDCHAR
STARTCHAR KWe
ENCODING 192
SWIDTH 1061 0
DWIDTH 68 0
BBX 65 44 -1 0
BITMAP
0000001e0000000000
0000007e0000000000
0f8001fc0000000000
3fc007fc0000000000
3fe03ffc0000000000
1ffffbfc0000000000
1ff7f3fe0000000000
1fe7f9ff0000000000
3fc7f8000000000000
3f07f8000000000000
7807f8000000000000
000ff0000000000000
000ff07fe000000000
000ff1fff800000000
000ff7e0fe00000000
000fffc07f00000000
00001fc07f00000000
00003f803f80000000
00007f803f80000000
00007f003fc0000000
00007f003fc0000000
0000ff003fc0000000
0000ff003fc0703800
0000ff003ffffffe00
0000ff003fffffff00
0001fe003fc3f07f00
0001fe003fc3f03f80
0000ff003fc3e03f80
0000ff003fc3e03f80
0000ff003fc3e03f00
0000ff003fc3f03f00
0000ff003fc1f8ff00
0000ff003fc0fffe00
0000ff003fc07ff800
0000ff003fc0000000
0000ff003fc0000000
0000ff003fc0000000
0000ff003fc0000000
0000ff003fc0000000
0000ff003fc0000000
0000ff003fc0000000
0000ff001fe0000000
0000ff001fe0000000
0000ff001fe0000000
ENDCHAR
STARTCHAR KWi
ENCODING 194
SWIDTH 1095 0
DWIDTH 70 0
BBX 67 42 -1 0
BITMAP
0000001e0000000000
0000007e0000000000
1f0001fc0000000000
7f8007fc0000000000
7fc03ffc0000000000
3ffffbfc0000000000
3fefe3fe0000000000
3fcff1ff0000000000
7f8ff0000000000000
7e0ff0000000000000
f01fe0000000000000
001fe0000000000000
001fe0000000000000
001fe7ff0000000000
001fffffc000000000
0001ff07f000000000
0001fe03f800000000
0001fc03f800000000
0003f801fc00000000
0003f801fc00ff8000
0007f001fe01ff8000
0007f001fe01ff0000
000ff001fe03ff0000
000ff001fe03fe0000
000ff001fffffe0000
000ff001fe07fc0000
001fe001fe0ffc0000
001fe001fe0ffc0000
000ff001fe07ffffc0
000ff001fe00007fc0
000ff001fe00003f80
000ff001fe00003fc0
000ff001fe00001fe0
000ff001fe00000fe0
000ff001fe000007c0
000ff001fe00000000
000ff001fe00000000
000ff001fe00000000
000ff001fe00000000
000ff000ff00000000
000ff000ff00000000
000ff000ff00000000
ENDCHAR
STARTCHAR KWa
ENCODING 195
SWIDTH 718 0
DWIDTH 52 0
BBX 50 42 -1 0
BITMAP
0000001e000000
0000007e000000
1f0001fc000000
7f8007fc000000
7fc03ffc000000
3ffffbfc000000
3fefe3fe000000
3fcff1ff000000
7f8ff000000000
7e0ff000000000
f00ff000000000
001fe000000000
001fe0ffc00000
001fe3fff00000
001fffc3f80000
001fff81fc0000
00003f80fe0000
00003f80ff0000
00007f007f0000
00007f007f8000
0000ff007f8000
0000ff007f8000
0000ff007f8000
0000ff007f8000
0000fe007f8000
0001fe007f8000
0001fe007f8000
000000007f8000
000000007f8000
000000007f8000
000000007f8000
00000003ffff00
0000001e00ff00
000000f000ff00
00003f8000ff00
0000ff8000ff00
00007f8000ff00
00007f8000ff00
0000ff0000ff00
0001fe0000ff00
0001fc0000ff00
00007800000000
ENDCHAR
STARTCHAR KWE
ENCODING 196
SWIDTH 718 0
DWIDTH 52 0
BBX 52 42 -1 0
BITMAP
0000001e000000
0000007e000000
1f0001fc000000
7f8007fc000000
7fc03ffc000000
3ffffbfc000000
3fefe3fe000000
3fcff1ff000000
7f8ff000000000
7e0ff000000000
f00ff000000000
001fe000000000
001fe0ffc00000
001fe3fff00000
001fffc3f80000
001fff81fc0000
00003f80fe0000
00003f80ff0000
00007f007f0000
00007f007f8000
0000ff007f8000
0000ff007f8000
0000ff007ffe00
0000ff007fff80
0000fe007f87e0
0001fe007f87e0
0001fe007f87f0
000000007f87f0
000000007f87f0
000000007f87e0
000000007fff80
00000003fffe00
0000001e000000
000000f0000000
00003f80000000
0000ff80000000
00007f80000000
00007f80000000
0000ff00000000
0001fe00000000
0001fc00000000
00007800000000
ENDCHAR
STARTCHAR KW
ENCODING 197
SWIDTH 958 0
DWIDTH 66 0
BBX 63 41 -1 0
BITMAP
0000001e0000000000
0000007e0000000000
1f0001fc0000000000
7f8007fc0000000000
7fc03ffc0000000000
3ffffbfc0000000000
3fe7f3fe0000000000
3fc7f9ff0000000000
7f87f8000000000000
7e07f800000ff80000
f807f800000ff80000
000ff000000ffc0000
000ff07fe00ffc0000
000ff1fff80ffc0000
000fffe0fe0ff80000
000fffc07f0ff80000
00001fc07f0ff80000
00003f803f8ff80000
00007f803ffffffc00
00007f003fc007f800
00007f003fc007f800
0000ff003fc003fc00
0000ff003fc003fe00
0000ff003fc001fe00
0000ff003fc0007800
0001fe003fc0000000
0001fe003fc0000000
0000ff003fc0000000
0000ff003fc0000000
0000ff003fc0000000
0000ff003fc0000000
0000ff003fc0000000
0000ff003fc0000000
0000ff003fc0000000
0000ff003fc0000000
0000ff003fc0000000
0000ff003fc0000000
0000ff003fc0000000
0000ff001fe0000000
0000ff001fe0000000
0000ff001fe0000000
ENDCHAR
STARTCHAR we
ENCODING 200
SWIDTH 804 0
DWIDTH 47 0
BBX 40 23 4 6
BITMAP
000fffffe0
007ffffff0
00fc3fc7f8
03f83fc1fc
07f83fc0fe
0ff07fc0fe
1ff07f80fe
1fe07f807f
3fe07f807f
3fc07f807f
3fc0ff007f
7fc0ff00ff
7f80ff00fe
7f80ff00fe
7f80ff00fe
7f81fe01fe
ff01fe01fe
ff01fe01fc
7f81fe03fc
7f81fe07f8
3fc3fc0ff0
1fffffffe0
0fffffff80
ENDCHAR
STARTCHAR wu
ENCODING 201
SWIDTH 924 0
DWIDTH 54 0
BBX 50 26 4 3
BITMAP
001fffffe00000
007ffffff00000
01fc3fc7f80000
03f83fc1fc0000
07f83fc0fe0000
0ff07fc0fe0000
1ff07f80fe0000
1fe07f807f0000
3fe07f807f0000
3fc07f807f0000
3fc0ff007f0000
7fc0ff00ff0000
7f80ff00fe0000
7f80ff00fe0000
7f80ff00fe0000
7f81fe01fe0000
ff01fe01fe0000
ff01fe01fc0600
7f81fe03fc7e00
7f81fe07f8fc00
3fc3fc0ff1fc00
1ffffffffffe00
0ffffffffffe00
0000000061ff00
0000000000ffc0
00000000007f00
ENDCHAR
STARTCHAR wi
ENCODING 202
SWIDTH 753 0
DWIDTH 44 0
BBX 37 37 4 -3
BITMAP
000f807e00
00ffffff80
03e1ff1fc0
0fc1fe0fe0
1fc1fe07f0
3f81fe07f0
3f81fe07f8
7f81fe07f8
ff81fe07f8
ff01fc07f8
ff03fc07f8
ff03fc0ff0
ff03fc0ff0
ff03fc0fe0
ff03fc1fc0
7fc3fc3f80
3ffffeff00
0ffffffc00
0007f80000
0007f80000
0007f80000
0007f80000
0007f80000
0007f80000
000ff00000
000ff00000
000ff00000
000ff00000
000ff001e0
000ff00fc0
000ff03f80
000ff03fc0
000fffffc0
000fffffe0
0000003ff0
0000001ff8
00000007c0
ENDCHAR
STARTCHAR wa
ENCODING 203
SWIDTH 753 0
DWIDTH 44 0
BBX 37 34 4 0
BITMAP
000f807e00
00ffffff80
03e1ff1fc0
0fc1fe0fe0
1fc1fe07f0
3f81fe07f0
3f81fe07f8
7f81fe07f8
ff81fe07f8
ff01fc07f8
ff03fc07f8
ff03fc0ff0
ff03fc0ff0
ff03fc0fe0
ff03fc1fc0
7fc3fc3f80
3ffffeff00
0ffffffc00
0007f80000
0007f80000
0007f80000
0007f80000
0007f80000
0007f80000
000ff00000
000ff00000
000ff00000
000ff00000
000ff00000
000ff00000
000ff00000
001fe00000
000ff00000
000ff00000
ENDCHAR
STARTCHAR wE
ENCODING 204
SWIDTH 753 0
DWIDTH 44 0
BBX 35 34 5 0
BITMAP
001fc1f800
00f9fffe00
03e3fe3f00
07c3fc1f80
0fc3fc1fc0
1fc3fc1fc0
3f83fc1fe0
7f83fc1fe0
7f83fc1fe0
ff83f81fe0
ff07f81fe0
ff07f83fc0
ff07f83fc0
ff07f87f80
7f87f8ff00
3f87fffc00
1fffffc000
07fff00000
000ff00000
000ff00000
000ff00000
000ff00000
000ff00000
000ff00000
001ffe0000
001fffe000
001fe3f800
001fe1fc00
001fe1fe00
001fe1fe00
001fe1fe00
003fc1fc00
001ffff800
001fffe000
ENDCHAR
STARTCHAR w
ENCODING 205
SWIDTH 1061 0
DWIDTH 62 0
BBX 55 23 4 6
BITMAP
000fffffe00000
007ffffff00000
00fc3fc7f80000
03f83fc1fc0000
07f83fc0fe0000
0ff07fc0fe003c
1ff07f80fe03f0
1fe07f807f07f0
3fe07f807f0ff0
3fc07f807ffff0
3fc0ff007ffff8
7fc0ff00ff0ffc
7f80ff00fe07fe
7f80ff00fe01f8
7f80ff00fe0000
7f81fe01fe0000
ff01fe01fe0000
ff01fe01fc0000
7f81fe03fc0000
7f81fe07f80000
3fc3fc0ff00000
1fffffffe00000
0fffffff800000
ENDCHAR
STARTCHAR wo
ENCODING 206
SWIDTH 804 0
DWIDTH 47 0
BBX 40 34 1 0
BITMAP
0000fc0000
000fffffc0
003fdffff0
007e1fe1f8
00fc1fe0fc
01f81fe0fe
03f81fe0ff
07f81fe0ff
07f81fe0ff
07f03fc0ff
0ff03fc0ff
0ff03fc0ff
0ff03fc0fe
07f03fc0fc
03f83fc1f8
01fffffff0
003fffff80
0000ff0000
0003fe0000
0007f80000
001ff00000
003fc00000
00ff800000
01fe000000
03fc000000
0ff8000000
1fe0000000
3fc0000000
7f80000000
7f80000000
ff00000000
ff00000000
ff00000000
ff00000000
ENDCHAR
STARTCHAR `e/e2
ENCODING 208
SWIDTH 581 0
DWIDTH 34 0
BBX 29 35 3 -2
BITMAP
00003e00
0000ff80
001f7fc0
007c1fe0
01f00ff0
07f00ff0
0fe007f8
1fe007f8
1fc007f8
3fc007f8
3fc007f8
7fc007f8
7f8007f8
7f8007f8
ff8007f8
ff8007f8
ff8007f8
ff8007f8
ff0007f8
ff0007f8
ff0007f8
ff0007f8
ff0007f8
ff0007f8
ff0007f8
ff000ff0
ff000ff0
ff001fe0
ff801fe0
7f80ffc0
7fff0000
7ffc0000
3fe00000
1f800000
0c000000
ENDCHAR
STARTCHAR `u/u2
ENCODING 209
SWIDTH 838 0
DWIDTH 49 0
BBX 44 35 3 -2
BITMAP
00003e000000
0000ff800000
001f7fc00000
007c1fe00000
01f00ff00000
07f00ff00000
0fe007f80000
1fe007f80000
1fc007f80000
3fc007f80000
3fc007f80000
7fc007f80000
7f8007f80000
7f8007f80200
ff8007ffffe0
ff8007f83fe0
ff8007f81fe0
ff8007f81fe0
ff0007f80ff0
ff0007f807f0
ff0007f801c0
ff0007f80000
ff0007f80000
ff0007f80000
ff0007f80000
ff000ff00000
ff000ff00000
ff001fe00000
ff801fe00000
7f80ffc00000
7fff00000000
7ffc00000000
3fe000000000
1f8000000000
0c0000000000
ENDCHAR
STARTCHAR `i/i2
ENCODING 210
SWIDTH 804 0
DWIDTH 47 0
BBX 45 40 2 -3
BITMAP
001fff000000
01ffffc00000
07fe0fe00000
0ff80ff00000
1fe007f80000
3fc007f80000
7f8007f80000
7f8007f80000
ff0007f80000
ff0007f80000
ff000ff00000
ff000ff00000
7f800ff00000
7f801fe00000
3fc03fc00000
1fffffff0000
0000007f8000
0000003fc000
0000003fc000
0000003fc000
0000007f8000
0000007f8000
000000ff0000
000000ff0000
000001fe0000
000001fe0000
000003fc0000
000003fc0000
000003fc0000
000007f80000
000007f80000
00000ff001e0
00000ff00fc0
00001fe03f80
00001fe03fc0
00001fefffc0
00000fffffe0
000000003ff0
000000001ff8
0000000007c0
ENDCHAR
STARTCHAR `a/A2
ENCODING 211
SWIDTH 616 0
DWIDTH 36 0
BBX 34 37 2 0
BITMAP
001fff0000
01ffffc000
07fe0fe000
0ff80ff000
1fe007f800
3fc007f800
7f8007f800
7f8007f800
ff0007f800
ff0007f800
ff000ff000
ff000ff000
7f800ff000
7f801fe000
3fc03fc000
1fffffff00
0000007f80
0000003fc0
0000003fc0
0000003fc0
0000007f80
0000007f80
000000ff00
000000ff00
000001fe00
000001fe00
000003fc00
000003fc00
000003fc00
000007f800
000007f800
00000ff000
00000ff000
00001fe000
00001fe000
00001fe000
00000ff000
ENDCHAR
STARTCHAR `E/E2
ENCODING 212
SWIDTH 804 0
DWIDTH 47 0
BBX 40 37 2 0
BITMAP
001fff0000
01ffffc000
07fe0fe000
0ff80ff000
1fe007f800
3fc007f800
7f8007f800
7f8007f800
ff0007f800
ff0007f800
ff000ff000
ff000ff000
7f800ff000
7f801fe000
3fc03fc000
1fffffff00
0000007f80
0000003fc0
0000003fc0
0000003fc0
0000007f80
0000007f80
000000ff00
000000ff00
000001fe00
000001fe00
000003fc00
000003ff00
000003fff0
000007f9fc
000007f8fe
00000ff0ff
00000ff0ff
00001fe0ff
00001fe0fe
00001ffffc
00000ffff0
ENDCHAR
STARTCHAR `I/I2
ENCODING 213
SWIDTH 530 0
DWIDTH 31 0
BBX 26 36 3 -1
BITMAP
007f8000
00ffc000
007fc000
007fc000
007fc000
007fc000
007fc000
007fc000
007fe000
007ffc00
01fcfe00
07f07f80
0fe03f80
1fe03fc0
3fc03fc0
3fc03fc0
7f803fc0
7f803fc0
7f803fc0
ff803fc0
ff003fc0
ff003fc0
ff003fc0
ff003fc0
ff003fc0
ff003fc0
ff003fc0
ff003fc0
ff003f80
ff007f80
7f807f00
7f80fc00
7fc3f000
3ffc0000
3fe00000
1f000000
ENDCHAR
STARTCHAR `o/o2
ENCODING 214
SWIDTH 650 0
DWIDTH 38 0
BBX 32 37 3 0
BITMAP
0001ff80
000fffe0
003f83f8
007e03fc
00fc03fe
01fc03fe
03fc01fe
03fc01ff
03fc01ff
03fc01ff
03fc01fe
03fc01fe
03fc01fe
03fc03fe
03fc03fc
03fc03fc
01fe07f8
00fe07f0
007fdfe0
001fff80
007f8000
01fe0000
03f80000
07f00000
0ff00000
1fe00000
3fc00000
3fc00000
7f800000
7f800000
7f800000
7f800000
ff000000
ff000000
ff000000
7f800000
3fc00000
ENDCHAR
STARTCHAR ze
ENCODING 216
SWIDTH 564 0
DWIDTH 33 0
BBX 27 34 2 0
BITMAP
00000080
00007fc0
00001fe0
7fc01fe0
3fe01fe0
1fe01fe0
1fe01fe0
1fe01fe0
1fe01fe0
1fe01fe0
3fc03fc0
3fc03fc0
3fcfffc0
3fffffc0
3ff03fc0
3fc03fc0
3fc03fc0
7f803fc0
7f807f80
7f807f80
7f807f80
7f807f80
7f807f80
7f807f80
ff007f80
ff007f80
ff00ff00
ff00ff00
ff00ff00
ff00ff00
ff00ff00
ff00ff00
ff00ff80
7f807fc0
ENDCHAR
STARTCHAR zu
ENCODING 217
SWIDTH 753 0
DWIDTH 44 0
BBX 39 34 2 0
BITMAP
0000008000
00007fc000
00001fe000
7fc01fe000
3fe01fe000
1fe01fe000
1fe01fe000
1fe01fe000
1fe01fe000
1fe01fe000
3fc03fc000
3fc03fc000
3fcfffc000
3fffffc000
3ff03fc000
3fc03fc000
3fc03fc7fc
7f803ffffc
7f807f83fc
7f807f83fc
7f807f83fc
7f807f81fe
7f807f80fe
7f807f8000
ff007f8000
ff007f8000
ff00ff0000
ff00ff0000
ff00ff0000
ff00ff0000
ff00ff0000
ff00ff0000
ff00ff8000
7f807fc000
ENDCHAR
STARTCHAR zi
ENCODING 218
SWIDTH 753 0
DWIDTH 44 0
BBX 39 37 2 -3
BITMAP
0000008000
00007fc000
00001fe000
7fc01fe000
3fe01fe000
1fe01fe000
1fe01fe000
1fe01fe000
1fe01fe000
1fe01fe000
3fc03fc000
3fc03fc000
3fcfffc000
3fffffc000
3ff03fc000
3fc03fc000
3fc03fc000
7f803fc000
7f807f8000
7f807f8000
7f807f8000
7f807f8000
7f807f8000
7f807f8000
ff007f8000
ff007f8000
ff00ff0000
ff00ff0000
ff00ff0078
ff00ff03f0
ff00ff07f0
ff00ff0ff0
ff00fffff0
7f807ffff8
0000000ffc
00000007fe
00000001f0
ENDCHAR
STARTCHAR za
ENCODING 219
SWIDTH 564 0
DWIDTH 33 0
BBX 27 34 2 0
BITMAP
00000080
00007fc0
00001fe0
7fc01fe0
3fc01fe0
1fe01fe0
1fe01fe0
1fe01fe0
3fc01fe0
3fc01fe0
3fc03fc0
3fc03fc0
3fcfffc0
7fffffc0
7ff03fc0
7f803fc0
7f803fc0
7f803fc0
ff007f80
ff007f80
ff007f80
ff007f80
ff007f80
ff007f80
ff807f80
7c007f80
0000ff00
0000ff00
0000ff00
0000ff00
0000ff00
0000ff00
0000ff80
00007fc0
ENDCHAR
STARTCHAR zE
ENCODING 220
SWIDTH 735 0
DWIDTH 43 0
BBX 38 34 2 0
BITMAP
0000008000
00007fc000
00001fe000
7fc01fe000
3fe01fe000
1fe01fe000
1fe01fe000
1fe01fe000
1fe01fe000
1fe01fe000
3fc03fc000
3fc03fc000
3fcfffc000
3fffffc000
3ff03fc000
3fc03fc000
3fc03fc000
7f803fc000
7f807f8000
7f807f8000
7f807f8000
7f807f8000
7f807f8000
7f807f8000
ff007ff800
ff007fffc0
ff00ff0ff0
ff00ff03f8
ff00ff03fc
ff00ff03fc
ff00ff03fc
ff00ff03f8
ff00fffff0
7f807fffc0
ENDCHAR
STARTCHAR z
ENCODING 221
SWIDTH 770 0
DWIDTH 45 0
BBX 39 34 2 0
BITMAP
0000000008
00000007fc
000e0001fe
003fe001fe
3fc3f801fe
7f81fc01fe
7f80fe01fe
7f80fe01fe
7f80ff01fe
ff00ff01fe
fe00ff03fc
7801fe07fc
0001fffffc
0001fffbfc
0001fe03fc
0001fe03fc
0001fe03fc
0001fe03fc
0003fc07f8
0003fc07f8
0003fc07f8
0003fc07f8
0003fc07f8
0003fc07f8
0003fc07f8
0007f807f8
0007f80ff0
0007f80ff0
0007f80ff0
0007f80ff0
0007f80ff0
0007f80ff0
0007f80ff8
0003fc07fc
ENDCHAR
STARTCHAR zo
ENCODING 222
SWIDTH 547 0
DWIDTH 32 0
BBX 27 34 2 0
BITMAP
00000080
00007fc0
00001fe0
7fc01fe0
3fe01fe0
1fe01fe0
1fe01fe0
1fe01fe0
1fe03fc0
1fe03fc0
3fc03fc0
3fc03fc0
3fcfffc0
3fffffc0
3ff07f80
3fc07f80
3fc07f80
7f807f80
7f807f80
7f80ff00
7f80ff00
7f80ff00
7f80ff00
7f80ff00
ff007fc0
ff003c00
ff000000
ff000000
ff000000
ff000000
ff000000
ff000000
ff000000
7f800000
ENDCHAR
STARTCHAR zWa
ENCODING 223
SWIDTH 770 0
DWIDTH 45 0
BBX 39 41 2 -7
BITMAP
0000010000
0000ff8000
00003fc000
7fc03fc000
3fc03fc000
1fe03fc000
1fe03fc000
1fe03fc000
3fc03fc000
3fc03fc000
3fc07f8000
3fc07f8000
3fdfff8000
7fffff8000
7fe07f8000
7f807f8000
7f807f8000
7f807f8000
ff00ff0000
ff00ff0000
ff00ff0000
ff00ff0000
ff00ff0000
ff00ff0000
ff80ff0000
7c00ff0000
0001fe0000
0001fe0000
0001fe0000
0001fe0000
0001fe0000
0001fe0000
0001ff03f8
001ffffffc
3fe00007f8
3fe00003fc
1fe00003fc
3fc00001fe
3fc00000fe
7f80000010
3e00000000
ENDCHAR
STARTCHAR Ze
ENCODING 224
SWIDTH 1026 0
DWIDTH 60 0
BBX 54 33 2 0
BITMAP
0000000003e3e0
000e00001ffff8
3fffe0003f0ff8
3fc3f8007e07f8
3fc1fc00fe07f8
3fc0fe01fe03fc
7f80fe01fe01fc
ff00ff01fe0070
3e00ff01fe0000
0000ff01fe0000
0001fe01fe0000
0001fe7ffc0000
0001fffffc0000
0001ff83fc0000
0001fe03fc0000
0001fe03fc0000
0001fe03fc0000
0003fc03fc0000
0003fc07f80000
0003fc07f80000
0003fc07f80000
0003fc07f80000
0003fc07f80000
0003fc07f80000
0007f807f80000
0007f80ff00000
0007f80ff00000
0007f80ff00000
0007f80ff00000
0007f80ff00000
0007f80ff00000
0007f80ff80000
0003fc07fc0000
ENDCHAR
STARTCHAR Zu
ENCODING 225
SWIDTH 1026 0
DWIDTH 60 0
BBX 54 33 2 0
BITMAP
0000000003e3e0
000e00001ffff8
3fffe0003f0ff8
3fc3f8007e07f8
3fc1fc00fe07f8
3fc0fe01fe03fc
7f80fe01fe01fc
ff00ff01fe0070
3e00ff01fe0000
0000ff01fe0000
0001fe01fe0000
0001fe7ffc0000
0001fffffc0000
0001ff83fc0000
0001fe03fc0000
0001fe03fc7fc0
0001fe03ffffc0
0003fc03fc3fc0
0003fc07f83fc0
0003fc07f83fc0
0003fc07f81fe0
0003fc07f80fe0
0003fc07f80000
0003fc07f80000
0007f807f80000
0007f80ff00000
0007f80ff00000
0007f80ff00000
0007f80ff00000
0007f80ff00000
0007f80ff00000
0007f80ff80000
0003fc07fc0000
ENDCHAR
STARTCHAR Zi
ENCODING 226
SWIDTH 1026 0
DWIDTH 60 0
BBX 54 36 2 -3
BITMAP
0000000003e3e0
000e00001ffff8
3fffe0003f0ff8
3fc3f8007e07f8
3fc1fc00fe07f8
3fc0fe01fe03fc
7f80fe01fe01fc
ff00ff01fe0070
3e00ff01fe0000
0000ff01fe0000
0001fe01fe0000
0001fe7ffc0000
0001fffffc0000
0001ff83fc0000
0001fe03fc0000
0001fe03fc0000
0001fe03fc0000
0003fc03fc0000
0003fc07f80000
0003fc07f80000
0003fc07f80000
0003fc07f80000
0003fc07f80000
0003fc07f80000
0007f807f80000
0007f80ff00000
0007f80ff00000
0007f80ff001e0
0007f80ff00f80
0007f80ff03f80
0007f80ff03f80
0007f80fffffc0
0003fc07ffffc0
00000000003ff0
00000000001ff8
00000000000fc0
ENDCHAR
STARTCHAR Za
ENCODING 227
SWIDTH 1026 0
DWIDTH 60 0
BBX 54 33 2 0
BITMAP
0000000003e3e0
000e00001ffff8
3ffff0003f0ff8
3fc3fc007e07f8
3fc0fe00fe07f8
3fc0fe01fe03fc
7f80ff01fe01fc
ff00ff01fe0070
3e01fe01fe0000
0001fe01fe0000
0001fe01fe0000
0001fe7ffc0000
0001fffffc0000
0003ff83fc0000
0003fc03fc0000
0003fc03fc0000
0003fc03fc0000
0003fc03fc0000
0007f807f80000
0007f807f80000
0007f807f80000
0007f807f80000
0007f807f80000
0007fc07f80000
0003e007f80000
0000000ff00000
0000000ff00000
0000000ff00000
0000000ff00000
0000000ff00000
0000000ff00000
0000000ff80000
00000007fc0000
ENDCHAR
STARTCHAR ZE
ENCODING 228
SWIDTH 1026 0
DWIDTH 60 0
BBX 54 33 2 0
BITMAP
0000000003e3e0
000e00001ffff8
3fffe0003f0ff8
3fc3f8007e07f8
3fc1fc00fe07f8
3fc0fe01fe03fc
7f80fe01fe01fc
ff00ff01fe0070
3e00ff01fe0000
0000ff01fe0000
0001fe01fe0000
0001fe7ffc0000
0001fffffc0000
0001ff83fc0000
0001fe03fc0000
0001fe03fc0000
0001fe03fc0000
0003fc03fc0000
0003fc07f80000
0003fc07f80000
0003fc07f80000
0003fc07f80000
0003fc07f80000
0003fc07ff8000
0007f807fffc00
0007f80ff0ff00
0007f80ff03f80
0007f80ff03fc0
0007f80ff03fc0
0007f80ff03fc0
0007f80ff03f80
0007f80fffff00
0003fc07fffc00
ENDCHAR
STARTCHAR Z
ENCODING 229
SWIDTH 1095 0
DWIDTH 64 0
BBX 56 41 4 0
BITMAP
38000000700000
fe000003f80000
7f000007f00000
3f80000ff00000
3fc0000ff00000
3fc0001ff00000
7ffffffff00000
003ffff0000000
0003fc00000000
0003fc00000000
0003fc0001fffc
0183fc0007fbfe
0ffffc001fc3fc
0ff07e003f81fe
0ff03f003f81fe
0ff03f807f80ff
1fe03fc07f807f
1fc03fc07f8000
0f003fc07f8000
00003fdfff8000
00007fffff0000
00007fe0ff0000
00007f80ff0000
00007f80ff0000
00007f80ff0000
00007f80ff0000
0000ff00ff0000
0000ff01fe0000
0000ff01fe0000
0000ff01fe0000
0000ff01fe0000
0000ff01fe0000
0001fe01fe0000
0001fe01fe0000
0001fe03fc0000
0001fe03fc0000
0001fe03fc0000
0001fe03fc0000
0001fe03fc0000
0001fe03fe0000
0000ff01ff0000
ENDCHAR
STARTCHAR Zo
ENCODING 230
SWIDTH 1026 0
DWIDTH 60 0
BBX 54 33 2 0
BITMAP
0000000007e3e0
000e00003ffff8
3fffe0007f0ff8
3fc3f800fe07f8
3fc1fc01fe07f8
3fc0fe01fe03fc
7f80fe01fe01fc
ff00ff01fe0070
3e00ff03fc0000
0000ff03fc0000
0001fe03fc0000
0001fe7ffc0000
0001fffffc0000
0001ff83fc0000
0001fe07f80000
0001fe07f80000
0001fe07f80000
0003fc07f80000
0003fc07f80000
0003fc0ff00000
0003fc0ff00000
0003fc0ff00000
0003fc0ff00000
0003fc07fc0000
0007f803c00000
0007f800000000
0007f800000000
0007f800000000
0007f800000000
0007f800000000
0007f800000000
0007f800000000
0003fc00000000
ENDCHAR
STARTCHAR ZWa
ENCODING 231
SWIDTH 1026 0
DWIDTH 60 0
BBX 54 40 2 -7
BITMAP
0000000003e3e0
000e00001ffff8
3ffff0003f0ff8
3fc3fc007e07f8
3fc0fe00fe07f8
3fc0fe01fe03fc
7f80ff01fe01fc
ff00ff01fe0070
3e01fe01fe0000
0001fe01fe0000
0001fe01fe0000
0001fe7ffc0000
0001fffffc0000
0003ff83fc0000
0003fc03fc0000
0003fc03fc0000
0003fc03fc0000
0003fc03fc0000
0007f807f80000
0007f807f80000
0007f807f80000
0007f807f80000
0007f807f80000
0007fc07f80000
0003e007f80000
0000000ff00000
0000000ff00000
0000000ff00000
0000000ff00000
0000000ff00000
0000000ff00000
0000000ff83f80
0000007fffffc0
0000ff80003fc0
0000ff80003fc0
00007f80003fc0
0000ff00001fe0
0000ff00000fe0
0001fe00000100
0000f800000000
ENDCHAR
STARTCHAR ye
ENCODING 232
SWIDTH 496 0
DWIDTH 29 0
BBX 25 35 2 0
BITMAP
000ff000
00fffe00
03fcff00
07e07f80
1fc07f80
3fc07f80
3f80ff00
7f80ff00
7f00ff00
ff01fe00
ff01fc00
ff03f800
ff07f000
ff1fe000
ffff8000
fffc0000
7f800000
7f800000
3fc00000
1fe00000
0ff00000
0ff00000
07f80000
07f80000
07f80000
07f80000
07f80000
07f80000
07f80000
07f80000
07f80000
07f80000
07f80000
07f80000
03fc0000
ENDCHAR
STARTCHAR yu
ENCODING 233
SWIDTH 564 0
DWIDTH 33 0
BBX 29 35 2 0
BITMAP
000ff000
00fffe00
03fcff00
07e07f80
1fc07f80
3fc07f80
3f80ff00
7f80ff00
7f00ff00
ff01fe00
ff01fc00
ff03f800
ff07f000
ff1fe000
ffff8000
fffc0000
7f800000
7f800000
3fc00000
1fe00000
0ff00000
0ff07fe0
07ff9fe0
07f81fe0
07f81fe0
07f80ff0
07f80ff8
07f803f0
07f80000
07f80000
07f80000
07f80000
07f80000
07f80000
03fc0000
ENDCHAR
STARTCHAR yi
ENCODING 234
SWIDTH 718 0
DWIDTH 44 0
BBX 39 35 2 0
BITMAP
000ff00000
00fffe0000
03fcff0000
07e07f8000
1fc07f8000
3fc07f8000
3f80ff0000
7f80ff0000
7f00ff0000
ff01fe0000
ff01fc0000
ff03f80000
ff07f00000
ff1fe00000
ffff800000
fffc000000
7f80000000
7f80000000
3fc0000000
1fe0000000
0ff03fc000
0ff01fe000
07f81fe000
07f81fe000
07ffffe000
07ffdfe000
07f81ffffc
07f80007fc
07f80003fc
07f80003fc
07f80003fc
07f80001fe
07f80000fe
07f8000000
03fc000000
ENDCHAR
STARTCHAR ya
ENCODING 235
SWIDTH 650 0
DWIDTH 38 0
BBX 34 38 2 -2
BITMAP
00003ffc00
0000fffe00
0001f87f80
0007f03f80
000fe03fc0
000fe03fc0
001fc03fc0
003fc07f80
003fc07f80
007f807f80
007f80ff00
007f80fe00
007f81fc00
007f83f800
007f8ff000
007fffc000
007ffe0000
003fc00000
003fc00000
003fc00000
001fe00000
001fe00000
000ff00000
000ff00000
000ff80000
0007f80000
0007f80000
0003fc0000
0003fc0000
000ffc0000
7f7f800000
fff0000000
7fc0000000
3fc0000000
3f80000000
3f00000000
7e00000000
f800000000
ENDCHAR
STARTCHAR yE
ENCODING 236
SWIDTH 650 0
DWIDTH 38 0
BBX 34 35 2 0
BITMAP
000ff00000
00fffe0000
03fcff0000
07e07f8000
1fc07f8000
3fc07f8000
3f80ff0000
7f80ff0000
7f00ff0000
ff01fe0000
ff01fc0000
ff03f80000
ff07f00000
ff1fe00000
ffff800000
fffc000000
7f80000000
7f80000000
3fc0000000
1fe0000000
0fffffff00
0ff07e3f80
07f8fc1fc0
07f8fc1fc0
07f8fc1fc0
07f87e1fc0
07f87f3f80
07f81f7f00
07f8000000
07f8000000
07f8000000
07f8000000
07f8000000
07f8000000
03fc000000
ENDCHAR
STARTCHAR y
ENCODING 237
SWIDTH 718 0
DWIDTH 42 0
BBX 38 38 2 -2
BITMAP
0001ffe000
0007fff000
000fc3fc00
003f81fc00
007f01fe00
007f01fe00
00fe01fe00
01fe03fc00
01fe03fc00
03fc03fc00
03fc07f800
03fc07f000
03fc0fe000
03fc1fc000
03fc7f8000
03fffe0000
01fff00000
01fe000000
01fe000000
01fe000ff0
01fe0007f8
00ff0003fc
00ff0003fc
00ff0003fc
007f8007f8
007fc007f8
003fe007f0
001ff80fe0
003fffff80
0061fffc00
3fc0000000
7fc0000000
3fc0000000
3fc0000000
7f80000000
ff00000000
7e00000000
3800000000
ENDCHAR
STARTCHAR yo
ENCODING 238
SWIDTH 718 0
DWIDTH 42 0
BBX 37 35 2 0
BITMAP
000ff00000
00fffe0000
03fcff0000
07e07f8000
1fc07f8000
3fc07f8000
3f80ff0000
7f80ff0000
7f00ff0000
ff01fe0000
ff01fc0fe0
ff03fffff0
ff07f01ff0
ff1fe00ff0
ffff800ff0
fffc0007f8
7f800003f8
7f800000e0
3fc0000000
1fe0000000
0ff0000000
0ff0000000
07f8000000
07f8000000
07f8000000
07f8000000
07f8000000
07f8000000
07f8000000
07f8000000
07f8000000
07f8000000
07f8000000
07f8000000
03fc000000
ENDCHAR
STARTCHAR yWa
ENCODING 239
SWIDTH 496 0
DWIDTH 44 0
BBX 38 45 2 0
BITMAP
7e000000fc00
7f000003fc00
3f800007f800
3fc00007f000
3fe0000ff000
3fff03fff800
3ffffffff800
0001fe000000
0001fe000000
0001fe000000
0001fe000000
000fffe00000
003fcff00000
007e07f80000
01fc07f80000
03fc07f80000
03f80ff00000
07f80ff00000
07f00ff00000
0ff01fe00000
0ff01fc00000
0ff03f800000
0ff07f000000
0ff1fe000000
0ffff8000000
0fffc0000000
07f800000000
07f800000000
03fc00000000
01fe00000000
00ff00000000
00ff00000000
007f80000000
007f80000000
007f80000000
007f80000000
007f80000000
007f80000000
007f80000000
007f80000000
007f80000000
007f80000000
007f80000000
007f80000000
003fc0000000
ENDCHAR
STARTCHAR de
ENCODING 240
SWIDTH 650 0
DWIDTH 38 0
BBX 33 35 0 1
BITMAP
00001e0000
0001fff000
0007e7f800
000f83fc00
001f81fe00
003f01fe00
007f01fe00
00ff01fe00
00fe03fc00
00fe03fc00
01fe03f800
01fe07f800
01fe0ff000
01fe1fc000
01fe3f8000
01fffe0000
01fff00000
00ff000000
00ff000000
007f800000
007f800000
003fc00000
003fc00000
001fe00000
001fe00000
000ff00000
001ffffe00
03ffffff00
3fe001ff00
3fc000ff00
3fc000ff00
3fc0007f80
7f80003f80
ff00000c00
7e00000000
ENDCHAR
STARTCHAR du
ENCODING 241
SWIDTH 924 0
DWIDTH 54 0
BBX 49 36 1 0
BITMAP
00003ffe000000
0000ff7f800000
0001f83fc00000
0003f81fc00000
0007f01fe00000
000ff01fe00000
000fe01fe00000
001fe01fc00000
001fe03fc00000
001fe03fc00000
001fe07f800000
001fe0ff000000
001ff3fc000000
000ffff8000000
000fffc0000000
000ff800000000
003ff800000000
01fffc00000000
7fc3fe00000000
7fc1ffffc00000
7f80fe7fc00000
7f80001fe00000
7f00001fe00000
ff00001fffff00
fc00003fc1fe00
1000003f81fe00
0000007f80ff00
0000007f80ff00
000000ff007f80
000000ff001f00
000000fe000000
000001fe000000
000001fc000000
000003fc000000
000003fc000000
000001fe000000
ENDCHAR
STARTCHAR di
ENCODING 242
SWIDTH 872 0
DWIDTH 51 0
BBX 48 39 2 -3
BITMAP
00003ffe0000
0000ff7f8000
0001f83fc000
0003f81fc000
0007f01fe000
000ff01fe000
000fe01fe000
001fe01fc000
001fe03fc000
001fe03fc000
001fe07f8000
001fe0ff0000
001ff3fc0000
000ffff80000
000fffc00000
000ff8000000
003ff8000000
01fffc000000
7fc3fe000000
7fc1ffffc000
7f80fe7fc000
7f80001fe000
7f00001fe000
ff00001fc000
fc00003fc000
1000003f8000
0000007f8000
0000007f8000
000000ff0000
000000ff0000
000000fe003c
000001fe01f0
000001fc07f0
000003fc07f0
000003fdfff8
000001fffff8
0000000007fe
0000000003ff
0000000001f8
ENDCHAR
STARTCHAR da
ENCODING 243
SWIDTH 684 0
DWIDTH 40 0
BBX 35 36 2 0
BITMAP
00003ffe00
0000ff7f80
0001f83fc0
0003f81fc0
0007f01fe0
000ff01fe0
000fe01fe0
001fe01fc0
001fe03fc0
001fe03fc0
001fe07f80
001fe0ff00
001ff3fc00
000ffff800
000fffc000
000ff80000
003ff80000
01fffc0000
7fc3fe0000
7fc1ffffc0
7f80fe7fc0
7f80001fe0
7f00001fe0
ff00001fc0
fc00003fc0
1000003f80
0000007f80
0000007f80
000000ff00
000000ff00
000000fe00
000001fe00
000001fc00
000003fc00
000003fc00
000001fe00
ENDCHAR
STARTCHAR dE
ENCODING 244
SWIDTH 770 0
DWIDTH 45 0
BBX 41 36 0 0
BITMAP
00001e000000
0001fff00000
0007e7f80000
000f83fc0000
001f81fe0000
003f01fe0000
007f01fe0000
00ff01fe0000
00fe03fc0000
00fe03fc0000
01fe03f80000
01fe07f80000
01fe0ff00000
01fe1fc00000
01fe3f800000
01fffe000000
01fff0000000
00ff00000000
00ff00000000
007f80000000
007f80000000
003fc0000000
003fc0000000
001fe0000000
001fe0000000
000ff0000000
001ff0000000
03fffffffe00
3fe001fc3f00
3fc000f81f80
3fc001f81f80
3fc001f81f80
7f8001f81f80
ff0000fc3f80
7e0000ffff00
0000007ffe00
ENDCHAR
STARTCHAR d
ENCODING 245
SWIDTH 770 0
DWIDTH 45 0
BBX 42 35 0 1
BITMAP
00001e000000
0001fff00000
0007e7f80000
000f83fc0000
001f81fe0000
003f01fe0000
007f01fe0000
00ff01fe0000
00fe03fc0000
00fe03fc0000
01fe03f80000
01fe07f80000
01fe0fffff00
01fe1fc0ff00
01fe3f80ff00
01fffe00ff00
01fff0007f80
00ff00003fc0
00ff00001f00
007f80000000
007f80000000
003fc0000000
003fc0000000
001fe0000000
001fe0000000
000ff0000000
001ffffe0000
03ffffff0000
3fe001ff0000
3fc000ff0000
3fc000ff0000
3fc0007f8000
7f80003f8000
ff00000c0000
7e0000000000
ENDCHAR
STARTCHAR do
ENCODING 246
SWIDTH 804 0
DWIDTH 47 0
BBX 44 36 2 0
BITMAP
00001ffe0000
00007f7f8000
0001fc3fc000
0003f81fc000
0007f01fe000
0007f01fe000
000ff01fe000
000fe01fe000
001fe03fc000
001fe03fc000
001fe03f8000
001fe07f8000
001fe0ff0000
001ff1fc0000
000ff3f80000
000fffe00000
0007ff000000
0007f8000000
0003fe000000
000fffe00000
007fffff0000
00fc001fffc0
03f000003fc0
07e000003fc0
0fe000003fc0
1fc000001fe0
3fc000000ff0
3f80000007e0
7f8000000000
7f8000000000
7f8000000000
7f8000000000
ff0000000000
ff0000000000
7f8000000000
3fc000000000
ENDCHAR
STARTCHAR dWa
ENCODING 247
SWIDTH 907 0
DWIDTH 53 0
BBX 49 41 1 -5
BITMAP
00001e00000000
0001fff0000000
0007e7f8000000
000f83fc000000
001f81fe000000
003f01fe000000
007f01fe000000
00ff01fe000000
00fe03fc000000
00fe03fc000000
01fe03f8000000
01fe07f8000000
01fe0ff0000000
01fe1fc0000000
01fe3f80000000
01fffe00000000
01fff000000000
00ff0000000000
00ff0000000000
007f8000000000
007f8000000000
003fc000000000
003fc000000000
001fe000000000
001fe000000000
000ff000000000
000ffffe000000
01ffffff000000
3fc001ff000000
7fc000ff000000
3fc000ff000000
3fc0007f800000
7f80003f8ffe00
ff007ffff1fe00
7e03fe0001fe00
0003fe0001fe00
0001fc0000ff00
0003fc00007f80
0007f800003f00
0007f000000000
0003e000000000
ENDCHAR
STARTCHAR De
ENCODING 248
SWIDTH 753 0
DWIDTH 44 0
BBX 42 46 1 0
BITMAP
000000000000
000000000000
000000000000
000000000000
000007800000
00007f800000
00007f800000
00007f800000
00007f800000
00007f800000
00007f800000
0000ffc00000
0001fff80000
0003e1fc0000
0007c1fe0000
000fc1fe0000
001fc0ff0000
001fc0ff0000
003fc0ff0000
003fc1fe0000
003fc1fe0000
003fc1fc0000
003fc3fc0000
003fc3f80000
003fc7e00000
003fdf800000
003ffc000000
003fc0000000
001fe0000000
001fe0000000
001fe0000000
001fe0000000
000ff0000000
000ff0000000
000ff0000000
000ff0000000
000ff0030000
001ffffff000
01f8001fe000
3fe0001fe000
7fc0000ff000
3fc0000ff800
3fc00007f800
7f800001e000
ff0000000000
7e0000000000
ENDCHAR
STARTCHAR Du
ENCODING 249
SWIDTH 804 0
DWIDTH 47 0
BBX 46 48 -1 0
BITMAP
000000000000
000000000000
000000000000
000000000000
000007800000
00007f800000
00007f800000
00007f800000
0000ff000000
0000ff000000
0000ff000000
0000ffe00000
0007fff80000
000fe1fc0000
001fc1fe0000
003f80ff0000
007f80ff0000
007f00ff0000
00ff00ff0000
00ff01fe0000
00ff01fe0000
00ff03fc0000
00ff07f80000
00ff0ff00000
007fffc00000
007fff000000
007fc0000000
003fc0000000
003fc0000000
001fe0000000
000ffffc0000
000ffffe0000
001800ff0000
07e000ff0000
3fc000fffff8
3fc001fe0ff8
3fc001fe0ff0
3fc001fc07f8
7f8003fc07f8
ff0003fc03fc
7e0007f801f8
000007f80000
000007f00000
00000ff00000
00000ff00000
00000fe00000
00001ff00000
000008000000
ENDCHAR
STARTCHAR Di
ENCODING 250
SWIDTH 753 0
DWIDTH 44 0
BBX 45 50 -1 -3
BITMAP
000000000000
000000000000
000000000000
000000000000
000007800000
00007f800000
00007f800000
00007f800000
0000ff000000
0000ff000000
0000ff000000
0000ffe00000
0007fff80000
000fe1fc0000
001fc1fe0000
003f80ff0000
007f80ff0000
007f00ff0000
00ff00ff0000
00ff01fe0000
00ff01fe0000
00ff03fc0000
00ff07f80000
00ff0ff00000
007fffc00000
007fff000000
007fc0000000
003fc0000000
003fc0000000
001fe0000000
000ffffc0000
000ffffe0000
001800ff0000
07e000ff0000
3fc000fe0000
3fc001fe0000
3fc001fe0000
3fc001fc0000
7f8003fc0000
ff0003fc0000
7e0007f80000
000007f800c0
000007f00fc0
00000ff03f80
00000ff03f80
00000fe3ffc0
00001fffffc0
0000081c3fe0
000000003ff8
000000000fc0
ENDCHAR
STARTCHAR Da
ENCODING 251
SWIDTH 753 0
DWIDTH 44 0
BBX 43 48 0 0
BITMAP
000000000000
000000000000
000000000000
000000000000
000007800000
00007f800000
00007f800000
00007f800000
0000ff000000
0000ff000000
0000ff000000
0000ffe00000
0007fff80000
000fe1fc0000
001fc1fe0000
003f80ff0000
007f80ff0000
007f00ff0000
00ff00ff0000
00ff01fe0000
00ff01fe0000
00ff03fc0000
00ff07f80000
00ff0ff00000
007fffc00000
007fff000000
007fc0000000
003fc0000000
003fc0000000
001fe0000000
000ffffc0000
000ffffe0000
001800ff0000
07e000ff0000
3fc000fe0000
3fc001fe0000
3fc001fe0000
3fc001fc0000
7f8003fc0000
ff0003fc0000
7e0007f80000
000007f80000
000007f00000
00000ff00000
00000ff00000
00000fe00000
00001ff00000
000008000000
ENDCHAR
STARTCHAR DE
ENCODING 252
SWIDTH 753 0
DWIDTH 44 0
BBX 42 46 1 0
BITMAP
000000000000
000000000000
000000000000
000000000000
000007800000
00007f800000
00007f800000
00007f800000
00007f800000
00007f800000
00007f800000
0000ffc00000
0001fff80000
0003e1fc0000
0007c1fe0000
000fc1fe0000
001fc0ff0000
001fc0ff0000
003fc0ff0000
003fc1fe0000
003fc1fe0000
003fc1fc0000
003fc3fc0000
003fc3f80000
003fc7e00000
003fdf800000
003ffc000000
003fc0000000
001fe0000000
001fe0000000
001fe0000000
001fe0000000
000ff0000000
000ff0000000
000ff0000000
000ff0000000
000ff03ffc00
001ffffc7f00
01f800f83f00
3fe001f81f80
7fc001f81f80
3fc001f81f80
3fc001f83f80
7f8000ffff00
ff00007ffe00
7e0000183c00
ENDCHAR
STARTCHAR D
ENCODING 253
SWIDTH 838 0
DWIDTH 49 0
BBX 46 46 0 0
BITMAP
000000000000
000000000000
000000000000
000000000000
000007800000
00007f800000
00007f800000
00007f800000
00007f800000
00007f800000
00007f800000
0000ffc00000
0001fff80000
0003e1fc0000
0007c1fe0000
000fc1fe0000
001fc0ff0000
001fc0fffff8
003fc0ff0ff0
003fc1fe0ff0
003fc1fe07f8
003fc1fc07f8
003fc3fc03fc
003fc3f800f0
003fc7e00000
003fdf800000
003ffc000000
003fc0000000
001fe0000000
001fe0000000
001fe0000000
001fe0000000
000ff0000000
000ff0000000
000ff0000000
000ff0000000
000ff0030000
001ffffff000
01f8001fe000
3fe0001fe000
7fc0000ff000
3fc0000ff800
3fc00007f800
7f800001e000
ff0000000000
7e0000000000
ENDCHAR
STARTCHAR Do
ENCODING 254
SWIDTH 804 0
DWIDTH 47 0
BBX 44 47 0 0
BITMAP
000000000000
000000000000
000000000000
000000000000
000000f00000
00000ff00000
00000ff00000
00000ff00000
00001fe00000
00001fe00000
00001fe00000
00001ffc0000
0000ffff0000
0001fc3f8000
0003f83fc000
0007f01fe000
000ff01fe000
000fe01fe000
001fe01fe000
001fe03fc000
001fe03fc000
001fe07f8000
001fe0ff0000
001fe1fe0000
000ffff80000
000fffe00000
000ff8000000
0007f8000000
0007f8000000
0003fc000000
0007ffc00000
003ffffe0000
00fc007fffc0
03f800003fc0
07f000003fc0
0fe000003fc0
1fc000001fe0
1fc000001ff0
3f80000007e0
7f8000000000
7f8000000000
7f8000000000
7f8000000000
ff0000000000
ff0000000000
7f8000000000
7fc000000000
ENDCHAR
STARTCHAR DWa
ENCODING 255
SWIDTH 907 0
DWIDTH 53 0
BBX 49 49 1 -5
BITMAP
000001e0000000
00001fe0000000
00001fe0000000
00001fe0000000
00003fc0000000
00003fc0000000
00003fc0000000
00003fc0000000
00007fc0000000
0001fff0000000
0007e7f8000000
000f83fc000000
001f81fe000000
003f01fe000000
007f01fe000000
00ff01fe000000
00fe03fc000000
00fe03fc000000
01fe03f8000000
01fe07f8000000
01fe0ff0000000
01fe1fc0000000
01fe3f80000000
01fffe00000000
01fff000000000
00ff0000000000
00ff0000000000
007f8000000000
007f8000000000
003fc000000000
003fc000000000
001fe000000000
001fe000000000
000ff000000000
000ffffe000000
01ffffff000000
3fc001ff000000
7fc000ff000000
3fc000ff000000
3fc0007f800000
7f80003f8ffe00
ff007ffff1fe00
7e03fe0001fe00
0003fe0001fe00
0001fc0000ff00
0003fc00007f80
0007f800003f00
0007f000000000
0003e000000000
ENDCHAR
STARTCHAR je
ENCODING 256
SWIDTH 753 0
DWIDTH 44 0
BBX 42 46 1 0
BITMAP
000000001f00
000000007e00
00000000fe00
0fe00001fe00
1ff0007ffe00
0fffffffff00
07ffff81ff80
07f07f80ffc0
0fe07f801c00
0fc07f800000
1e007f800000
0000ffc00000
0001fff80000
0003e1fc0000
0007c1fe0000
000fc1fe0000
001fc0ff0000
001fc0ff0000
003fc0ff0000
003fc1fe0000
003fc1fe0000
003fc1fc0000
003fc3fc0000
003fc3f80000
003fc7e00000
003fdf800000
003ffc000000
003fc0000000
001fe0000000
001fe0000000
001fe0000000
001fe0000000
000ff0000000
000ff0000000
000ff0000000
000ff0000000
000ff0030000
001ffffff000
01f8001fe000
3fe0001fe000
7fc0000ff000
3fc0000ff800
3fc00007f800
7f800001e000
ff0000000000
7e0000000000
ENDCHAR
STARTCHAR ju
ENCODING 257
SWIDTH 804 0
DWIDTH 47 0
BBX 46 48 -1 0
BITMAP
000000001e00
00000000fc00
00000001fc00
1fc00003fc00
3fe000fffe00
1ffffffffe00
0fffff83ff00
0fe07f81ff80
0fe0ff003c00
1f80ff000000
3e00ff000000
0000ffe00000
0007fff80000
000fe1fc0000
001fc1fe0000
003f80ff0000
007f80ff0000
007f00ff0000
00ff00ff0000
00ff01fe0000
00ff01fe0000
00ff03fc0000
00ff07f80000
00ff0ff00000
007fffc00000
007fff000000
007fc0000000
003fc0000000
003fc0000000
001fe0000000
000ffffc0000
000ffffe0000
001800ff0000
07e000ff0000
3fc000fffff8
3fc001fe0ff8
3fc001fe0ff0
3fc001fc07f8
7f8003fc07f8
ff0003fc03fc
7e0007f801f8
000007f80000
000007f00000
00000ff00000
00000ff00000
00000fe00000
00001ff00000
000008000000
ENDCHAR
STARTCHAR ji
ENCODING 258
SWIDTH 753 0
DWIDTH 44 0
BBX 45 50 -1 -3
BITMAP
000000001e00
00000000fc00
00000001fc00
1fc00003fc00
3fe000fffe00
1ffffffffe00
0fffff83ff00
0fe07f81ff80
0fe0ff003c00
1f80ff000000
3e00ff000000
0000ffe00000
0007fff80000
000fe1fc0000
001fc1fe0000
003f80ff0000
007f80ff0000
007f00ff0000
00ff00ff0000
00ff01fe0000
00ff01fe0000
00ff03fc0000
00ff07f80000
00ff0ff00000
007fffc00000
007fff000000
007fc0000000
003fc0000000
003fc0000000
001fe0000000
000ffffc0000
000ffffe0000
001800ff0000
07e000ff0000
3fc000fe0000
3fc001fe0000
3fc001fe0000
3fc001fc0000
7f8003fc0000
ff0003fc0000
7e0007f80000
000007f800c0
000007f00fc0
00000ff03f80
00000ff03f80
00000fe3ffc0
00001fffffc0
0000081c3fe0
000000003ff8
000000000fc0
ENDCHAR
STARTCHAR ja
ENCODING 259
SWIDTH 753 0
DWIDTH 44 0
BBX 41 48 0 0
BITMAP
000000001e00
00000000fc00
00000001fc00
1fc00003fc00
3fe000fffe00
1ffffffffe00
0fffff83ff00
0fe07f81ff80
0fe0ff003c00
1f80ff000000
3e00ff000000
0000ffe00000
0007fff80000
000fe1fc0000
001fc1fe0000
003f80ff0000
007f80ff0000
007f00ff0000
00ff00ff0000
00ff01fe0000
00ff01fe0000
00ff03fc0000
00ff07f80000
00ff0ff00000
007fffc00000
007fff000000
007fc0000000
003fc0000000
003fc0000000
001fe0000000
000ffffc0000
000ffffe0000
001800ff0000
07e000ff0000
3fc000fe0000
3fc001fe0000
3fc001fe0000
3fc001fc0000
7f8003fc0000
ff0003fc0000
7e0007f80000
000007f80000
000007f00000
00000ff00000
00000ff00000
00000fe00000
00001ff00000
000008000000
ENDCHAR
STARTCHAR jE
ENCODING 260
SWIDTH 753 0
DWIDTH 44 0
BBX 42 46 1 0
BITMAP
000000001f00
000000007e00
00000000fe00
0fe00001fe00
1ff0007ffe00
0fffffffff00
07ffff81ff80
07f07f80ffc0
0fe07f801c00
0fc07f800000
1e007f800000
0000ffc00000
0001fff80000
0003e1fc0000
0007c1fe0000
000fc1fe0000
001fc0ff0000
001fc0ff0000
003fc0ff0000
003fc1fe0000
003fc1fe0000
003fc1fc0000
003fc3fc0000
003fc3f80000
003fc7e00000
003fdf800000
003ffc000000
003fc0000000
001fe0000000
001fe0000000
001fe0000000
001fe0000000
000ff0000000
000ff0000000
000ff0000000
000ff0000000
000ff03ffc00
001ffffc7f00
01f800f83f00
3fe001f81f80
7fc001f81f80
3fc001f81f80
3fc001f83f80
7f8000ffff00
ff00007ffe00
7e0000183c00
ENDCHAR
STARTCHAR j
ENCODING 261
SWIDTH 838 0
DWIDTH 49 0
BBX 46 46 0 0
BITMAP
000000001f00
000000007e00
00000000fe00
0fe00001fe00
1ff0007ffe00
0fffffffff00
07ffff81ff80
07f07f80ffc0
0fe07f801c00
0fc07f800000
1e007f800000
0000ffc00000
0001fff80000
0003e1fc0000
0007c1fe0000
000fc1fe0000
001fc0ff0000
001fc0fffff8
003fc0ff0ff0
003fc1fe0ff0
003fc1fe07f8
003fc1fc07f8
003fc3fc03fc
003fc3f800f0
003fc7e00000
003fdf800000
003ffc000000
003fc0000000
001fe0000000
001fe0000000
001fe0000000
001fe0000000
000ff0000000
000ff0000000
000ff0000000
000ff0000000
000ff0030000
001ffffff000
01f8001fe000
3fe0001fe000
7fc0000ff000
3fc0000ff800
3fc00007f800
7f800001e000
ff0000000000
7e0000000000
ENDCHAR
STARTCHAR jo
ENCODING 262
SWIDTH 804 0
DWIDTH 47 0
BBX 44 47 0 0
BITMAP
0000000003c0
000000001f80
000000003f80
03f800007f80
07fc001fffc0
03ffffffffc0
01fffff07fe0
01fc0ff03ff0
01fc1fe00780
03f01fe00000
07c01fe00000
00001ffc0000
0000ffff0000
0001fc3f8000
0003f83fc000
0007f01fe000
000ff01fe000
000fe01fe000
001fe01fe000
001fe03fc000
001fe03fc000
001fe07f8000
001fe0ff0000
001fe1fe0000
000ffff80000
000fffe00000
000ff8000000
0007f8000000
0007f8000000
0003fc000000
0007ffc00000
003ffffe0000
00fc007fffc0
03f800003fc0
07f000003fc0
0fe000003fc0
1fc000001fe0
1fc000001ff0
3f80000007e0
7f8000000000
7f8000000000
7f8000000000
7f8000000000
ff0000000000
ff0000000000
7f8000000000
7fc000000000
ENDCHAR
STARTCHAR jWa
ENCODING 263
SWIDTH 907 0
DWIDTH 53 0
BBX 49 51 1 -5
BITMAP
000000000f8000
000000007e0000
00000000fe0000
0fe00001fe0000
1ff0007fff0000
0fffffffff0000
07ffffc1ff8000
07f03fc0ffc000
07f07f801e0000
0fc07f80000000
1f007f80000000
0001fff0000000
0007e7f8000000
000f83fc000000
001f81fe000000
003f01fe000000
007f01fe000000
00ff01fe000000
00fe03fc000000
00fe03fc000000
01fe03f8000000
01fe07f8000000
01fe0ff0000000
01fe1fc0000000
01fe3f80000000
01fffe00000000
01fff000000000
00ff0000000000
00ff0000000000
007f8000000000
007f8000000000
003fc000000000
003fc000000000
001fe000000000
001fe000000000
000ff000000000
000ffffe000000
01ffffff000000
3fc001ff000000
7fc000ff000000
3fc000ff000000
3fc0007f800000
7f80003f8ffe00
ff007ffff1fe00
7e03fe0001fe00
0003fe0001fe00
0001fc0000ff00
0003fc00007f80
0007f800003f00
0007f000000000
0003e000000000
ENDCHAR
STARTCHAR ge
ENCODING 264
SWIDTH 496 0
DWIDTH 29 0
BBX 25 35 1 0
BITMAP
000bf800
03fffc00
3fc1fe00
3fc0ff00
3fc0ff00
3fc0ff00
7f807f80
ff007f80
7e007f80
0000ff00
0000ff00
0000ff00
0000ff00
0000ff00
0000ff00
0001fe00
0001fe00
0001fe00
0001fe00
0001fe00
0003fc00
0003fc00
0003fc00
0003fc00
0003fc00
0007f800
0007f800
0007f800
0007f800
0007f800
000ff000
000ff000
000ff000
0007f800
0007fc00
ENDCHAR
STARTCHAR gu
ENCODING 265
SWIDTH 718 0
DWIDTH 42 0
BBX 38 35 1 0
BITMAP
000bf80000
03fffc0000
3fc1fe0000
3fc0ff0000
3fc0ff0000
3fc0ff0000
7f807f8000
ff007f8000
7e007f8000
0000ff0000
0000ff0000
0000ff0000
0000ff0000
0000ff0000
0000ff0000
0001fe0000
0001fe0000
0001fe0ff0
0001fffff8
0001fe0ff0
0003fc0ff0
0003fc07f8
0003fc07fc
0003fc01f8
0003fc0000
0007f80000
0007f80000
0007f80000
0007f80000
0007f80000
000ff00000
000ff00000
000ff00000
0007f80000
0007fc0000
ENDCHAR
STARTCHAR gi
ENCODING 266
SWIDTH 718 0
DWIDTH 42 0
BBX 38 38 1 -3
BITMAP
000bf80000
03fffc0000
3fc1fe0000
3fc0ff0000
3fc0ff0000
3fc0ff0000
7f807f8000
ff007f8000
7e007f8000
0000ff0000
0000ff0000
0000ff0000
0000ff0000
0000ff0000
0000ff0000
0001fe0000
0001fe0000
0001fe0000
0001fe0000
0001fe0000
0003fc0000
0003fc0000
0003fc0000
0003fc0000
0003fc0000
0007f80000
0007f80000
0007f80000
0007f80000
0007f800f8
000ff007e0
000ff00fe0
000ff01fe0
0007fbfff0
0007fffff0
0000000ff8
0000000ffc
00000003f0
ENDCHAR
STARTCHAR ga
ENCODING 267
SWIDTH 650 0
DWIDTH 38 0
BBX 34 36 1 -1
BITMAP
003ffffc00
003fc7fe00
003fc0ff00
003fc07f80
007f807f80
00ff807f80
007e003fc0
0000003fc0
0000003fc0
0000003fc0
0000003fc0
0000003fc0
0000003fc0
0000003fc0
0000003fc0
0000003fc0
0000003fc0
0000003fc0
0000003f80
0000007f80
0000007f80
0000007f80
000000ff00
000000ff00
000001fe00
000003fc00
00000ff800
00003fe000
3f0fff0000
7fff000000
7f80000000
7f80000000
7f80000000
ff00000000
fe00000000
3800000000
ENDCHAR
STARTCHAR gE
ENCODING 268
SWIDTH 650 0
DWIDTH 38 0
BBX 34 35 1 0
BITMAP
000bf80000
03fffc0000
3fc1fe0000
3fc0ff0000
3fc0ff0000
3fc0ff0000
7f807f8000
ff007f8000
7e007f8000
0000ff0000
0000ff0000
0000ff0000
0000ff0000
0000ff0000
0000ff0000
0001fe0000
0001fe0000
0001fe0000
0001fe0000
0001fe0000
0003fc0000
0003fc0000
0003fc0000
0003fc0000
0003fc0000
0007ff8000
0007fffc00
0007f8ff00
0007f83f80
0007f83fc0
000ff03fc0
000ff03fc0
000ff03f80
0007ffff00
0007fffc00
ENDCHAR
STARTCHAR g
ENCODING 269
SWIDTH 616 0
DWIDTH 36 0
BBX 32 35 2 0
BITMAP
00003ff0
003ffff8
1fff83fc
7f3fc1fe
7c1fc1fe
fc0fe1fe
fc0fe0ff
fc0fc0ff
fc1fc0ff
fe3f81fe
ffff81fe
7ffe01fe
1e0001fe
000001fe
000001fe
000003fc
000003fc
000003fc
000003fc
000003fc
000007f8
000007f8
000007f8
000007f8
000007f8
00000ff0
00000ff0
00000ff0
00000ff0
00000ff0
00001fe0
00001fe0
00001fe0
00000ff0
00000ff8
ENDCHAR
STARTCHAR go
ENCODING 270
SWIDTH 564 0
DWIDTH 33 0
BBX 28 37 2 0
BITMAP
0001e000
001fe000
001fe000
001fe000
001fe000
001fe000
001fe000
001fe000
003fffc0
3fc01fe0
7fc01fe0
3fc00ff0
3f800ff0
7f801fe0
ff001fe0
fe001fe0
38001fe0
00001fe0
00003fc0
00003fc0
00003fc0
00003fc0
00003fc0
00007f80
00007f80
00007f80
00007f80
0000ff00
0000ff00
0000ff00
0000ff00
0000ff00
0001fe00
0001fe00
0001fe00
0000ff00
0000ff80
ENDCHAR
STARTCHAR gWe
ENCODING 272
SWIDTH 907 0
DWIDTH 53 0
BBX 49 35 1 0
BITMAP
000bf800000000
03fffc00000000
3fc1fe00000000
3fc0ff00000000
3fc0ff00000000
3fc0ff00000000
7f807f80000000
ff007f80000000
7e007f80000000
0000ff00000000
0000ff00000000
0000ff00000000
0000ff00000000
0000ff00000000
0000ff01fffc00
0001ffffffff00
0001fe07f0ff00
0001fe0fe07f80
0001fe0fe03f80
0001fe0fe03f80
0003fc0fe03f80
0003fc0fe07f80
0003fc07f0ff00
0003fc07fffe00
0003fc01fffc00
0007f800000000
0007f800000000
0007f800000000
0007f800000000
0007f800000000
000ff000000000
000ff000000000
000ff000000000
0007f800000000
0007fc00000000
ENDCHAR
STARTCHAR gWi
ENCODING 274
SWIDTH 958 0
DWIDTH 56 0
BBX 52 35 1 0
BITMAP
000bf800000000
03fffc00000000
3fc1fe00000000
3fc0ff00000000
3fc0ff00000000
3fc0ff00000000
7f807f80000000
ff007f83fe0000
7e007f81fe0000
0000ff01fe0000
0000ff01fe0000
0000ff01fe0000
0000ff01fe0000
0000fffdfe0000
0000fffffe0000
0001fe03fc0000
0001fe03fc0000
0001fe03fc0000
0001fe03fc0000
0001fe03ffdf80
0003fc00003fe0
0003fc00003fc0
0003fc00003fc0
0003fc00001fe0
0003fc00001ff0
0007f8000007e0
0007f800000180
0007f800000000
0007f800000000
0007f800000000
000ff000000000
000ff000000000
000ff000000000
0007f800000000
0007fc00000000
ENDCHAR
STARTCHAR gWa
ENCODING 275
SWIDTH 581 0
DWIDTH 34 0
BBX 32 35 0 0
BITMAP
000dfe00
0ff7ff00
3fc07f80
3fc03fc0
3fc03fc0
3fc03fc0
7f803fc0
7f007f80
3c007f80
00007f80
0000ff00
0000ff00
0001fe00
0001fe00
0003fc00
000ffffc
00f001fe
07e000ff
3fe000ff
3fe001fe
3fc001fe
3fc001fe
7f8003fc
ff0003fc
7e0003fc
080007f8
000007f8
000007f8
00000ff0
00000ff0
00000ff0
00001fe0
00001fe0
00000ff0
000007f8
ENDCHAR
STARTCHAR gWE
ENCODING 276
SWIDTH 753 0
DWIDTH 44 0
BBX 40 40 0 -5
BITMAP
00000dfc00
000ff7fe00
00ff80ff00
00ff807f80
00ff007f80
00ff003fc0
01fe003fc0
03fe003fc0
00f8007f80
0000007f80
000000ff80
000000ff00
000000ff00
000001fe00
000001fe00
000003fe00
000003fc00
000007fc00
000007fc00
000007f800
00000ff800
00000ffff0
00001ff7fc
00001ff0fe
00001fe0ff
00003fe0ff
00003fe0ff
00007fc0fe
00007fc3fc
0001fffff0
001e007f00
03e0000000
1fc0000000
7fc0000000
3fc0000000
3fc0000000
7f80000000
ff00000000
fe00000000
3c00000000
ENDCHAR
STARTCHAR gW
ENCODING 277
SWIDTH 872 0
DWIDTH 51 0
BBX 47 35 1 0
BITMAP
000bf8000000
03fffc000000
3fc1fe000000
3fc0ff000000
3fc0ff000000
3fc0ff03fc00
7f807f83fc00
ff007f83fc00
7e007f83fc00
0000ff03fc00
0000ff03fc00
0000ff03fc00
0000ff03fc00
0000fffffc00
0000fffffff8
0001fe000ff8
0001fe0007f8
0001fe0007f8
0001fe0003fc
0001fe0003fe
0003fc0000f8
0003fc000000
0003fc000000
0003fc000000
0003fc000000
0007f8000000
0007f8000000
0007f8000000
0007f8000000
0007f8000000
000ff0000000
000ff0000000
000ff0000000
0007f8000000
0007fc000000
ENDCHAR
STARTCHAR Ge
ENCODING 280
SWIDTH 496 0
DWIDTH 29 0
BBX 44 46 1 0
BITMAP
00000000f800
00000003f000
00000007f000
7f00000ff000
ff8003fff000
7ffffffff800
3ffffc0ffc00
3f800007fe00
7f000000e000
7e0000000000
f00000000000
00005fc00000
001fffe00000
01fe0ff00000
01fe07f80000
01fe07f80000
01fe07f80000
03fc03fc0000
07f803fc0000
03f003fc0000
000007f80000
000007f80000
000007f80000
000007f80000
000007f80000
000007f80000
00000ff00000
00000ff00000
00000ff00000
00000ff00000
00000ff00000
00001fe00000
00001fe00000
00001fe00000
00001fe00000
00001fe00000
00003fc00000
00003fc00000
00003fc00000
00003fc00000
00003fc00000
00007f800000
00007f800000
00007f800000
00003fc00000
00003fe00000
ENDCHAR
STARTCHAR Gu
ENCODING 281
SWIDTH 718 0
DWIDTH 42 0
BBX 46 46 1 0
BITMAP
00000000f800
00000003f000
00000007f000
7f00000ff000
ff8003fff000
7ffffffff800
3ffffc0ffc00
3f800007fe00
7f000000e000
7e0000000000
f00000000000
00005fc00000
001fffe00000
01fe0ff00000
01fe07f80000
01fe07f80000
01fe07f80000
03fc03fc0000
07f803fc0000
03f003fc0000
000007f80000
000007f80000
000007f80000
000007f80000
000007f80000
000007f80000
00000ff00000
00000ff00000
00000ff07f80
00000fffffc0
00000ff07f80
00001fe07f80
00001fe03fc0
00001fe03fe0
00001fe00fc0
00001fe00000
00003fc00000
00003fc00000
00003fc00000
00003fc00000
00003fc00000
00007f800000
00007f800000
00007f800000
00003fc00000
00003fe00000
ENDCHAR
STARTCHAR Gi
ENCODING 282
SWIDTH 718 0
DWIDTH 42 0
BBX 43 49 1 -3
BITMAP
00000000f800
00000003f000
00000007f000
7f00000ff000
ff8003fff000
7ffffffff800
3ffffc0ffc00
3f800007fe00
7f000000e000
7e0000000000
f00000000000
00005fc00000
001fffe00000
01fe0ff00000
01fe07f80000
01fe07f80000
01fe07f80000
03fc03fc0000
07f803fc0000
03f003fc0000
000007f80000
000007f80000
000007f80000
000007f80000
000007f80000
000007f80000
00000ff00000
00000ff00000
00000ff00000
00000ff00000
00000ff00000
00001fe00000
00001fe00000
00001fe00000
00001fe00000
00001fe00000
00003fc00000
00003fc00000
00003fc00000
00003fc00000
00003fc00fc0
00007f803f00
00007f807f00
00007f80ff00
00003fdfff80
00003fffff80
00000000ffc0
000000007fe0
000000001f80
ENDCHAR
STARTCHAR Ga
ENCODING 283
SWIDTH 650 0
DWIDTH 38 0
BBX 44 48 1 -1
BITMAP
000000001f00
000000007e00
00000000fe00
0fe00001fe00
1ff0007ffe00
0fffffffff00
07ffff81ff80
07f00000ffc0
0fe000001c00
0fc000000000
1f0000000000
000000000000
003ffffc0000
003fc7fe0000
003fc0ff0000
003fc07f8000
007f807f8000
00ff807f8000
007e003fc000
0000003fc000
0000003fc000
0000003fc000
0000003fc000
0000003fc000
0000003fc000
0000003fc000
0000003fc000
0000003fc000
0000003fc000
0000003fc000
0000003f8000
0000007f8000
0000007f8000
0000007f8000
000000ff0000
000000ff0000
000001fe0000
000003fc0000
00000ff80000
00003fe00000
3f0fff000000
7fff00000000
7f8000000000
7f8000000000
7f8000000000
ff0000000000
fe0000000000
380000000000
ENDCHAR
STARTCHAR GE
ENCODING 284
SWIDTH 650 0
DWIDTH 38 0
BBX 39 46 1 0
BITMAP
00000000f800
00000003f000
00000007f000
7f00000ff000
ff8003fff000
7ffffffff800
3ffffc0ffc00
3f800007fe00
7f000000e000
7e0000000000
f00000000000
00005fc00000
001fffe00000
01fe0ff00000
01fe07f80000
01fe07f80000
01fe07f80000
03fc03fc0000
07f803fc0000
03f003fc0000
000007f80000
000007f80000
000007f80000
000007f80000
000007f80000
000007f80000
00000ff00000
00000ff00000
00000ff00000
00000ff00000
00000ff00000
00001fe00000
00001fe00000
00001fe00000
00001fe00000
00001fe00000
00003ffc0000
00003fffe000
00003fc7f800
00003fc3fc00
00003fc3fe00
00007f83fe00
00007f83fe00
00007f83fc00
00003ffff800
00003fffe000
ENDCHAR
STARTCHAR G
ENCODING 285
SWIDTH 616 0
DWIDTH 36 0
BBX 40 46 1 0
BITMAP
000000007c
00000001f8
00000003f8
7f000007f8
ff8003fff8
7ffffffffc
3ffffc07fe
3f800003ff
7f00000070
7e00000000
f000000000
00001ff800
001ffffc00
0fffc1fe00
3f9fe0ff00
3e0fe0ff00
7e07f0ff00
7e07f07f80
7e07e07f80
7e0fe07f80
7f1fc0ff00
7fffc0ff00
3fff00ff00
0f0000ff00
000000ff00
000000ff00
000001fe00
000001fe00
000001fe00
000001fe00
000001fe00
000003fc00
000003fc00
000003fc00
000003fc00
000003fc00
000007f800
000007f800
000007f800
000007f800
000007f800
000007f000
00000ff000
00000ff000
000007f800
000007fc00
ENDCHAR
STARTCHAR Go
ENCODING 286
SWIDTH 564 0
DWIDTH 33 0
BBX 39 48 2 0
BITMAP
000000000000
000000000000
000000000000
000000000000
000000000000
00000000f800
00000003f000
00000007f000
7e00000ff000
ff0003fff000
7ffffffff800
3ffffe0ffc00
3f81fe07fe00
7f01fe00e000
7e01fe000000
f001fe000000
0001fe000000
0001fe000000
0001fe000000
0003fffc0000
03fc01fe0000
07fc01fe0000
03fc00ff0000
03f800ff0000
07f801fe0000
0ff001fe0000
0fe001fe0000
038001fe0000
000001fe0000
000003fc0000
000003fc0000
000003fc0000
000003fc0000
000003fc0000
000007f80000
000007f80000
000007f80000
000007f80000
00000ff00000
00000ff00000
00000ff00000
00000ff00000
00000ff00000
00001fe00000
00001fe00000
00001fe00000
00000ff00000
00000ff80000
ENDCHAR
STARTCHAR GWa
ENCODING 287
SWIDTH 581 0
DWIDTH 43 0
BBX 37 45 0 0
BITMAP
fc000001f800
fe000007f800
7f00000ff000
7f80000fe000
7fc0001fe000
7ffe07fff000
7ffffffff000
0003fc000000
0003fc000000
0003fc000000
000ffe000000
00fffff00000
03fc07f80000
03fc03fc0000
03fc03fc0000
03fc03fc0000
07f803fc0000
07f007f80000
03c007f80000
000007f80000
00000ff00000
00000ff00000
00001fe00000
00001fe00000
00003fc00000
0000ffffc000
000f001fe000
007e000ff000
03fe000ff000
03fe001fe000
03fc001fe000
03fc001fe000
07f8003fc000
0ff0003fc000
07e0003fc000
0080007f8000
0000007f8000
0000007f8000
000000ff0000
000000ff0000
000000ff0000
000001fe0000
000001fe0000
000000ff0000
0000007f8000
ENDCHAR
STARTCHAR Te
ENCODING 288
SWIDTH 872 0
DWIDTH 51 0
BBX 43 27 4 0
BITMAP
0000001fc000
0001dffff000
001ffffffc00
007f7ffffe00
00fc7f81ff00
01f87f80ff00
03f07f807f80
07e07f807f80
0fe07f807f80
1fc07f807f80
1fc07f807f80
3fc07f807f80
3f807f807f80
7f807f807f80
7f807f807f80
7f807f807f80
ff807f807f80
ff007f807f80
ff007f807f80
ff007f807f80
ff007f807f80
ff007f807f80
ff007f807f80
ff007f807f80
ff007f807f80
ff807fc03fc0
7fc03fc03fe0
ENDCHAR
STARTCHAR Tu
ENCODING 289
SWIDTH 1095 0
DWIDTH 64 0
BBX 58 27 4 0
BITMAP
0000001fc0000000
0001dffff0000000
001ffffffc000000
007f7ffffe000000
00fc7f81ff000000
01f87f80ff000000
03f07f807f800000
07e07f807f800f00
0fe07f807f807e00
1fc07f807f80fc00
1fc07f807f81fe00
3fc07f807fbffe00
3f807f807fffff00
7f807f807fc1ff80
7f807f807f80ffc0
7f807f807f807e00
ff807f807f800000
ff007f807f800000
ff007f807f800000
ff007f807f800000
ff007f807f800000
ff007f807f800000
ff007f807f800000
ff007f807f800000
ff007f807f800000
ff807fc03fc00000
7fc03fc03fe00000
ENDCHAR
STARTCHAR Ti
ENCODING 290
SWIDTH 1095 0
DWIDTH 64 0
BBX 56 30 4 -3
BITMAP
0000000f800000
0001dffff00000
001ffffff80000
007f7ffffc0000
00fc7f83fe0000
01f87f80ff0000
03f07f807f8000
07e07f807f8000
0fe07f807f8000
1fc07f807f8000
1fc07f807f8000
3fc07f807f8000
3f807f807f8000
7f807f807f8000
7f807f807f8000
7f807f807f8000
ff807f807f8000
ff007f807f8000
ff007f807f8000
ff007f807f8000
ff007f807f8000
ff007f807f803c
ff007f807f81f8
ff007f807f87f0
ff007f807f87f8
ff807fc07ffff8
7fc03fc03ffffc
000000000007fe
000000000003ff
000000000000f8
ENDCHAR
STARTCHAR Ta
ENCODING 291
SWIDTH 872 0
DWIDTH 51 0
BBX 42 33 4 0
BITMAP
0003ffffe000
003ffffffc00
00ff3fc3fe00
03f87f80ff00
07f07f807f80
1fe07f807fc0
1fc07f803fc0
3f807f803fc0
7f807f003fc0
7f80ff003fc0
ff00ff003fc0
ff00ff007f80
ff00ff007f80
ff00ff007f80
ff01fe007f80
ff01fe007f80
ff01fe007f80
ff01ff00ff00
7fc0ff80ff00
00000000ff00
00000000ff00
00000000ff00
00000000ff00
00000001fe00
00000001fe00
00000001fe00
00000001fe00
00000001fe00
00000001fe00
00000003fc00
00000003fc00
00000001fe00
00000001ff00
ENDCHAR
STARTCHAR TE
ENCODING 292
SWIDTH 1061 0
DWIDTH 62 0
BBX 55 27 4 0
BITMAP
0000000f800000
0001dffff00000
001ffffff80000
007f7ffffc0000
00fc7f83fe0000
01f87f80ff0000
03f07f807f8000
07e07f807f8000
0fe07f807f8000
1fc07f807f8000
1fc07f807f8000
3fc07f807f8000
3f807f807f8000
7f807f807f8000
7f807f807f8000
7f807f807f8000
ff807f807f8000
ff007f807ffc00
ff007f807fffe0
ff007f807f87f8
ff007f807f81fc
ff007f807f81fe
ff007f807f81fe
ff007f807f81fe
ff007f807f81fc
ff807fc07ffff8
7fc03fc03fffe0
ENDCHAR
STARTCHAR T
ENCODING 293
SWIDTH 804 0
DWIDTH 47 0
BBX 39 33 4 0
BITMAP
001fffe000
00fffffc00
03f9fe7f00
0fe1fe1fc0
1fc1fe0fe0
3f81fe07f0
7f01fe03f8
7f01fe03f8
ff01fe03fc
ff03fc03fc
ff03fc03fc
ff03ffc3fc
ff003fc1fe
ff003fc1fe
00003fc000
00003fc000
00007f8000
00007f8000
00007f8000
00007f8000
00007f8000
0000ff0000
0000ff0000
0000ff0000
0000ff0000
0000ff0000
0001fe0000
0001fe0000
0001fe0000
0001fe0000
0001fe0000
0001fe0000
0001fe0000
ENDCHAR
STARTCHAR To
ENCODING 294
SWIDTH 872 0
DWIDTH 51 0
BBX 43 31 4 -1
BITMAP
000001fc0000
0007ffffe000
003fff9ff800
007c7f83fe00
00f87f81ff00
01f07f80ff00
03e07f807f80
07e07f807f80
0fc07f807f80
0fc07f807f80
1f807f007f80
1f80ff007f80
3f80ff007f80
3f80ff007f80
7f80ff007f80
7f00ff007f80
7f00ff007f80
7f00ff007f80
7f00ff007f80
ff00ff007fc0
ff007fc03fe0
ff003c000000
ff0000000000
ff0000000000
ff0000000000
ff0000000000
ff0000000000
ff0000000000
ff0000000000
ff8000000000
7fc000000000
ENDCHAR
STARTCHAR TWa
ENCODING 295
SWIDTH 1095 0
DWIDTH 64 0
BBX 57 32 4 -7
BITMAP
0000001fe0000000
0003fffff8000000
003ffffffc000000
00fe7f87fe000000
01f87f81ff000000
03f07f80ff800000
07e07f807f800000
0fe07f807f800000
1fc07f807f800000
3fc07f807f800000
3f807f807f800000
7f807f807f800000
7f807f807f800000
7f807f807f800000
ff807f807f800000
ff007f807f800000
ff007f807f800000
ff007f807f800000
ff007f807f800000
ff007f807f800000
ff007f807f800000
ff007f807f800000
ff803fe07f800000
400000003fc1fe00
00000001fffffe00
000001fe0001fe00
000003fe0001fe00
000001fe0000ff00
000003fc0000ff80
000003fc00007f00
000007f800000c00
000003f000000000
ENDCHAR
STARTCHAR Ce
ENCODING 296
SWIDTH 1146 0
DWIDTH 67 0
BBX 60 28 4 0
BITMAP
00000000ff000000
00000003ffc00000
00003bfffff00000
0007fffffff80000
001fe7f80ffc0000
007f07f003fe0000
00fe07f001ff0000
03f807f000ff0000
07f007f000ff0000
0ff007f000ff0000
1fe007f000ff0000
1fc007f000ff0000
3fc007f000ff0000
3fc007f000ff0000
7f8007f000ff0000
7f8007f000ff0000
7f8007f000ff0000
ffc007f000ff0000
ffff07fff0ffff00
ff3f87f3fcff3fc0
ff0fc7f07eff07e0
ff0fe7f07eff07e0
ff0fe7f07fff07f0
ff0fe7f07fff07f0
ff0fe7f87eff07e0
ff0fc7f87eff07e0
ffff87fbfc7fbfc0
7fff07fff07fff00
ENDCHAR
STARTCHAR Cu
ENCODING 297
SWIDTH 1215 0
DWIDTH 71 0
BBX 64 28 4 0
BITMAP
00000000ff000000
00000003ffc00000
00003bfffff00000
0007fffffff80000
001fe7f80ffc0000
007f07f003fe0000
00fe07f001ff0000
03f807f000ff0000
07f007f000ff0000
0ff007f000fffffc
1fe007f000ff01fe
1fc007f000ff01fe
3fc007f000ff01fe
3fc007f000ff01fe
7f8007f000ff00ff
7f8007f000ff007f
7f8007f000ff000c
ffc007f000ff0000
ffff07fff0ffff00
ff3f87f3fcff3fc0
ff0fc7f07eff07e0
ff0fe7f07eff07e0
ff0fe7f07fff07f0
ff0fe7f07fff07f0
ff0fe7f87eff07e0
ff0fc7f87eff07e0
ffff87fbfc7fbfc0
7fff07fff07fff00
ENDCHAR
STARTCHAR Ci
ENCODING 298
SWIDTH 1215 0
DWIDTH 71 0
BBX 63 34 4 -6
BITMAP
00000000ff000000
00000003ffc00000
00003bfffff00000
0007fffffff80000
001fe7f80ffc0000
007f07f003fe0000
00fe07f001ff0000
03f807f000ff0000
07f007f000ff0000
0ff007f000ff0000
1fe007f000ff0000
1fc007f000ff0000
3fc007f000ff0000
3fc007f000ff0000
7f8007f000ff0000
7f8007f000ff0000
7f8007f000ff0000
ffc007f000ff0000
ffff07fff0ff0000
ff3f87f3fcff0000
ff0fc7f07eff0000
ff0fe7f07eff0000
ff0fe7f07fff0000
ff0fe7f07fff0000
ff0fe7f87eff0000
ff0fc7f87eff0000
ffff87fbfc7f8000
7fff07fff07ffff8
00000000000007f8
00000000000007f8
00000000000007f8
00000000000003fc
00000000000001fe
00000000000000fc
ENDCHAR
STARTCHAR Ca
ENCODING 299
SWIDTH 1112 0
DWIDTH 65 0
BBX 58 33 3 0
BITMAP
0000ffffffe00000
001ffffffffc0000
007fe3fc07fe0000
03ff03fc01ff0000
07f803fc007f8000
0ff003f8007fc000
1fe007f8003fc000
3fc007f8003fc000
7f8007f8003fc000
7ffc07ffe03fc000
ffff07fff83fc000
ff1f8ff0fc7f8000
ff1fcff0fe7f8000
ff1fcff0fe7f8000
ff1fcff0fe7f8000
ff1fcff0fe7f8000
ff1fcff0fc7f8000
ff3f8ff3f8ff0000
fffe07ffe0ff0000
00e0000e00ff0000
0000000000ff0000
0000000000ff0000
0000000000ff0000
0000000001fffc00
0000000001feff00
0000000001fe3f80
0000000001fe1f80
0000000001fe1fc0
0000000001fe1fc0
0000000003fc1f80
0000000003fc3f80
0000000001feff00
0000000001fffc00
ENDCHAR
STARTCHAR CE
ENCODING 300
SWIDTH 1146 0
DWIDTH 67 0
BBX 60 28 4 0
BITMAP
00000000ff000000
00000003ffc00000
00003bfffff00000
0007fffffff80000
001fe7f80ffc0000
007f07f003fe0000
00fe07f001ff0000
03f807f000ff0000
07f007f000ff0000
0ff007f000ff0000
1fe007f000ff0000
1fc007f000ff0000
3fc007f000ff0000
3fc007f000ff0000
7f8007f000ff0000
7f8007f000ff0000
7f8007f000ff0000
ffc007f000ff0000
ffff07fff0ffff00
ff3f87f3fcff3fc0
ff0fc7f07eff07e0
ff0fe7f07eff07e0
ff0fe7f07fff07f0
ff0fe7f07fff07f0
ff0fe7f87eff07e0
ff0fc7f87eff07e0
ffff87fbfc7fbfc0
7fff07fff07fff00
ENDCHAR
STARTCHAR C
ENCODING 301
SWIDTH 1112 0
DWIDTH 65 0
BBX 60 33 2 0
BITMAP
0000fffff8000000
001fffffff800000
00ffc0ff1fe00000
03fc00ff03f80000
0ff000ff01fc0000
1fc000ff00fe0000
3f8000ff007f0000
7ff000ff007ff800
fffe00ff003fff00
ff3f81fe003fcfc0
ff1fc1fe003fc7e0
ff1fc1ffe03fc7e0
ff1fc01fe03fc7f0
ff1fc01fe03fc7f0
ff1fc01fe03fc7e0
ff1f801fe03fcfc0
ffff003fc03fff80
fffc003fc03ffe00
0000003fc0000000
0000003fc0000000
0000003fc0000000
0000007f80000000
0000007f80000000
0000007ffe000000
0000007fff000000
0000007f9f800000
000000ff1fc00000
000000ff1fc00000
000000ff1fc00000
000000ff1fc00000
000000ff1f800000
000000ff7f000000
000000fffe000000
ENDCHAR
STARTCHAR Co
ENCODING 302
SWIDTH 1112 0
DWIDTH 65 0
BBX 59 31 4 -1
BITMAP
0000001ffc000000
0001ffffffe00000
000ffff0fff80000
001f8ff00ffc0000
007e0ff003fe0000
00f80ff001fe0000
01f00ff000ff0000
03f00ff000ff0000
07e00ff000ff0000
0fe00ff000ff0000
0fc00ff000ff4000
1fc00fffc0ffff00
1f800ffff0ff3f80
3f800ff1f8ff0fc0
3f800ff0fcff0fe0
7f800ff0feff0fe0
7f000ff0feff0fe0
7f000ff0feff0fe0
7f000ff0fcff0fc0
ff000ff1f8ffff80
ff400ffff07fff00
ffff07bfc0000000
ff3f800000000000
ff0fc00000000000
ff0fe00000000000
ff0fe00000000000
ff0fe00000000000
ff0fe00000000000
ff0fc00000000000
ffff800000000000
7fff000000000000
ENDCHAR
STARTCHAR CWa
ENCODING 303
SWIDTH 1198 0
DWIDTH 70 0
BBX 64 35 4 -9
BITMAP
00000000ff800000
00000003ffe00000
0000fffffff00000
000fffff7ff80000
007fc7f007fc0000
00fe07f003fe0000
03fc07f001ff0000
07f807f000ff0000
0ff007f000ff0000
1fe007f000ff0000
3fc007f000ff0000
3fc007f000ff0000
7f8007f000ff0000
7f8007f000ff0000
7fff07fff0ff0000
ff7fc7f7fcff0000
ff07e7f07eff0000
ff07f7f03fff0000
ff07f7f03fff0000
ff07f7f03fff0000
ff07f7f03fff0000
ff07e7f83fff0000
ff0fc7f87eff0000
ffff83fff8ff0000
707c0007c0ff0000
0000000000ff0000
00000000007fcffc
0000000007fff3fc
00000003fc0003fc
00000007fc0003fc
00000003fc0001fe
00000003f80000ff
00000007f800007c
0000000ff0000000
00000007e0000000
ENDCHAR
STARTCHAR Pe
ENCODING 304
SWIDTH 684 0
DWIDTH 40 0
BBX 32 38 2 0
BITMAP
000ff000
000ff000
000ff000
000ff000
000ff000
000ff000
007ffc00
01f83f80
07f01fc0
0ff00fe0
0fe00fe0
1fe00ff0
1fe00ff0
1fe00ff0
1fe01ff0
0fe03fe0
0ff07fc0
07f0ff80
01fbfe00
007ff800
003fe000
007fffc0
01fe0ff0
03fc07f8
07f807f8
0ff007f8
1fe007f8
3fc003fc
3fc003fc
7f8003fc
7f8003fc
ff0003fc
ff0001fe
ff0001fe
ff0001fe
ff0001fe
ff0001fe
7fc000ff
ENDCHAR
STARTCHAR Pu
ENCODING 305
SWIDTH 838 0
DWIDTH 49 0
BBX 43 38 2 0
BITMAP
000ff0000000
000ff0000000
000ff0000000
000ff0000000
000ff0000000
000ff0000000
007ffc000000
01f83f800000
07f01fc00000
0ff00fe00000
0fe00fe00000
1fe00ff00000
1fe00ff00000
1fe00ff00000
1fe01ff00000
0fe03fe00000
0ff07fc00000
07f0ff800000
01fbfe000000
007ff8000000
003fe0000000
007fffc00000
01fe0ff00000
03fc07f80f00
07f807ffffc0
0ff007f83fc0
1fe007f83fc0
3fc003fc3fc0
3fc003fc1fe0
7f8003fc0fe0
7f8003fc0380
ff0003fc0000
ff0001fe0000
ff0001fe0000
ff0001fe0000
ff0001fe0000
ff0001fe0000
7fc000ff0000
ENDCHAR
STARTCHAR Pi
ENCODING 306
SWIDTH 872 0
DWIDTH 51 0
BBX 46 41 2 -3
BITMAP
000ff0000000
000ff0000000
000ff0000000
000ff0000000
000ff0000000
000ff0000000
007ffc000000
01f83f800000
07f01fc00000
0ff00fe00000
0fe00fe00000
1fe00ff00000
1fe00ff00000
1fe00ff00000
1fe01ff00000
0fe03fe00000
0ff07fc00000
07f0ff800000
01fbfe000000
007ff8000000
003fe0000000
007fffc00000
01fe0ff00000
03fc07f80000
07f807f80000
0ff007f80000
1fe007f80000
3fc003fc0000
3fc003fc0000
7f8003fc0000
7f8003fc0000
ff0003fc0000
ff0001fe00f8
ff0001fe07e0
ff0001fe0fe0
ff0001fe1fe0
ff0001fffff0
7fc000fffff0
000000001ff8
000000000ffc
0000000003e0
ENDCHAR
STARTCHAR Pa
ENCODING 307
SWIDTH 684 0
DWIDTH 40 0
BBX 33 38 1 0
BITMAP
0007f80000
0007f80000
0007f80000
0007f80000
0007f80000
0007f80000
003ffe0000
00fc1f8000
03f80fe000
07f807f000
07f007f000
0ff007f800
0ff007f800
0ff007f800
0ff00ff800
07f00ff000
07f81ff000
03f83fe000
00fcff8000
003ffe0000
003ff00000
01ffffe000
07f807f800
1fe003fc00
3fc003fc00
7f8003fc00
7f0003fc00
ff0001fe00
ff0001fe00
ff0001fe00
7fc001fe00
000001fe00
000000ff00
000000ff00
000000ff00
000000ff00
000000ff00
0000007f80
ENDCHAR
STARTCHAR PE
ENCODING 308
SWIDTH 838 0
DWIDTH 49 0
BBX 43 38 2 0
BITMAP
000ff0000000
000ff0000000
000ff0000000
000ff0000000
000ff0000000
000ff0000000
007ffc000000
01f83f800000
07f01fc00000
0ff00fe00000
0fe00fe00000
1fe00ff00000
1fe00ff00000
1fe00ff00000
1fe01ff00000
0fe03fe00000
0ff07fc00000
07f0ff800000
01fbfe000000
007ff8000000
003fe0000000
007fffc00000
01fe0ff00000
03fc07f80000
07f807f80000
0ff007f80000
1fe007f80000
3fc003fc0000
3fc003ffc000
7f8003fffe00
7f8003fc7f80
ff0003fc3fc0
ff0001fe1fc0
ff0001fe1fe0
ff0001fe1fc0
ff0001fe3fc0
ff0001ffff00
7fc000fffc00
ENDCHAR
STARTCHAR P
ENCODING 309
SWIDTH 821 0
DWIDTH 48 0
BBX 42 38 3 0
BITMAP
001fe0000000
001fe0000000
001fe0000000
001fe0000000
001fe0000000
001fe0000000
00fffc000000
03f03f800000
0fe01fc00000
1fe00fe00000
1fc00ff00000
3fc00ff00000
3fc00fffff80
3fc00ff0ff80
3fc01fe07f80
1fc03fe07f80
1fe07fc07f80
0fe1ff803fc0
03f3fe001fc0
00fff8000000
003fe0000000
00ffffc00000
01fe0ff00000
03fc07f80000
07f007f80000
0ff007f80000
1fe007f80000
3fc007f80000
3fc003fc0000
7f8003fc0000
7f8003fc0000
ff0003fc0000
ff0001fe0000
ff0001fe0000
ff0001fe0000
ff0001fe0000
ff0001fe0000
7fc000ff0000
ENDCHAR
STARTCHAR Po
ENCODING 310
SWIDTH 616 0
DWIDTH 36 0
BBX 31 38 2 0
BITMAP
000ff000
000ff000
000ff000
000ff000
000ff000
000ff000
007ffc00
01f83f80
07f01fc0
0ff00fe0
0fe00fe0
1fe00ff0
1fe00ff0
1fe00ff0
1fe01ff0
0fe03fe0
0ff07fc0
07f0ff80
01fbfe00
007ff800
003fe000
007fffc0
01fe07f8
03fc03fc
07f803fc
0ff003fc
1fe003fc
3fc003fc
3fc003fc
7f8001fe
7f8001fe
ff000000
ff000000
ff000000
ff000000
ff000000
ff000000
7fc00000
ENDCHAR
STARTCHAR PWa
ENCODING 311
SWIDTH 684 0
DWIDTH 40 0
BBX 43 45 1 -5
BITMAP
0007f8000000
0007f8000000
0007f8000000
0007f8000000
0007f8000000
0007f8000000
003ffe000000
00fc1f800000
03f80fe00000
07f807f00000
07f007f00000
0ff007f80000
0ff007f80000
0ff007f80000
0ff00ff80000
07f00ff00000
07f81ff00000
03f83fe00000
00fcff800000
003ffe000000
003ff0000000
01ffffe00000
07f807f80000
1fe003fc0000
3fc003fc0000
7f8003fc0000
7f0003fc0000
ff0001fe0000
ff0001fe0000
ff0001fe0000
7fc001fe0000
000001fe0000
000000ff0000
000000ff0000
000000ff0000
000000ff0000
000000ff0000
0000007f8000
0000ffffffc0
0000fe003f80
0001fe003fc0
0001fc001fc0
0003fc001fe0
0007f8000fe0
0003e00003c0
ENDCHAR
STARTCHAR Se
ENCODING 312
SWIDTH 616 0
DWIDTH 36 0
BBX 32 32 2 0
BITMAP
007ffc00
01f83f80
07f01fc0
0ff00fe0
0fe00fe0
1fe00ff0
1fe00ff0
1fe00ff0
1fe01ff0
0fe03fe0
0ff07fc0
07f0ff80
01fbfe00
007ff800
003fe000
007fffc0
01fe0ff0
03fc07f8
07f807f8
0ff007f8
1fe007f8
3fc003fc
3fc003fc
7f8003fc
7f8003fc
ff0003fc
ff0001fe
ff0001fe
ff0001fe
ff0001fe
ff0001fe
7fc000ff
ENDCHAR
STARTCHAR Su
ENCODING 313
SWIDTH 838 0
DWIDTH 49 0
BBX 43 32 2 0
BITMAP
007ffc000000
01f83f800000
07f01fc00000
0ff00fe00000
0fe00fe00000
1fe00ff00000
1fe00ff00000
1fe00ff00000
1fe01ff00000
0fe03fe00000
0ff07fc00000
07f0ff800000
01fbfe000000
007ff8000000
003fe0000000
007fffc00000
01fe0ff00000
03fc07f80f00
07f807ffffc0
0ff007f83fc0
1fe007f83fc0
3fc003fc3fc0
3fc003fc1fe0
7f8003fc0fe0
7f8003fc0380
ff0003fc0000
ff0001fe0000
ff0001fe0000
ff0001fe0000
ff0001fe0000
ff0001fe0000
7fc000ff0000
ENDCHAR
STARTCHAR Si
ENCODING 314
SWIDTH 872 0
DWIDTH 51 0
BBX 46 35 2 -3
BITMAP
007ffc000000
01f83f800000
07f01fc00000
0ff00fe00000
0fe00fe00000
1fe00ff00000
1fe00ff00000
1fe00ff00000
1fe01ff00000
0fe03fe00000
0ff07fc00000
07f0ff800000
01fbfe000000
007ff8000000
003fe0000000
007fffc00000
01fe0ff00000
03fc07f80000
07f807f80000
0ff007f80000
1fe007f80000
3fc003fc0000
3fc003fc0000
7f8003fc0000
7f8003fc0000
ff0003fc0000
ff0001fe00f8
ff0001fe07e0
ff0001fe0fe0
ff0001fe1fe0
ff0001fffff0
7fc000fffff0
000000001ff8
000000000ffc
0000000003e0
ENDCHAR
STARTCHAR Sa
ENCODING 315
SWIDTH 616 0
DWIDTH 36 0
BBX 33 32 1 0
BITMAP
003ffe0000
00fc1f8000
03f80fe000
07f807f000
07f007f000
0ff007f800
0ff007f800
0ff007f800
0ff00ff800
07f00ff000
07f81ff000
03f83fe000
00fcff8000
003ffe0000
003ff00000
01ffffe000
07f807f800
1fe003fc00
3fc003fc00
7f8003fc00
7f0003fc00
ff0001fe00
ff0001fe00
ff0001fe00
7fc001fe00
000001fe00
000000ff00
000000ff00
000000ff00
000000ff00
000000ff00
0000007f80
ENDCHAR
STARTCHAR SE
ENCODING 316
SWIDTH 838 0
DWIDTH 49 0
BBX 43 32 2 0
BITMAP
007ffc000000
01f83f800000
07f01fc00000
0ff00fe00000
0fe00fe00000
1fe00ff00000
1fe00ff00000
1fe00ff00000
1fe01ff00000
0fe03fe00000
0ff07fc00000
07f0ff800000
01fbfe000000
007ff8000000
003fe0000000
007fffc00000
01fe0ff00000
03fc07f80000
07f807f80000
0ff007f80000
1fe007f80000
3fc003fc0000
3fc003ffc000
7f8003fffe00
7f8003fc7f80
ff0003fc3fc0
ff0001fe1fc0
ff0001fe1fe0
ff0001fe1fc0
ff0001fe3fc0
ff0001ffff00
7fc000fffc00
ENDCHAR
STARTCHAR S
ENCODING 317
SWIDTH 821 0
DWIDTH 48 0
BBX 42 32 3 0
BITMAP
00fffc000000
03f03f800000
0fe01fc00000
1fe00fe00000
1fc00ff00000
3fc00ff00000
3fc00fffff80
3fc00ff0ff80
3fc01fe07f80
1fc03fe07f80
1fe07fc07f80
0fe1ff803fc0
03f3fe001fc0
00fff8000000
003fe0000000
00ffffc00000
01fe0ff00000
03fc07f80000
07f007f80000
0ff007f80000
1fe007f80000
3fc007f80000
3fc003fc0000
7f8003fc0000
7f8003fc0000
ff0003fc0000
ff0001fe0000
ff0001fe0000
ff0001fe0000
ff0001fe0000
ff0001fe0000
7fc000ff0000
ENDCHAR
STARTCHAR So
ENCODING 318
SWIDTH 616 0
DWIDTH 36 0
BBX 31 32 2 0
BITMAP
007ffc00
01f83f80
07f01fc0
0ff00fe0
0fe00fe0
1fe00ff0
1fe00ff0
1fe00ff0
1fe01ff0
0fe03fe0
0ff07fc0
07f0ff80
01fbfe00
007ff800
003fe000
007fffc0
01fe07f8
03fc03fc
07f803fc
0ff003fc
1fe003fc
3fc003fc
3fc003fc
7f8001fe
7f8001fe
ff000000
ff000000
ff000000
ff000000
ff000000
ff000000
7fc00000
ENDCHAR
STARTCHAR SWa
ENCODING 319
SWIDTH 626 0
DWIDTH 44 0
BBX 43 39 1 -5
BITMAP
003ffe000000
00fc1f800000
03f80fe00000
07f807f00000
07f007f00000
0ff007f80000
0ff007f80000
0ff007f80000
0ff00ff80000
07f00ff00000
07f81ff00000
03f83fe00000
00fcff800000
003ffe000000
003ff0000000
01ffffe00000
07f807f80000
1fe003fc0000
3fc003fc0000
7f8003fc0000
7f0003fc0000
ff0001fe0000
ff0001fe0000
ff0001fe0000
7fc001fe0000
000001fe0000
000000ff0000
000000ff0000
000000ff0000
000000ff0000
000000ff0000
0000007f8000
0000ffffffc0
0000fe003f80
0001fe003fc0
0001fc001fc0
0003fc001fe0
0007f8000fe0
0003e00003c0
ENDCHAR
STARTCHAR `Se/S2e
ENCODING 320
SWIDTH 564 0
DWIDTH 33 0
BBX 26 36 4 -2
BITMAP
0001f800
000ffe00
0078ff00
01f07f80
03e03fc0
0fe03fc0
0fc03fc0
1fc03fc0
3fc03fc0
3fc03fc0
7fc03fc0
7f803fc0
ff803fc0
ff803fc0
ff807fc0
ff87bfc0
fff83fc0
ff803fc0
ff803fc0
ff003fc0
ff003fc0
ff003fc0
ff003fc0
ff003fc0
ff003fc0
ff003fc0
ff003fc0
ff007f80
ff007f80
ff807f80
7f81ff00
7fde0000
7ff80000
3fe00000
1f000000
0c000000
ENDCHAR
STARTCHAR `Su/S2u
ENCODING 321
SWIDTH 804 0
DWIDTH 47 0
BBX 42 36 4 -2
BITMAP
0001f8000000
000ffe000000
0078ff000000
01f07f800000
03e03fc00000
0fe03fc00000
0fc03fc00000
1fc03fc00000
3fc03fc00000
3fc03fc00000
7fc03fc00000
7f803fc00000
ff803fc00000
ff803fc00000
ff807fc00000
ff87bfc00000
fff83fc00000
ff803fffff80
ff803fc0ff80
ff003fc07f80
ff003fc07f80
ff003fc03fc0
ff003fc01fc0
ff003fc00f80
ff003fc00000
ff003fc00000
ff003fc00000
ff007f800000
ff007f800000
ff807f800000
7f81ff000000
7fde00000000
7ff800000000
3fe000000000
1f0000000000
0c0000000000
ENDCHAR
STARTCHAR `Si/S2i
ENCODING 322
SWIDTH 616 0
DWIDTH 36 0
BBX 34 38 2 -3
BITMAP
0070000000
03ffc00000
0fc1f00000
1f81f80000
3f80fc0000
3f00fe0000
7f00fe0000
7f00fe0000
7f0fff0000
fff0ff0000
ff00ff0000
ff01fe0000
ff01fe0000
7f01fe0000
3f83fc0000
1fe3fc0000
07fffc0000
007ff80000
0007f80000
0007f80000
0007f80000
000ff00000
000ff00000
000ff00000
001fe00000
001fe00000
001fe00000
001fe00000
003fe00000
003fc00f80
003fc07e00
003fc0fe00
007fc1fe00
007ffffe00
003fffff00
000001ff80
000000ffc0
0000003e00
ENDCHAR
STARTCHAR `Sa/S2a
ENCODING 323
SWIDTH 496 0
DWIDTH 29 0
BBX 24 35 2 0
BITMAP
007000
03ffc0
0fc1f0
1f81f8
3f80fc
3f00fe
7f00fe
7f00fe
7f0fff
fff0ff
ff00ff
ff01fe
ff01fe
7f01fe
3f83fc
1fe3fc
07fffc
007ff8
0007f8
0007f8
0007f8
000ff0
000ff0
000ff0
001fe0
001fe0
001fe0
001fe0
003fe0
003fc0
003fc0
003fc0
007fc0
007fe0
003ff0
ENDCHAR
STARTCHAR `SE/S2E
ENCODING 324
SWIDTH 616 0
DWIDTH 36 0
BBX 31 35 2 0
BITMAP
00700000
03ffc000
0fc1f000
1f81f800
3f80fc00
3f00fe00
7f00fe00
7f00fe00
7f0fff00
fff0ff00
ff00ff00
ff01fe00
ff01fe00
7f01fe00
3f83fc00
1fe3fc00
07fffc00
007ff800
0007f800
0007f800
0007f800
000ff000
000ff000
000ff000
001fe000
001ffe00
001ffff0
001fe3f8
003fe1fe
003fc1fe
003fc1fe
003fc1fe
007fc1fc
007ffff8
003fffe0
ENDCHAR
STARTCHAR `S/S2
ENCODING 325
SWIDTH 513 0
DWIDTH 30 0
BBX 25 36 3 -1
BITMAP
00ff0000
01ff8000
00ff8000
00ff8000
00ff8000
00ff8000
00ff8000
00ff8000
00ffc000
00fff800
03f9fc00
07e0ff00
0fe07f00
1fc07f80
3fc07f80
3fc07f80
7f807f80
7f807f80
ff807f80
ff81ff80
ff9e7f80
ffe07f80
ff007f80
ff007f80
ff007f80
ff007f80
ff007f80
ff007f80
ff007f80
ff807f00
ffc0fe00
7fc0fc00
7ff1f800
3fffc000
1ff80000
0f800000
ENDCHAR
STARTCHAR `So/S2o
ENCODING 326
SWIDTH 650 0
DWIDTH 38 0
BBX 32 37 3 0
BITMAP
0001ff80
000fffe0
003f83f8
007e03fc
00fc03fe
01fc03fe
03fc01fe
03fc03ff
03fcfdff
03ff01ff
03fc01fe
03fc01fe
03fc01fe
03fc03fe
03fc03fc
03fc03fc
01fe07f8
00fe07f0
007fdfe0
001fff80
007f8000
01fe0000
03f80000
07f00000
0ff00000
1fe00000
3fc00000
3fc00000
7f800000
7f800000
7f800000
7f800000
ff000000
ff000000
ff000000
7f800000
3fc00000
ENDCHAR
STARTCHAR fe
ENCODING 328
SWIDTH 804 0
DWIDTH 47 0
BBX 42 38 1 -2
BITMAP
0001ff800000
0001ff800000
0000ff800000
00007f800000
00007f800000
00007f800000
0000ff800000
0000ff800000
0000ff000000
0001ff000000
0001fe000000
0003fe000000
0007fc000000
000ff8000000
001ff0000000
003fe0000000
007fc0000000
00ff80000000
01ff00000000
03fe00000000
07fc00000000
0ffffe000000
1fffff000000
1ff3ff000000
3fe0ff000000
3fc0ff000f00
7fc0ff007e00
7f80ff00fc00
7f80fe01fe00
ff80fe03fe00
ff80ffffff00
ff80ffffff80
7f80f800ffc0
7fc0c0007e00
3fff80000000
1ffe00000000
0ff800000000
03c000000000
ENDCHAR
STARTCHAR fu
ENCODING 329
SWIDTH 753 0
DWIDTH 44 0
BBX 37 36 3 0
BITMAP
003ff00000
001ff00000
001ff00000
000ff00000
000ff00000
001ff00000
001ff00000
003fe00000
003fc00000
007f800000
01ff000000
03fe000000
07fc000000
0ff0000000
1ffffc0000
3fc1fe0000
7fc1fe01e0
ff81fe0fc0
ff81fe3f80
ff83fc3f80
ff83fc7fc0
ffc7ffffc0
7fffffbfe0
3ffff03ff8
0feff00fc0
001fe00000
001fe00000
003fc00000
003fc00000
007f800000
007f800000
00ff000000
00ff000000
00ff000000
00ff000000
00ffc00000
ENDCHAR
STARTCHAR fi
ENCODING 330
SWIDTH 804 0
DWIDTH 47 0
BBX 41 38 1 -2
BITMAP
0001ff800000
0001ff800000
0000ff800000
00007f800000
00007f800000
00007f800000
0000ff800000
0000ff800000
0000ff000000
0001ff000000
0001fe000000
0003fe000000
0007fc000000
000ff8000000
001ff0000000
003fe0000000
007fc0000000
00ff80000000
01ff00000000
03fe00000000
07fc00000000
0ffffc000000
1ffffe000000
1fffff01ff80
3fe0ff01ff00
3fc0ff01ff00
7fc0ff01ff00
7f80ff01fe00
7f807f01fe00
ff807f01fc00
ff807e03f800
ff80fcffe000
7f80ffff8000
7fc0fe000000
3ff1f0000000
1fff80000000
0ffc00000000
03e000000000
ENDCHAR
STARTCHAR fa
ENCODING 331
SWIDTH 753 0
DWIDTH 44 0
BBX 36 36 3 0
BITMAP
003ff00000
001ff80000
000ff80000
0007f80000
0007f80000
000ff80000
000ff80000
001ff00000
003fe00000
007fc00000
00ff800000
03ff000000
07fc000000
0ff8000000
1ffffe0000
3fc1fe0000
7fc0ff0000
ff80ff0000
ff80ff0000
ff81fe0000
ff81fe0000
ffe1fe0000
7ffffe0000
3fffffffc0
07e3fc3fe0
0003fc3fe0
0003fc1fe0
0003fc1fe0
0007f80ff0
0007f807f0
0007f80080
0007f80000
000ff00000
000ff00000
000ff80000
0007fe0000
ENDCHAR
STARTCHAR fE
ENCODING 332
SWIDTH 889 0
DWIDTH 52 0
BBX 50 41 1 -5
BITMAP
0000ffc0000000
0000ffc0000000
00007fc0000000
00003fc0000000
00003fc0000000
00003fc0000000
00007fc0000000
00007fc0000000
00007f80000000
0000ff80000000
0001ff00000000
0001fe00000000
0003fe00000000
0007fc00000000
000ff800000000
001ff000000000
003fc000000000
007f8000000000
01ff0000000000
03fe0000000000
07fc0000000000
0ffffe00000000
0fffff00000000
1ffbff80000000
3fe07f80000000
3fc07f80000000
7fc07f80000000
7f807f80000000
7f803f80000000
ff803f8000fe00
ff807f00ffff80
ff807e7ffeff80
7f807ffff83fc0
7fc07f03f01fc0
3ff0f007f01fc0
1fffc007f01fc0
0ffe0007f01fc0
03f00003f83f80
00000003fcff80
00000001fffe00
00000000fe0000
ENDCHAR
STARTCHAR f
ENCODING 333
SWIDTH 718 0
DWIDTH 42 0
BBX 37 35 3 0
BITMAP
00001ff800
000ffffe00
007ff1fe00
01fe01fe00
07f800fe00
0ff000ff00
1fe0007f80
3fe0001f00
3fc0000000
7fc0000000
7f80000000
7f80000000
ff80000000
fffff80000
ff03fc0000
ff01fe0000
ff00ff0000
ff01fe0000
ffc1fe0000
7ffffe0000
3fffffffe0
03f3fc1fe0
0003fc1fe0
0003fc1fe0
0003fc0ff0
0007f807f8
0007f803f0
0007f80000
0007f80000
0007f80000
000ff00000
000ff00000
000ff00000
000ff00000
000ff80000
ENDCHAR
STARTCHAR fo
ENCODING 334
SWIDTH 804 0
DWIDTH 47 0
BBX 38 38 3 -1
BITMAP
0000000180
00000fffe0
00007ffff8
000fff87f8
007e7f03fc
00fc7f01fc
03f87e01fc
07f07f03fc
0ff07f03f8
1fe03f87f8
1fe03ffff0
3fe00fffe0
7fc0000000
7fc0000000
7fc0000000
ffc0000000
ff80000000
ff80000000
ff80000000
ff80000000
ff80000000
ff80000000
ffbfe00000
fffff00000
fffff80000
ff03f80000
ff03f80000
ff03f800f0
ff03f807e0
ff03f80fe0
ff03f81fe0
ff03ffffe0
ff03fffff0
ff07fffff8
7f87800ffc
3fff0003e0
1ffe000000
07fc000000
ENDCHAR
STARTCHAR fWa
ENCODING 335
SWIDTH 753 0
DWIDTH 42 0
BBX 36 44 3 -7
BITMAP
003ff00000
001ff80000
000ff80000
0007f80000
0007f80000
000ff80000
000ff80000
001ff00000
003fe00000
007fc00000
00ff800000
03ff000000
07fc000000
0ff8000000
1ffffe0000
3fc1fe0000
7fc0ff0000
ff80ff0000
ff80ff0000
ff81fe0000
ff81fe0000
ffe1fe0000
7ffffe0000
3fffffffc0
07e3fc3fe0
0003fc3fe0
0003fc1fe0
0003fc1fe0
0007f80ff0
0007f807f0
0007f80080
0007f80000
000ff00000
000ff00000
000ff80000
0007fe1fe0
003fffffe0
7fc0001fe0
7fc0001fe0
3fc0001fe0
7f80000ff0
7f800007f0
ff00000080
7e00000000
ENDCHAR
STARTCHAR pe
ENCODING 336
SWIDTH 804 0
DWIDTH 47 0
BBX 44 37 1 0
BITMAP
00000000ffc0
000fffff3fc0
3ff03fc03fc0
7fc03fc03fc0
3fc03fc01fe0
3f803fc00ff0
7f803fc007e0
ff003f800000
fe007f800000
18007f800000
00007f800000
00007f800000
00007f800000
00007f800000
00007f800000
00007f800000
00007f800000
00007f800000
00007f800000
00007f800000
00007f800000
00007f800000
00007f800000
00007f800000
0000ff000000
0000ff000000
0000ff000000
0000ff000000
0000ff000000
0000ff000000
0000ff000000
0000ff000000
0000ff000000
0000ff000000
0000ff000000
0000ff800000
00007fc00000
ENDCHAR
STARTCHAR pu
ENCODING 337
SWIDTH 804 0
DWIDTH 47 0
BBX 44 37 1 0
BITMAP
00000000ffc0
000fffff3fc0
3ff03fc03fc0
7fc03fc03fc0
3fc03fc01fe0
3f803fc00ff0
7f803fc007e0
ff003f800000
fe007f800000
18007f800000
00007f800000
00007f800000
00007f800000
00007f800000
00007f800000
00007f800000
00007f800000
00007f800700
00007f807e00
00007f80fe00
00007f81fe00
00007fbffe00
00007fffff00
00007fc1ff80
0000ff00ffc0
0000ff003f00
0000ff000000
0000ff000000
0000ff000000
0000ff000000
0000ff000000
0000ff000000
0000ff000000
0000ff000000
0000ff000000
0000ff800000
00007fc00000
ENDCHAR
STARTCHAR pi
ENCODING 338
SWIDTH 804 0
DWIDTH 47 0
BBX 44 40 1 -3
BITMAP
00000000ffc0
000fffff3fc0
3ff03fc03fc0
7fc03fc03fc0
3fc03fc01fe0
3f803fc00ff0
7f803fc007e0
ff003f800000
fe007f800000
18007f800000
00007f800000
00007f800000
00007f800000
00007f800000
00007f800000
00007f800000
00007f800000
00007f800000
00007f800000
00007f800000
00007f800000
00007f800000
00007f800000
00007f800000
0000ff000000
0000ff000000
0000ff000000
0000ff000000
0000ff000000
0000ff000000
0000ff000000
0000ff000f80
0000ff007e00
0000ff00fe00
0000ff01fe00
0000fffffe00
00007fffff00
00000001ff80
00000000ffc0
000000003e00
ENDCHAR
STARTCHAR pa
ENCODING 339
SWIDTH 872 0
DWIDTH 51 0
BBX 48 40 1 -3
BITMAP
000000000ffc
0000fffff3fc
03ff03fc03fc
07fc03fc03fc
03fc03fc01fe
03f803fc00ff
07f803fc007e
0ff003fc0000
0fe003fc0000
018003fc0000
000003fc0000
000003fc0000
000003fc0000
000003fc0000
000003fc0000
000003fc0000
000003fc0000
000003fc0000
000003fc0000
000003fc0000
000003fc0000
000003fc0000
000003fc0000
000003f80000
000007f80000
000007f00000
000007f00000
00000fe00000
00000fc00000
00001f800000
00007f000000
0001fc000000
00fff0000000
7fff80000000
7f8000000000
7f8000000000
7f0000000000
7f0000000000
fe0000000000
f80000000000
ENDCHAR
STARTCHAR pE
ENCODING 340
SWIDTH 804 0
DWIDTH 47 0
BBX 44 37 1 0
BITMAP
00000000ffc0
000fffff3fc0
3ff03fc03fc0
7fc03fc03fc0
3fc03fc01fe0
3f803fc00ff0
7f803fc007e0
ff003f800000
fe007f800000
18007f800000
00007f800000
00007f800000
00007f800000
00007f800000
00007f800000
00007f800000
00007f800000
00007f800000
00007f800000
00007f800000
00007f800000
00007f800000
00007f800000
00007f800000
0000ff000000
0000ff000000
0000ff000000
0000fff00000
0000ffff8000
0000ff1fe000
0000ff07f000
0000ff07f800
0000ff07f800
0000ff07f800
0000ff07f000
0000ffffe000
00007fff8000
ENDCHAR
STARTCHAR p
ENCODING 341
SWIDTH 804 0
DWIDTH 47 0
BBX 44 37 3 0
BITMAP
00000001ffc0
000ffffe3fc0
3ff03f803fc0
7fc07f803fc0
7fc07f801fe0
7f807f801ff0
7f807f8007e0
ff007f800000
fe00ff000000
3800ff000000
0000ff000000
0000ffe00000
00001fe00000
00001fe00000
00001fe00000
00001fe00000
00003fc00000
00003fc00000
00003fc00000
00003fc00000
00003fc00000
00007f800000
00007f800000
00007f800000
00007f800000
00007f800000
0000ff000000
0000ff000000
0000ff000000
0000ff000000
0000ff000000
0001fe000000
0001fe000000
0001fe000000
0001fe000000
0001fe000000
0001ff000000
ENDCHAR
STARTCHAR po
ENCODING 342
SWIDTH 855 0
DWIDTH 50 0
BBX 48 37 1 0
BITMAP
000000000ffc
0000fffff3fc
03ff03fc03fc
07fc03fe03fc
03fc01fe01fe
03f801fe00ff
07f801fe007e
0ff001fe0000
0fe001fe0000
018001fe0000
000001fe0000
000003fe0000
000003fe0000
000003fc0000
000007fc0000
000007f80000
00000ff00000
00001ff00000
00001fe00000
00003fc00000
00007f000000
0000fe000000
0003fc000000
0007f0000000
000fe0000000
003f80000000
007f00000000
01fc00000000
07f800000000
0ff000000000
3fe000000000
7fe000000000
ffc000000000
ff8000000000
ff8000000000
ffc000000000
ffc000000000
ENDCHAR
STARTCHAR pWa
ENCODING 343
SWIDTH 872 0
DWIDTH 70 0
BBX 64 47 1 -7
BITMAP
0000000000000ffc
00000000fffff3fc
000003ff03fc03fc
000007fc03fc03fc
000003fc03fc01fe
000003f803fc00ff
000007f803fc007e
00000ff003fc0000
00000fe003fc0000
0000018003fc0000
0000000003fc0000
0000000003fc0000
0000000003fc0000
0000000003fc0000
0000000003fc0000
0000000003fc0000
0000000003fc0000
0000000003fc0000
0000000003fc0000
0000000003fc0000
0000000003fc0000
0000000003fc0000
0000000003fc0000
0000000003f80000
0000000007f80000
0000000007f00000
0000000007f00000
000000000fe00000
000000000fc00000
000000001f800000
000000007f000000
00000001fc000000
000000fff0000000
00007fff80000000
00007f8000000000
00007f8000000000
00007f0000000000
00007f0000000000
0000fe0000000000
003fffffe0000000
7fc0001fe0000000
7fc0001fe0000000
3fc0001fe0000000
7f80000ff0000000
7f800007f0000000
ff00000080000000
7e00000000000000
ENDCHAR
STARTCHAR mYa
ENCODING 344
SWIDTH 1061 0
DWIDTH 60 0
BBX 54 47 3 0
BITMAP
000fc000001f80
000fe000007f80
0007f00000ff00
0007f80000fe00
0007fc0001fe00
0007ffe07fff00
0007ffffffff00
0000003fc00000
0000003fc00000
0000003fc00000
0000003fc01fe0
00003ffffffff0
000ffffffffff8
007ffff0ff07f8
01ff0ff0ff03fc
07f81fe0ff03fc
0fe01fe1fe03fc
1fc03fc3fc03fc
3f803fc3fc03fc
7f807f87f803fc
ff007f87f807f8
ff00ff0ff007f8
ff00ff07f807f8
ff01fe07f80ff0
ff01fe03fffff0
7fc3fc00fffff0
3ffffc00001fe0
01fc0000001fe0
00000000003fc0
00000000003fc0
00000000007f80
00000000007f80
0000000000ff00
0000000000ff00
0000000000ff00
0000000001fe00
0000000001fe00
0000000003fc00
0000000003fc00
0000000003fc00
0000000003fc00
0000000003fc00
0000000003fc00
0000000003fc00
0000000003fc00
0000000003fc00
0000000001fe00
ENDCHAR
STARTCHAR rYa
ENCODING 345
SWIDTH 616 0
DWIDTH 50 0
BBX 44 41 3 0
BITMAP
07e000000fc000
07f000003fc000
03f800007f8000
03fc00007f0000
03fe0000ff0000
03fff03fff8000
03ffffffff8000
00001fe0000000
00001fe0000000
00001fe0000000
00001fe0000000
00001fe0000000
00001fe0000000
00003fc0000000
00003fc0000000
00007f80000000
0000ff00000000
0001fe00000000
0003fc00000000
0007f800000000
001ff000000000
003fc000000000
00ff8000000000
01fe0000000000
07fc0000000000
0ff00000000000
1fe00000000000
3fc00000000000
3fc00000000000
7f8000e0000000
7f801ff0000000
ff000ff0000000
ff0007f8000000
ff0007f8000000
ff0007f8000000
ff000ff8000000
7f801ff0000000
7f80ffe0000000
3fcfff00000000
0fff0000000000
03f00000000000
ENDCHAR
STARTCHAR fYa
ENCODING 346
SWIDTH 0 0
DWIDTH 46 0
BBX 40 38 1 0
BITMAP
1f8000003f
1fc00000ff
0fe00001fe
0ff00001fc
0ff80003fc
0fffc0fffe
0ffffffffe
0000ffc000
00007f8000
00007f8000
00003f8000
00003f8000
00003f8000
00003f0000
00007f0000
0000fe0000
0001fe0000
0003fc0000
0007f80000
000ff00000
000fe00000
001fe00000
003fc00000
007f8000c0
00fff81fc0
01fffc3fe0
01f8fc1fe0
03f0fc1fe0
07f0fc1fe0
07e0fc1fc0
07e0fc1fc0
07e0fc1f80
0fe1fc3e00
0ff3fff800
07ffff8000
07fc000000
03f0000000
00c0000000
ENDCHAR
STARTCHAR Space
ENCODING 352
SWIDTH 1249 0
DWIDTH 73 0
BBX 0 0 0 1
BITMAP
ENDCHAR
STARTCHAR Ethiopic-Wordspace
ENCODING 353
SWIDTH 616 0
DWIDTH 28 0
BBX 8 20 -4 9
BITMAP
3f
ff
ff
ff
ff
ff
fc
00
00
00
00
00
00
3f
ff
ff
ff
ff
ff
fc
ENDCHAR
STARTCHAR Ethiopic-Full-Stop
ENCODING 354
SWIDTH 1229 0
DWIDTH 38 0
BBX 22 22 -2 9
BITMAP
0000fc
0003fc
3f03fc
ff03fc
ff03fc
ff03fc
ff03fc
ff03f0
fc0000
000000
000000
000000
000000
0000fc
0003fc
3f03fc
ff03fc
ff03fc
ff03fc
ff03f0
ff0000
fc0000
ENDCHAR
STARTCHAR Ethiopic-Comma
ENCODING 355
SWIDTH 564 0
DWIDTH 33 0
BBX 20 30 2 5
BITMAP
0003c0
03ffe0
7ffff0
ffffe0
fffe00
fe0000
000000
000000
000000
000000
07f800
07f800
07f800
07f800
07f800
07f800
078000
000000
000000
000000
000000
000000
000800
07f800
07f800
07f800
07f800
07f800
07f800
078000
ENDCHAR
STARTCHAR Ethiopic-Semicolon
ENCODING 356
SWIDTH 564 0
DWIDTH 33 0
BBX 20 36 2 3
BITMAP
000040
00ffe0
7ffff0
ffffe0
ffffc0
ff8000
000000
000000
000000
000000
01f800
07f800
07f800
07f800
07f800
07f800
07f000
000000
000000
000000
000000
00f800
07f800
07f800
07f800
07f800
07f800
07f000
000000
000000
000180
00ffc0
3fffc0
7fff80
7fff00
3f8000
ENDCHAR
STARTCHAR Ethiopic-Colon
ENCODING 357
SWIDTH 530 0
DWIDTH 31 0
BBX 20 25 0 6
BITMAP
3c0000
7e0000
ff0000
ff0000
ff0000
ff0000
7e0000
3c0000
000000
000000
000000
1ffff0
1ffff0
1ffff0
000000
000000
000000
3c0000
7e0000
ff0000
ff0000
ff0000
ff0000
7e0000
3c0000
ENDCHAR
STARTCHAR Ethiopic-Preface-Colon
ENCODING 358
SWIDTH 530 0
DWIDTH 31 0
BBX 16 25 0 6
BITMAP
03c0
07e0
0ff0
0ff0
0ff0
0ff0
07e0
03c0
0000
0003
003f
07ff
ffff
ffe0
fc00
c000
0000
03c0
07e0
0ff0
0ff0
0ff0
0ff0
07e0
03c0
ENDCHAR
STARTCHAR Ethiopic-Question-Mark
ENCODING 359
SWIDTH 616 0
DWIDTH 45 0
BBX 8 33 -2 9
BITMAP
3f
ff
ff
ff
ff
ff
fc
00
00
00
00
00
00
3f
ff
ff
ff
ff
ff
fc
00
00
00
00
00
00
3f
ff
ff
ff
ff
ff
fc
ENDCHAR
STARTCHAR Ethiopic-End-Paragraph
ENCODING 360
SWIDTH 872 0
DWIDTH 51 0
BBX 32 40 -2 -2
BITMAP
00018000
0003c000
0007e000
0007e000
0007e000
0007e000
0003c000
00000000
10000008
7c00003e
fe00007f
fe00007f
fe00007f
fe00007f
7c00003e
00000000
00000000
0003c000
0007e000
0007e000
0007e000
0007e000
0003c000
00000000
00000000
7c00003e
fe00007f
fe00007f
fe00007f
fe00007f
7c00003e
10000008
00000000
0003c000
0007e000
0007e000
0007e000
0007e000
0003c000
00018000
ENDCHAR
STARTCHAR Ethiopic-1
ENCODING 361
SWIDTH 718 0
DWIDTH 42 0
BBX 36 46 3 -7
BITMAP
000003ffc0
03fffc3fc0
0ff0003fc0
0ff0003fc0
0ff0001fe0
0ff0000ff0
1fe00007e0
1fc0000000
0f80000000
0000000000
0007f80000
0003fc0000
0003fc0000
0003fc0000
0007f80000
000ff00000
000ff00000
001fe00000
003fc00000
007ff00000
00fffe0000
01fe7f0000
03fc3fc000
03fc1fc000
07f81fe000
0ff00fe000
0ff00ff000
1fe00ff000
1fe00fe000
1fe01fe000
1fe01fc000
1fe01fc000
1fe03f8000
0ff0fe0000
07fff80000
0000000000
0000000000
000001fe00
003fffff00
7fc001fe00
7fc000fe00
3fc000ff00
7f80007f80
7f80003f80
ff00000c00
7c00000000
ENDCHAR
STARTCHAR Ethiopic-2
ENCODING 362
SWIDTH 650 0
DWIDTH 38 0
BBX 32 47 2 -7
BITMAP
00000ffe
0ffff3fe
7fc003fc
3fc001fe
3fc001fe
7f8000ff
ff80007e
ff000000
7c000000
0007fc00
003fff80
00fe1fc0
01fc1fe0
03f80ff0
07f80ff0
07f00ff0
0ff01ff0
0ff01fe0
0ff07fc0
0fffff80
0ffffe00
0ff00000
0ff80000
07f80000
07f80000
07ff0000
03ffff00
03ffffc0
01fc0fe0
01fc0ff0
00fc0ff0
007c0ff0
003e0fe0
001e3fc0
000fff00
0007e000
00000000
00000000
000003fc
003ffffe
7fc003fc
7fc001fe
3fc001fe
7f8000ff
7f80007f
ff000008
7c000000
ENDCHAR
STARTCHAR Ethiopic-3
ENCODING 363
SWIDTH 684 0
DWIDTH 40 0
BBX 32 47 4 -7
BITMAP
00000ffc
07fff3fe
3fc003fc
3fc003fc
3fc001fe
3fc000ff
7f80007e
ff000000
3e000000
00000000
00000000
00000000
00000000
3ffffff0
3fc01ff0
7f800ff0
7f800ff0
7f8007f8
7f8003f8
7f8001f0
7f800000
7f800000
7f800000
7f800000
7f800000
ff000000
ff000000
ff000000
ff000000
ff000000
ff000000
ff000000
ff000000
ff000000
ff000000
7fc00000
00000000
00000000
000003fc
003ffffe
3fc003fc
3fc003fc
3fc001fe
3fc000ff
7f80007e
ff000018
7e000000
ENDCHAR
STARTCHAR Ethiopic-4
ENCODING 364
SWIDTH 684 0
DWIDTH 40 0
BBX 32 47 4 -7
BITMAP
00000ffc
07fff3fe
3fc003fc
3fc003fc
3fc001fe
3fc000ff
7f80007e
ff000000
3e000000
00000000
00000000
001ff000
00fffe00
01f83f00
03f01f80
07f01fc0
07e00fc0
0fe00fe0
0fe00fe0
1fe00ff0
1fe00ff0
1fe00ff0
1fe00ff0
1fe00ff0
1fe00ff0
0fe00fe0
0fe00fe0
07e00fc0
07f01fc0
03f01f80
01f83f00
00fffe00
001ff000
00000000
00000000
00000000
00000000
00000000
000003fc
003ffffe
3fc003fc
3fc003fc
3fc001fe
3fc000ff
7f80007e
ff000018
7e000000
ENDCHAR
STARTCHAR Ethiopic-5
ENCODING 365
SWIDTH 684 0
DWIDTH 40 0
BBX 33 47 1 -7
BITMAP
000007fe00
03fff9ff00
1ff001fe00
1ff000fe00
1fe000ff00
1fe0007f80
3fc0003f00
3f80000000
1f00000000
0000000000
0000000000
000ff00000
000ff00000
000ff00000
000ff00000
000ff00000
001fe00000
003fc00000
007ffffe00
00ff01fe00
01fe01fe00
07fc01fe00
0ff000ff00
1fe0007f80
3fc0003e00
7f80000000
ff00000000
ff00000000
ff0001f000
ff0007f000
ff000ff000
ff000ff000
7f003ff800
3f9feffc00
1ffe07fe00
07c003f800
0000000000
0000000000
000001fe00
000fffff00
1ff001fe00
1ff001fe00
1fe000ff00
1fe0007f80
3fc0003f80
7f80000c00
1f00000000
ENDCHAR
STARTCHAR Ethiopic-6
ENCODING 366
SWIDTH 616 0
DWIDTH 36 0
BBX 32 47 2 -7
BITMAP
00000ffc
07fff3fe
3fe003fc
3fe001fc
3fc001fe
3fc000ff
7f80007e
7f000000
3e000000
00000000
00000000
7f000000
ff800000
7fdfff80
3fffff80
3fe07fc0
3f803fc0
7f007f80
f8007f80
0000ff00
0001fe00
0001fe00
0003fc00
0007f800
0007f800
000ff000
001fe000
001fff00
003fffc0
007f87f0
007f87f8
00ff07f8
01fe07f8
01fe07f0
01fe0fe0
00ffffc0
0003fe00
00000000
000003fc
001ffffe
3fe003fc
3fe003fc
3fc001fe
3fc000ff
7f80007f
ff000018
3e000000
ENDCHAR
STARTCHAR Ethiopic-7
ENCODING 367
SWIDTH 753 0
DWIDTH 44 0
BBX 34 47 5 -7
BITMAP
000003ff00
01fffcff80
0ff000ff00
0ff000ff00
0ff0007f80
0ff0003fc0
1fe0001f80
1fc0000000
0f80000000
0000000000
0000000000
0001ff8000
03fe7fc000
1ff03fc000
1ff01fe000
1fe03fc000
1fe03fc000
3fc07f8000
3f80ff0000
1f00ff0000
0001fe0000
0003fc0000
0003fc0000
0007f80000
000ff00000
000ff00000
001fe00000
003fc00000
003fc00000
007f801f00
00ff007e00
00ff00fe00
00ff01ff00
007fffff00
003fffff80
000000ffc0
0000007fc0
0000000000
000003f800
003ffffc00
7fc007fc00
7fc003fc00
3fc003fc00
7f8001fe00
7f8000fe00
ff00001000
7c00000000
ENDCHAR
STARTCHAR Ethiopic-8
ENCODING 368
SWIDTH 804 0
DWIDTH 47 0
BBX 40 49 4 -9
BITMAP
0000003e00
00ffffff80
00ff807f80
00ff007f80
00ff007f80
01fe003fc0
03fe001fc0
00f8000700
0000000000
0000000000
0000000000
0000007ffc
0fffff83fc
1fe0ff03fc
1fe0ff03fc
1fe0ff01fe
1fc0ff00ff
3fc0ff007e
3f80ff0000
1e00ff0000
0000ff0000
0000ff0000
0000ff0000
0001fe0000
0001fe0000
0001fe0000
0001fe0000
0001fe0000
0001fe0000
0001fe0000
0001fe0000
0003fffff8
7ffc000ff0
7f80000ff0
7f800007f8
7f800007f8
7f800003fc
ff000000f0
fe00000000
3800000000
0000000000
00fffffe00
03fe01fe00
01fe01fe00
01fe01fe00
03fc00ff00
07f8007f80
07f0003f00
01c0000000
ENDCHAR
STARTCHAR Ethiopic-9
ENCODING 369
SWIDTH 684 0
DWIDTH 40 0
BBX 31 47 5 -7
BITMAP
00000ffc
03fff7fc
1ff007fc
1ff003fc
1fe003fc
1fe001fe
3fc000fc
3f800000
1f000000
00000000
00000020
000003f0
00000ff0
00200ff8
01f007f8
0ff803fc
0ff803fc
03fc03fc
03fc03fc
03fc07fc
07f807fc
07f83ff8
07ffc7f8
07f80ff8
0ff00ff0
0ff00ff0
0ff00fe0
0ff01fe0
0ff01fc0
1fe01f80
0fe01f00
0fe03e00
07e03c00
07e07800
03f0e000
00ffc000
003e0000
00000000
00000ff0
003ffff0
3fc00ff0
7fc00ff0
3fc00ff0
7f8007f8
7f8003f8
ff000040
7e000000
ENDCHAR
STARTCHAR Ethiopic-10
ENCODING 370
SWIDTH 616 0
DWIDTH 36 0
BBX 32 47 2 -7
BITMAP
00000ffc
07fff3fe
3fe003fc
3fe001fc
3fc001fe
3fc000ff
7f80007e
7f000000
3e000000
00000000
0003f800
0007fc00
0003fc00
0003fc00
0003fc00
0003fc00
0007f800
0007f800
0007f800
000ff000
000ff000
000ff000
001fe000
001fe000
001fe000
001fe000
003fc000
003fc000
003fc000
007f8000
007f8000
007f8000
007f8000
003fc000
001fc000
00000000
00000000
00000000
000003fc
001ffffe
3fe003fc
3fe003fc
3fc001fe
3fc000ff
7f80007f
ff000018
3e000000
ENDCHAR
STARTCHAR Ethiopic-20
ENCODING 371
SWIDTH 753 0
DWIDTH 44 0
BBX 40 47 1 -7
BITMAP
0000003fc0
007fffffe0
00ff803fc0
00ff001fe0
00ff001fe0
00ff000ff0
01fe0007f0
01fc000080
0070000000
0000000000
0000000000
000003fffe
03ffff81fe
3fc07f81fe
3fc07f81fe
3fc07f80ff
3fc07f807f
7f80ff001e
ff00ff0000
3e01fe0000
0001fe0000
0003fff800
0007ffff00
000ff0ff80
001fe07f80
003fc03fc0
007f803fc0
00ff003fc0
00ff003fc0
00ff003fc0
01fe003fc0
01fe003fc0
00ff001fe0
00ff001fe0
007f801fe0
0000000000
0000000000
0000000000
0000001f00
007fffffc0
01ff007fc0
01ff003fc0
01fe003fc0
01fe001fe0
03fc000fe0
03f8000380
00f0000000
ENDCHAR
STARTCHAR Ethiopic-30
ENCODING 372
SWIDTH 770 0
DWIDTH 45 0
BBX 41 47 0 -7
BITMAP
00000001fe00
0003ffffff00
0007f801fe00
0007f801fe00
0007f800ff00
000ff0007f80
000ff0003f00
000fe0000c00
000380000000
000000000000
000000000000
000000000000
00e000ffc000
03f007fff800
0fc01fc1fe00
1fc03f80ff00
3f807f80ff00
3f807f00ff00
7f00ff007f80
7f00ff007f80
ff00ff007f80
ff00ff007f80
ff00ff007f80
ff00ff007f80
ff00ff00ff00
ff00ff00ff00
ff00ff00ff00
ff00ff00ff00
ff00fe01fe00
7f01fe01fe00
7f81fc01fe00
3f81f801fe00
1fc3f001fe00
07ffe001fe00
01ff8001fe00
00000000ff00
000000000000
000000000000
00000003c000
000ffffff800
007fc00ff000
003fc00ff000
003fc007f800
007f8007fc00
007f8003fc00
00ff0000f000
003c00000000
ENDCHAR
STARTCHAR Ethiopic-40
ENCODING 373
SWIDTH 770 0
DWIDTH 45 0
BBX 36 47 4 -7
BITMAP
0000007f80
00ffffffc0
01ff007fc0
01ff003fc0
01fe003fc0
01fe001fe0
03fc000fe0
03f8000100
00e0000000
0000000000
0000000000
0000000000
3fc3fc1ff0
3fc1fe0ff0
3fc1fe0ff0
3fc1fe0ff0
7f81fe0ff0
7f81fe0ff0
ff03fc1fe0
ff03fc1fe0
ff03fe1fe0
ff07fe3fc0
7fc7ffffc0
1fffffffc0
0003f07fc0
0000007f80
0000007f80
0000007f80
000000ff00
000000ff00
000000ff00
000000ff00
000000ff00
000000ff00
0000007f00
0000000000
0000000000
0000000000
000000f000
03fffffc00
1ff003fc00
0ff003fc00
0ff003fc00
1fe001fe00
3fe000fe00
3fc0003800
0f00000000
ENDCHAR
STARTCHAR Ethiopic-50
ENCODING 374
SWIDTH 616 0
DWIDTH 36 0
BBX 28 47 3 -7
BITMAP
00003fc0
3fffffe0
7fc03fc0
3fc03fc0
3fc01fe0
7f800ff0
ff0007e0
7e000180
18000000
00000000
00000000
00000000
00000000
0ff7f800
0ff3fc00
0ff3fc00
1fe3fc00
3fc3fc00
3fc3fc00
3fc3fc00
7f87f800
3fc7f800
1fe7f800
0ffff800
000ff000
000ff000
000ff000
001fe000
001fe000
001fe000
001fe000
003fc000
003fc000
003fc000
003fc000
003fc000
00000000
00000000
00000f00
0fffffe0
7fc03fc0
3fc03fc0
3fc01fe0
7f801ff0
7f800ff0
ff0003c0
3c000000
ENDCHAR
STARTCHAR Ethiopic-60
ENCODING 375
SWIDTH 804 0
DWIDTH 47 0
BBX 42 47 3 -7
BITMAP
0000003fe000
007fffdfe000
00ff801fe000
007f801fe000
007f801ff000
00ff000ff800
01fe0007f000
01fc00008000
007000000000
000000000000
000000003c00
000fffffff80
7ff0ff00ff00
7fc1fe00ff00
3fc1fe007f80
7f81fe007f80
7f81fe003fc0
ff03fc000f00
fe03ffe00000
00001fe00000
00001fe00000
00001fe00000
00001fe00000
00001fe00000
00003fc00000
00003fc00000
00003fc00000
00003fc00000
00003fcffc00
0ffffff3fe00
3fe00003fc00
3fe00003fc00
3fc00001fe00
3fc00000ff00
7f8000007e00
7f0000000000
3e0000000000
000000000000
0000001e0000
007fffffc000
03fe007f8000
01fe007f8000
01fe003fc000
03fc003fe000
03fc001fe000
07f800078000
01e000000000
ENDCHAR
STARTCHAR Ethiopic-70
ENCODING 376
SWIDTH 753 0
DWIDTH 44 0
BBX 37 47 3 -7
BITMAP
000007fc00
0ffffbfc00
1ff003fc00
0ff003fc00
0ff003fe00
1fe001ff00
3fc000fe00
3f80001000
0e00000000
0000000fc0
00001fffe0
000ffffff0
007fff07f0
00f8fe07f8
03f0fe03f8
07e0fe03f8
0fe0fe07f8
1fc0fe07f0
1fc07f8ff0
3fc03fffe0
3f801fff00
7f80000000
7f80000000
7f80000000
7f80000000
ff00000000
ff00000000
ff00000000
ff00006000
ff0007e000
ff000fe000
ff001fe000
7fc01fe000
3ffffff000
1ffffff800
07fe0ffc00
000007f000
0000000000
000003c000
0ffffff800
7fc00ff000
3fc00ff000
3fc007f800
7f8007fc00
7f8003fc00
ff0000f000
3c00000000
ENDCHAR
STARTCHAR Ethiopic-80
ENCODING 377
SWIDTH 975 0
DWIDTH 57 0
BBX 53 47 2 -7
BITMAP
000000007fc000
0001ffffbfc000
0003fe003fc000
0001fe003fc000
0001fe003fe000
0003fc001ff000
0007f8000fe000
0003f000010000
0000c000000000
00000000000000
00000000000000
00000000000000
00000001ffffe0
3ffffffffc1fe0
7f81fe03fc1fe0
7f81fe03fc1fe0
7f81fe03fc0ff0
7f81fe03fc07f8
ff03fc07f803e0
fe03fc07f80000
3803fc07f80000
0003fc07f80000
0003fc07f80000
0007f80ff00000
0007f80ff00000
0007f80ff00000
0007f80ff00000
0007f80ff00000
0007f81fe00000
000ff01fe00000
000ff01fe00000
000ff01fe00000
000ff01fe00000
000ff01fe00000
0007fc0ff80000
00000000000000
00000000000000
00000000000000
000000003c0000
0001ffffff8000
0007f800ff0000
0007f800ff0000
0007f8007f8000
0007f8007fc000
000ff0003fc000
001fe0000f0000
00078000000000
ENDCHAR
STARTCHAR Ethiopic-90
ENCODING 378
SWIDTH 650 0
DWIDTH 38 0
BBX 30 47 3 -7
BITMAP
00000ff0
0ffffff8
1ff007f8
1ff007f8
1fe007f8
1fe003fc
3fc001fc
3f800020
0e000000
00000000
00000000
1ffffc00
1ff0ff00
1ff07f80
1fe07f80
1fe07f80
3fc0ff00
1f80ff00
0001fe00
0003fc00
0001fff0
00001fe0
00003fc0
00003fc0
00007f80
00007f80
0000ff00
0000ff00
0001fe00
0003fc00
0003fc00
0007f800
0007f800
0007f800
0007f800
0007fc00
00038000
00000000
000003c0
0ffffff0
7fc00ff0
3fc00ff0
3fc00ff0
7f8007f8
ff0003f8
fe0000e0
3c000000
ENDCHAR
STARTCHAR Ethiopic-100
ENCODING 379
SWIDTH 616 0
DWIDTH 36 0
BBX 32 47 1 -7
BITMAP
000003fc
07fffffc
0ff803fc
07f803fc
07f801fe
0ff001ff
1fe000fe
1fc00010
07000000
00000000
00000000
0007ff00
003fffc0
00ff0fe0
01fe07f0
01fe07f8
03fc07f8
03fc07f8
03fc0ff0
03fc0ff0
03fc1fe0
03fc3fc0
03fcff80
03fffe00
03ffc000
01fe0000
01fe0000
00ff0000
00ff0000
007f8000
007f8000
007f8000
007f8000
007f8000
007f8000
007fc000
00000000
00000000
000007c0
1ffffff0
7f801fe0
7f801fe0
7f800ff0
7f8007f8
ff0003f8
fe0000e0
78000000
ENDCHAR
STARTCHAR Ethiopic-10000
ENCODING 380
SWIDTH 616 0
DWIDTH 36 0
BBX 64 47 1 -7
BITMAP
000000000007f800
07fffffffffff800
07f800000007f800
0ff800000007f800
0ff800000003fc00
1ff000000003fc00
1fe000000001fc00
1fc0000000002000
0700000000000000
0000000000000000
0000000000000000
0007ff0003ff0000
003fffc01fffc000
00ff0fe07f87e000
01fe07f0ff03f000
01fe07f8ff03f800
03fc07f9fe03f800
03fc07f9fe03f800
03fc0ff1fe07f000
03fc0ff1fe07f000
03fc1fe1fe0fe000
03fc3fc1fe1fc000
03fcff01fe7f8000
03fffffffffe0000
03ffffffffe00000
01fe0000ff000000
01fe0000ff000000
00ff00007f800000
00ff00007f800000
007f80003fc00000
007f80003fc00000
007f80003fc00000
007f80003fc00000
007f80003fc00000
007f80003fc00000
007fc0003fe00000
0000000000000000
0000000000000000
0000000000000000
1ffffffffffff000
7f800000001ff000
7f800000001ff000
7f800000000ff800
7f8000000007f800
ff0000000003f800
fe0000000000fc00
7800000000000000
ENDCHAR
STARTCHAR `qe/q2e
ENCODING 384
SWIDTH 735 0
DWIDTH 46 0
BBX 40 48 1 0
BITMAP
000800010000
000e00030000
000e00038000
001e0003c000
003e0003fc00
027f0007f800
01ff800ff000
0007c01f0000
0001e03c0000
0000fff80000
00007ff00000
00003fe00000
00007fc00000
00003fc00000
00003fc00000
00003fc00000
00003fc00000
00007fc00000
00007f800000
00007f800000
00007f9c0000
00007fffe000
001ffffff800
01ffff87fc00
07fc7f83fe00
1fe07f83ff00
3fc0ff03ff00
7fc0ff01ff00
ffc0ff03ff00
ffc0ff03ff00
ffc0ff03fe00
ffc0ff07fc00
ffc0fffff000
7fffffff0000
3fffff800000
07f9fe000000
0001fe000000
0001fe000000
0001fe000000
0001fe000000
0001fe000000
0001fe000000
0003fc000000
0003fc000000
0003fc000000
0003fc000000
0003fe000000
0001ff000000
ENDCHAR
STARTCHAR `qu/q2u
ENCODING 385
SWIDTH 735 0
DWIDTH 43 0
BBX 43 48 1 0
BITMAP
000800010000
000e00030000
000e00038000
001e0003c000
003e0003fc00
027f0007f800
01ff800ff000
0007c01f0000
0001e03c0000
0000fff80000
00007ff00000
00003fc00000
00007f800000
00003f800000
00007f800000
00007f800000
00007f800000
00007f800000
00007f800000
00007f800000
00007f9c0000
00007fffe000
001ffffff800
01ffff87fc00
07fc7f83fe00
1fe07f83ff00
3fc0ff03ff00
7fc0ff01ff00
ffc0ff03ff00
ffc0ff03ff00
ffc0ff03fe00
ffc0ff07fc00
ffc0fffff000
7fffffff0000
3fffff800000
07f9fe000000
0001fe03f000
0001fe07e000
0001fe0fe000
0001fefff000
0001fffff000
0001ff0ff800
0003fc0ffe00
0003fc03f800
0003fc000000
0003fc000000
0003fe000000
0001ff000000
ENDCHAR
STARTCHAR `qi/q2i
ENCODING 386
SWIDTH 735 0
DWIDTH 43 0
BBX 43 50 1 -2
BITMAP
000800010000
000e00030000
000e00038000
001e0003c000
003e0003fc00
027f0007f800
01ff800ff000
0007c01f0000
0001e03c0000
0000fff80000
00007ff00000
00003fc00000
00007f800000
00003f800000
00007f800000
00007f800000
00007f800000
00007f800000
00007f800000
00007f800000
00007f9c0000
00007fffe000
001ffffff800
01ffff87fc00
07fc7f83fe00
1fe07f83ff00
3fc0ff03ff00
7fc0ff01ff00
ffc0ff03ff00
ffc0ff03ff00
ffc0ff03fe00
ffc0ff07fc00
ffc0fffff000
7fffffff0000
3fffff800000
07f9fe000000
0001fe000000
0001fe000000
0001fe000000
0001fe000000
0001fe000000
0001fe00f000
0003fc07e000
0003fc0fc000
0003fc1fe000
0003ffffe000
0003fffff000
0001ff1ff800
0000000ffc00
00000003e000
ENDCHAR
STARTCHAR `qa/q2a
ENCODING 387
SWIDTH 804 0
DWIDTH 47 0
BBX 46 53 1 -2
BITMAP
00010000200000
0001c000600000
0001c000700000
0003c000780000
0007c0007f8000
004fe000ff0000
003ff001fe0000
0000f803e00000
00003c07800000
00001fff000000
00000ffe000000
000007fc000000
000007f8000000
000007f8000000
000007f8000000
000007f8000000
000007f8000000
000007f8000000
000007f8000000
000007f8000000
000007f8000000
000007f8000000
000007fffc0000
0000ffffff8000
000ffff8ffc000
007fc7f83fe000
01ff07f83fe000
03fe07f83ff000
07fc07f83ff000
07fc07f83ff000
0ffc07f83ff000
0ffc07f83fe000
0ff80ff07fc000
0ffc0ff3ff0000
0ffe3ffff80000
07fffffe000000
01ffcff0000000
00000ff0000000
00000ff0000000
00000fe0000000
00001fe0000000
00001fc0000000
00007f00000000
0001fe00000000
007ff800000000
0fff8000000000
3fc00000000000
3fc00000000000
3fc00000000000
3f800000000000
7f800000000000
ff000000000000
7c000000000000
ENDCHAR
STARTCHAR `qE/q2E
ENCODING 388
SWIDTH 735 0
DWIDTH 43 0
BBX 43 48 1 0
BITMAP
000800010000
000e00030000
000e00038000
001e0003c000
003e0003fc00
027f0007f800
01ff800ff000
0007c01f0000
0001e03c0000
0000fff80000
00007ff00000
00003fe00000
00007fc00000
00003fc00000
00007f800000
00007f800000
00007f800000
00007f800000
00007f800000
00007f800000
00007f9c0000
00007fffe000
001ffffff800
01ffff87fc00
07fc7f83fe00
1fe07f83ff00
3fc0ff03ff00
7fc0ff01ff00
ffc0ff03ff00
ffc0ff03ff00
ffc0ff03fe00
ffc0ff07fc00
ffc0fffff000
7fffffff0000
3fffff800000
07f9fe000000
0001fe000000
0001fe000000
0001ffe00000
0001ffff0000
0001fe3fc000
0001fe0fe000
0003fc0ff000
0003fc0ff000
0003fc0ff000
0003fc0fe000
0003ffffc000
0001ffff0000
ENDCHAR
STARTCHAR `q/q2
ENCODING 389
SWIDTH 735 0
DWIDTH 43 0
BBX 44 52 1 0
BITMAP
008000100000
00e000300000
00e000380000
01e0003c0000
03e0003fc000
27f0007f8000
1ff800ff0000
007c01f00000
001e03c00000
000fff800000
0007ff000000
0003fe000000
0001fe000000
0001fe000000
0001fe000000
0001fe000000
0001fff80000
000003fc0000
000003fc0000
000003fc0000
000003fc0000
000003fc0000
000007f80000
000007f80000
000007f9c000
000007fffe00
0001ffffff80
001ffff87fc0
007fc7f83fe0
01fe07f83ff0
03fc0ff03ff0
07fc0ff01ff0
0ffc0ff03ff0
0ffc0ff03ff0
0ffc0ff03fe0
0ffc0ff07fc0
0ffc0fffff00
07fffffff000
03fffff80000
007f9fe00000
00001fe00000
00001fe00000
00001fe00000
00001fe00000
00001fe00000
00001fe00000
00003fc00000
00003fc00000
00003fc00000
00003fc00000
00003fe00000
00001ff00000
ENDCHAR
STARTCHAR `qo/q2o
ENCODING 390
SWIDTH 770 0
DWIDTH 45 0
BBX 41 47 1 0
BITMAP
001000020000
001c00060000
001c00070000
003c00078000
007c0007f800
04fe000ff000
03ff001fe000
000f803e0000
0003c0780000
0001fff00000
0000ffe00000
00007fe00000
0001fff00000
0003fffc0000
0007f0fe0000
0007f07f0000
000fe07f0000
000fe07f0000
000fe07f0000
000fe07f0000
000fe07f0000
0007f07e0000
0003fcfc0000
0001fff80000
0000ff800000
0000ff000000
0000fffff000
000ffffffe00
01ffff03ff00
07fcff01ff00
1fe1fe01ff80
3fc1fe01ff00
7fc1fe03ff00
ffc1fe03ff00
ffc1fe03fe00
7fe1fe0ffc00
7fe1ffffe000
3ffffffc0000
1ffffe000000
0001fe000000
0003fc000000
0003fc000000
0003fc000000
0003fc000000
0003fc000000
0003fe000000
0001ff800000
ENDCHAR
STARTCHAR mWe
ENCODING 392
SWIDTH 992 0
DWIDTH 83 0
BBX 77 19 2 6
BITMAP
0000fe3ff07f00000000
000f83fc7fffc0000000
003e07f8ffffe0000000
00fc0ff0ff0ff0000000
03f80ff0ff0ff00fffe0
07f01fe0ff0ffffffff8
0ff01fe1fe0fffff87f8
1fe03fc1fe0ff07f03f8
3fe03fc1fe0ff07f01f8
3fc07f81fe0ff07f01f8
7fc0ff03fc1ff07f01f8
7f80ff03fc1fe07f03f8
7f81fe03fc1fe07f87f8
ff81fe03fc3fc03ffff0
7f03fc07f83f800fffe0
7f07f807f87e00000000
7f87f803fff800000000
3ffff000038000000000
1ff80000000000000000
ENDCHAR
STARTCHAR bWe
ENCODING 393
SWIDTH 564 0
DWIDTH 56 0
BBX 50 35 3 0
BITMAP
003fe000000000
00fff800000000
03c1fc00000000
07c0fe00000000
0f80ff00000000
1f807f80000000
3f807f80000000
7f007f80000000
7f007f80000000
7f007f80000000
ff007f80000000
ff007f80000000
ff007f807fff00
ff007fffffffc0
ff007ffffc3fc0
ff007f83f81fc0
ff007f83f80fc0
ff007f83f80fc0
ff007f83f80fc0
ff007f83f81fc0
ff007f83fc3fc0
ff007f81ffff80
ff007f807fff00
ff007f80000000
ff007f80000000
ff007f80000000
ff007f80000000
ff007f80000000
ff007f80000000
ff007f80000000
ff007f80000000
ff007f80000000
ff007f80000000
ff807fc0000000
7f803fe0000000
ENDCHAR
ENDFONT
